<svg width="862" height="860" viewBox="0 0 862 860" fill="none" xmlns="http://www.w3.org/2000/svg">
<path fill-rule="evenodd" clip-rule="evenodd" d="M625.065 359.306L823.972 160.389C825.97 158.325 828.359 156.68 830.999 155.549C833.639 154.418 836.478 153.823 839.35 153.8C842.223 153.777 845.071 154.325 847.729 155.414C850.387 156.502 852.802 158.109 854.833 160.14C856.864 162.171 858.47 164.586 859.559 167.244C860.647 169.902 861.196 172.75 861.173 175.622C861.149 178.494 860.555 181.333 859.424 183.973C858.292 186.614 856.647 189.002 854.583 191L622 423.62C618.077 427.548 615.812 432.832 615.673 438.382C615.535 443.931 617.534 449.322 621.257 453.44C624.98 457.558 630.143 460.088 635.678 460.507C641.214 460.927 646.699 459.204 651 455.695L703.945 402.75C708.026 398.799 713.497 396.61 719.178 396.655C724.858 396.701 730.293 398.978 734.31 402.995C738.328 407.012 740.605 412.447 740.65 418.128C740.696 423.809 738.507 429.28 734.556 433.361L543.55 624.367C541.387 637.07 538.295 649.63 534.287 661.944C537 665.576 538.715 669.854 539.262 674.354C539.809 678.854 539.168 683.418 537.404 687.594C535.641 691.769 532.815 695.411 529.207 698.156C525.6 700.901 521.338 702.654 516.843 703.241C496.199 742.337 466.123 775.662 429.343 800.194C392.562 824.727 350.24 839.692 306.213 843.732C298.189 844.454 290.164 844.815 282.139 844.815C273.256 844.815 264.392 844.374 255.547 843.491C248.139 842.741 240.667 841.639 233.324 840.306H233.297C230.703 847.497 225.444 853.415 218.607 856.835C211.77 860.255 203.88 860.915 196.57 858.678C189.261 856.441 183.091 851.478 179.34 844.818C175.588 838.157 174.542 830.309 176.417 822.898C132.679 803.851 94.8814 773.371 66.9995 734.661C39.1176 695.952 22.1815 650.445 17.9725 602.926C17.4231 596.66 17.0959 590.38 16.991 584.083C11.7061 581.158 7.38592 576.759 4.55656 571.422C1.72719 566.085 0.510737 560.04 1.05533 554.024C1.59992 548.008 3.88206 542.28 7.62383 537.538C11.3656 532.796 16.4055 529.244 22.1299 527.315C35.2765 462.166 72.396 404.324 126.145 365.231C159.443 341.013 197.619 325.083 237.55 318.265L510.5 45.3149C512.498 43.2514 514.887 41.606 517.527 40.4748C520.167 39.3435 523.006 38.749 525.878 38.7258C528.75 38.7026 531.598 39.2512 534.257 40.3397C536.915 41.4281 539.33 43.0347 541.361 45.0657C543.392 47.0967 544.998 49.5116 546.087 52.1697C547.175 54.8278 547.724 57.6759 547.7 60.5481C547.677 63.4203 547.083 66.2592 545.951 68.8993C544.82 71.5395 543.175 73.9281 541.111 75.926L382.972 234.065C379.021 238.146 376.832 243.617 376.878 249.298C376.924 254.979 379.201 260.414 383.218 264.431C387.235 268.448 392.67 270.725 398.35 270.771C404.031 270.817 409.502 268.628 413.584 264.676L619.269 58.9908C623.35 55.0393 628.821 52.8503 634.502 52.8962C640.183 52.9421 645.618 55.2191 649.635 59.2361C653.652 63.2531 655.929 68.6881 655.974 74.3688C656.02 80.0495 653.831 85.5206 649.88 89.602L535.759 203.713C531.699 207.772 529.417 213.278 529.416 219.02C529.416 221.863 529.975 224.678 531.063 227.305C532.151 229.931 533.745 232.318 535.755 234.329C537.765 236.339 540.151 237.934 542.777 239.023C545.404 240.111 548.219 240.671 551.062 240.672C553.905 240.672 556.72 240.113 559.347 239.025C561.973 237.938 564.36 236.343 566.371 234.333L787.991 12.7131C792.011 8.69318 796.783 5.50441 802.035 3.32885C807.288 1.15329 812.917 0.0335464 818.602 0.0335464C824.287 0.0335464 829.916 1.15329 835.169 3.32885C840.421 5.50441 845.193 8.69318 849.213 12.7131C853.233 16.733 856.422 21.5053 858.597 26.7576C860.773 32.0098 861.893 37.6392 861.893 43.3242C861.893 49.0092 860.773 54.6385 858.597 59.8908C856.422 65.1431 853.233 69.9154 849.213 73.9353L594.454 328.695C592.39 330.692 590.745 333.081 589.614 335.721C588.483 338.361 587.888 341.2 587.865 344.073C587.842 346.945 588.39 349.793 589.479 352.451C590.567 355.109 592.174 357.524 594.205 359.555C596.236 361.586 598.651 363.192 601.309 364.281C603.967 365.369 606.815 365.918 609.687 365.895C612.559 365.872 615.398 365.277 618.038 364.146C620.678 363.015 623.067 361.369 625.065 359.306ZM199.807 356.008C168.386 367.555 138.911 385.941 113.685 411.167C20.6484 504.204 20.6484 655.056 113.685 748.083C206.722 841.111 357.565 841.12 450.602 748.083C475.745 722.94 494.094 693.575 505.647 662.27L405.852 762.065C401.793 766.125 396.287 768.407 390.545 768.408C387.702 768.408 384.887 767.849 382.26 766.761C379.634 765.674 377.247 764.08 375.236 762.07C373.226 760.06 371.631 757.673 370.542 755.047C369.454 752.421 368.894 749.606 368.893 746.763C368.893 743.92 369.452 741.105 370.54 738.478C371.627 735.851 373.222 733.464 375.232 731.454L461.797 644.908L431.241 614.352L515.243 530.284C514.566 527.071 513.822 523.869 513.011 520.68C506.21 522.299 498.808 523.197 495.287 519.676C491.244 515.608 488.975 510.106 488.975 504.37C488.975 498.635 491.244 493.133 495.287 489.065L406.519 577.833L375.908 547.222L450.908 472.222L389.695 410.991L323.408 477.278L292.787 446.667L321.176 418.306C324.769 414.713 321.253 415.721 315.388 417.402C307.511 419.659 295.398 423.13 290.574 418.306C286.526 414.238 284.254 408.734 284.254 402.995C284.254 397.257 286.526 391.753 290.574 387.685L323.111 355.148L311.109 343.146C299.31 341.709 287.424 341.153 275.558 341.479L212.408 404.63C210.41 406.693 208.021 408.339 205.381 409.47C202.741 410.601 199.902 411.196 197.03 411.219C194.157 411.242 191.309 410.693 188.651 409.605C185.993 408.517 183.578 406.91 181.547 404.879C179.516 402.848 177.91 400.433 176.821 397.775C175.733 395.117 175.184 392.269 175.207 389.397C175.231 386.524 175.825 383.685 176.956 381.045C178.088 378.405 179.733 376.017 181.796 374.019L199.807 356.008Z" fill="#6262B3"/>
<path fill-rule="evenodd" clip-rule="evenodd" d="M113.685 411.166C206.722 318.129 357.565 318.129 450.602 411.166C543.639 504.204 543.639 655.046 450.602 748.083C357.565 841.12 206.722 841.111 113.685 748.083C20.6482 655.055 20.6482 504.204 113.685 411.166Z" fill="#88AEFF"/>
<path fill-rule="evenodd" clip-rule="evenodd" d="M122.667 538.333C123.121 538.232 123.593 538.12 124.028 538.028C123.593 538.13 123.148 538.241 122.667 538.333ZM102.167 546.315C108.48 542.721 115.279 540.054 122.352 538.398C115.289 540.066 108.502 542.735 102.195 546.324L102.167 546.315ZM86.0095 558.704C90.0425 554.674 94.5113 551.106 99.3336 548.065C103.015 553.735 108.213 558.259 114.336 561.124C120.459 563.989 127.263 565.08 133.975 564.272C140.687 563.465 147.038 560.793 152.308 556.558C157.578 552.323 161.555 546.696 163.787 540.315C179.486 545.538 193.053 555.739 202.429 569.37C211.806 583.001 216.48 599.319 215.744 615.847C215.008 632.375 208.901 648.213 198.35 660.956C187.798 673.699 173.378 682.654 157.278 686.46C141.177 690.267 124.274 688.718 109.133 682.049C93.9915 675.38 81.4388 663.955 73.3787 649.506C65.3187 635.058 62.1911 618.374 64.4706 601.987C66.75 585.6 74.3121 570.404 86.0095 558.704Z" fill="#B7CAFF"/>
<path fill-rule="evenodd" clip-rule="evenodd" d="M159.26 375.463C305.908 400.064 519.75 653.296 348.88 808.342C387.334 797.163 422.329 776.425 450.602 748.064C543.648 655.027 543.648 504.185 450.602 411.148C371.574 332.12 250.852 320.24 159.26 375.463Z" fill="#7599E7"/>
<path fill-rule="evenodd" clip-rule="evenodd" d="M299.991 389.13C289.028 392.834 280.176 400.519 276.01 411.306L276.001 411.362C271.602 422.769 273.204 435.269 279.362 446.38C285.953 457.873 296.341 466.713 308.741 471.38C321.343 476.25 334.325 476.473 345.121 472.769C356.084 469.065 364.945 461.343 369.102 450.547C373.51 439.158 371.899 426.639 365.741 415.528C359.153 404.032 348.764 395.192 336.362 390.528C324.195 385.824 311.639 385.519 301.047 388.834C300.69 388.913 300.337 389.012 299.991 389.13ZM297.788 423.519C297.926 423.232 298.047 422.917 298.158 422.593C300.445 417.26 305.075 413.334 310.991 411.389C311.231 411.31 311.466 411.217 311.695 411.111C318.261 409.191 325.28 409.517 331.639 412.037C337.605 414.191 342.634 418.356 345.862 423.815C347.173 426.056 347.969 428.56 348.192 431.147C348.414 433.733 348.058 436.337 347.149 438.769C344.991 444.352 340.167 448.417 334.112 450.463C327.36 452.645 320.06 452.41 313.463 449.797C307.499 447.637 302.471 443.47 299.241 438.01C297.978 435.838 297.195 433.421 296.945 430.922C296.694 428.422 296.981 425.898 297.788 423.519Z" fill="#6262B3"/>
<path fill-rule="evenodd" clip-rule="evenodd" d="M111.028 468.694C98.5283 471.814 89.1949 481.231 84.1764 493.944V493.963C79.7042 505.305 78.7042 519.453 82.2598 533.713C85.8524 547.981 93.2598 560 102.519 567.879C112.917 576.768 125.63 580.694 138.195 577.564C150.686 574.444 160.028 565.027 165.047 552.314C169.519 540.972 170.51 526.824 166.963 512.555C163.371 498.277 155.963 486.268 146.704 478.379C136.306 469.5 123.593 465.574 111.028 468.694ZM116.556 493.472C116.994 493.391 117.426 493.286 117.852 493.157V493.139C121.741 492.453 126.149 494.213 130.204 497.685C135.63 502.352 140.158 509.74 142.399 518.75C144.639 527.759 144.139 536.361 141.538 542.981C139.575 547.944 136.482 551.565 132.667 552.805C132.241 552.898 131.806 553 131.371 553.129C127.491 553.815 123.084 552.046 119.019 548.583C113.565 543.916 109.093 536.555 106.843 527.537C104.593 518.518 105.084 509.926 107.704 503.305C109.658 498.342 112.751 494.713 116.556 493.472Z" fill="#6262B3"/>
<path d="M454.149 596.148C450.852 596.799 447.432 596.114 444.64 594.243C441.849 592.372 439.915 589.468 439.264 586.172C438.614 582.875 439.299 579.454 441.17 576.663C443.041 573.872 445.944 571.938 449.241 571.287C450.946 570.936 452.526 570.133 453.815 568.964C455.105 567.795 456.058 566.301 456.575 564.639C457.082 562.975 457.132 561.205 456.721 559.515C456.309 557.824 455.451 556.276 454.235 555.031C453.02 553.786 451.492 552.891 449.812 552.439C448.132 551.988 446.361 551.996 444.686 552.463C441.486 553.286 438.091 552.826 435.225 551.183C432.359 549.539 430.248 546.841 429.341 543.664C428.434 540.487 428.804 537.082 430.372 534.173C431.939 531.265 434.58 529.083 437.732 528.093C442.277 526.785 447.04 526.41 451.733 526.992C456.427 527.574 460.954 529.1 465.042 531.478C469.131 533.857 472.695 537.038 475.52 540.831C478.346 544.623 480.374 548.949 481.483 553.547C482.593 558.144 482.759 562.919 481.974 567.583C481.188 572.247 479.466 576.703 476.912 580.684C474.358 584.665 471.024 588.087 467.112 590.745C463.2 593.402 458.79 595.241 454.149 596.148Z" fill="#6262B3"/>
<path fill-rule="evenodd" clip-rule="evenodd" d="M297.5 764.389C293.402 762.6 289.517 760.358 285.917 757.704C277.806 751.676 272.269 744.046 269.695 735.843C267.034 727.526 267.545 718.518 271.13 710.556C272.378 707.743 273.93 705.076 275.76 702.602C283.834 691.741 296.852 684.435 311.38 681.398C326.319 678.241 341.87 679.794 355.889 685.843C359.984 687.639 363.869 689.881 367.473 692.528C375.584 698.565 381.112 706.195 383.695 714.398C386.351 722.71 385.84 731.71 382.26 739.667C381.012 742.479 379.46 745.147 377.63 747.62C369.556 758.472 356.538 765.778 342.01 768.824C327.072 771.985 311.521 770.435 297.5 764.389ZM303.584 743.694C305.597 745.194 307.771 746.464 310.065 747.482C318.047 750.909 326.895 751.776 335.389 749.963C343.593 748.241 350.954 744.102 355.528 737.926C356.585 736.527 357.482 735.014 358.204 733.417C360.257 728.884 360.56 723.752 359.056 719.009C357.361 713.98 354.121 709.615 349.797 706.537C347.784 705.038 345.61 703.767 343.315 702.75C335.331 699.322 326.48 698.455 317.982 700.269C309.788 701.982 302.426 706.12 297.843 712.306C296.793 713.707 295.899 715.219 295.176 716.815C293.124 721.348 292.821 726.479 294.325 731.222C296.018 736.252 299.259 740.618 303.584 743.694Z" fill="#6262B3"/>
<path d="M112.843 641.269C114.273 640.37 115.869 639.766 117.536 639.491C119.203 639.217 120.907 639.278 122.55 639.671C124.193 640.064 125.741 640.781 127.104 641.779C128.466 642.778 129.615 644.039 130.484 645.488C131.353 646.937 131.924 648.544 132.164 650.216C132.403 651.889 132.307 653.592 131.88 655.226C131.453 656.861 130.704 658.393 129.677 659.735C128.65 661.076 127.365 662.199 125.899 663.037C124.036 664.174 122.549 665.834 121.623 667.811C120.698 669.787 120.375 671.992 120.695 674.151C121.015 676.31 121.964 678.327 123.422 679.95C124.881 681.573 126.786 682.731 128.899 683.278C130.299 683.636 131.757 683.713 133.188 683.503C134.618 683.293 135.993 682.801 137.232 682.056C140.124 680.436 143.534 680.01 146.735 680.869C149.936 681.728 152.675 683.804 154.367 686.655C156.058 689.505 156.569 692.904 155.789 696.125C155.01 699.347 153.002 702.136 150.195 703.898C141.89 708.854 131.956 710.307 122.579 707.939C113.202 705.57 105.151 699.574 100.195 691.269C95.2393 682.964 93.7859 673.03 96.1544 663.653C98.5229 654.276 104.519 646.224 112.825 641.269H112.843Z" fill="#6262B3"/>
<path d="M436.722 53.8705C433.85 56.7349 432.175 60.5848 432.037 64.6391C431.972 66.4212 431.218 68.1085 429.934 69.3462C428.65 70.5839 426.936 71.2755 425.153 71.2755C423.37 71.2755 421.656 70.5839 420.372 69.3462C419.088 68.1085 418.334 66.4212 418.269 64.6391C418.12 60.5856 416.443 56.7387 413.574 53.8705C410.706 51.0023 406.859 49.3253 402.806 49.1761C400.981 49.1761 399.231 48.4513 397.941 47.1611C396.651 45.8709 395.926 44.1211 395.926 42.2965C395.926 40.4719 396.651 38.722 397.941 37.4318C399.231 36.1417 400.981 35.4168 402.806 35.4168C406.859 35.2676 410.706 33.5906 413.574 30.7224C416.443 27.8543 418.12 24.0073 418.269 19.9539C418.334 18.1718 419.088 16.4844 420.372 15.2467C421.656 14.0091 423.37 13.3175 425.153 13.3175C426.936 13.3175 428.65 14.0091 429.934 15.2467C431.218 16.4844 431.972 18.1718 432.037 19.9539C432.182 24.0087 433.858 27.8582 436.727 30.7272C439.596 33.5963 443.445 35.2719 447.5 35.4168C449.325 35.4168 451.075 36.1417 452.365 37.4318C453.655 38.722 454.38 40.4719 454.38 42.2965C454.38 44.1211 453.655 45.8709 452.365 47.1611C451.075 48.4513 449.325 49.1761 447.5 49.1761C443.442 49.3166 439.589 50.9948 436.722 53.8705Z" fill="#6262B3"/>
<path d="M578.102 657.426C576.71 658.808 575.899 660.669 575.834 662.63C575.789 663.48 575.419 664.28 574.802 664.866C574.184 665.452 573.365 665.778 572.514 665.778C571.663 665.778 570.844 665.452 570.227 664.866C569.609 664.28 569.24 663.48 569.195 662.63C569.124 660.67 568.313 658.811 566.927 657.425C565.541 656.039 563.682 655.229 561.722 655.157C560.841 655.157 559.995 654.807 559.372 654.184C558.749 653.56 558.398 652.715 558.398 651.833C558.398 650.952 558.749 650.106 559.372 649.483C559.995 648.859 560.841 648.509 561.722 648.509C563.681 648.44 565.54 647.632 566.927 646.247C568.313 644.863 569.123 643.004 569.195 641.046C569.24 640.196 569.609 639.396 570.227 638.81C570.844 638.224 571.663 637.898 572.514 637.898C573.365 637.898 574.184 638.224 574.802 638.81C575.419 639.396 575.789 640.196 575.834 641.046C575.905 643.004 576.715 644.863 578.102 646.247C579.488 647.632 581.348 648.44 583.306 648.509C584.187 648.509 585.033 648.859 585.656 649.483C586.28 650.106 586.63 650.952 586.63 651.833C586.63 652.715 586.28 653.56 585.656 654.184C585.033 654.807 584.187 655.157 583.306 655.157C581.347 655.227 579.487 656.038 578.102 657.426Z" fill="#6262B3"/>
<path d="M213.815 259.84C211.797 258.494 209.426 257.776 207 257.778C203.752 257.78 200.638 259.072 198.341 261.368C196.044 263.665 194.753 266.78 194.75 270.028C194.748 272.453 195.466 274.825 196.812 276.842C198.159 278.86 200.073 280.432 202.314 281.361C204.554 282.29 207.02 282.534 209.399 282.061C211.778 281.588 213.963 280.421 215.678 278.706C217.393 276.991 218.561 274.805 219.034 272.426C219.506 270.047 219.263 267.582 218.334 265.341C217.405 263.101 215.832 261.186 213.815 259.84Z" fill="#6262B3"/>
<path d="M759.704 362.028C762.129 362.026 764.5 362.743 766.517 364.089C768.535 365.435 770.107 367.349 771.037 369.589C771.966 371.829 772.21 374.294 771.738 376.673C771.266 379.052 770.099 381.237 768.385 382.952C766.671 384.668 764.487 385.836 762.108 386.31C759.73 386.784 757.265 386.541 755.024 385.614C752.783 384.686 750.868 383.115 749.521 381.099C748.173 379.083 747.454 376.712 747.454 374.287C747.454 371.037 748.744 367.92 751.041 365.622C753.338 363.323 756.454 362.03 759.704 362.028Z" fill="#6262B3"/>
<path d="M687.565 39.0646C685.551 37.7185 683.182 37.0001 680.76 37.0001C677.511 37.0001 674.395 38.2907 672.097 40.588C669.8 42.8853 668.51 46.0012 668.51 49.25C668.51 51.6729 669.228 54.0413 670.574 56.0558C671.92 58.0703 673.833 59.6404 676.072 60.5676C678.31 61.4948 680.773 61.7374 683.149 61.2647C685.526 60.792 687.708 59.6253 689.422 57.9121C691.135 56.1989 692.301 54.0162 692.774 51.6399C693.247 49.2636 693.004 46.8006 692.077 44.5622C691.15 42.3238 689.58 40.4106 687.565 39.0646Z" fill="#6262B3"/>
</svg>
