<svg width="649" height="800" viewBox="0 0 649 800" fill="none" xmlns="http://www.w3.org/2000/svg">
<path d="M520.843 0.611208C524.762 0.611208 528.594 1.77355 531.853 3.95124C535.111 6.12893 537.651 9.22414 539.15 12.8454C540.65 16.4666 541.042 20.4512 540.276 24.2951C539.511 28.1391 537.623 31.6697 534.851 34.4405C532.079 37.2113 528.547 39.0977 524.703 39.8612C520.859 40.6247 516.874 40.231 513.254 38.7299C509.633 37.2287 506.539 34.6876 504.363 31.4278C502.187 28.1681 501.026 24.3362 501.028 20.4168C501.028 17.8151 501.541 15.2389 502.537 12.8354C503.533 10.4318 504.992 8.24808 506.832 6.40884C508.673 4.56961 510.857 3.11094 513.261 2.11616C515.665 1.12138 518.241 0.609993 520.843 0.611208Z" fill="#323286"/>
<path d="M275.926 265.019C276.062 261.078 277.698 257.338 280.5 254.565C283.277 251.768 287.016 250.136 290.954 250C292.725 250 294.423 249.297 295.675 248.045C296.927 246.793 297.63 245.095 297.63 243.324C297.63 241.554 296.927 239.856 295.675 238.604C294.423 237.352 292.725 236.648 290.954 236.648C287.02 236.504 283.285 234.876 280.501 232.092C277.717 229.308 276.09 225.574 275.945 221.639C275.945 219.868 275.242 218.17 273.99 216.918C272.738 215.666 271.039 214.963 269.269 214.963C267.498 214.963 265.8 215.666 264.548 216.918C263.296 218.17 262.593 219.868 262.593 221.639C262.449 225.572 260.822 229.305 258.04 232.089C255.258 234.873 251.526 236.501 247.593 236.648C245.822 236.648 244.124 237.352 242.872 238.604C241.62 239.856 240.917 241.554 240.917 243.324C240.917 245.095 241.62 246.793 242.872 248.045C244.124 249.297 245.822 250 247.593 250C251.523 250.156 255.249 251.789 258.027 254.574C260.804 257.358 262.428 261.088 262.574 265.019C262.574 266.789 263.278 268.487 264.53 269.739C265.782 270.991 267.48 271.695 269.25 271.695C271.021 271.695 272.719 270.991 273.971 269.739C275.223 268.487 275.926 266.789 275.926 265.019Z" fill="#323286"/>
<path d="M543.519 258.973C547.438 258.973 551.269 260.135 554.527 262.312C557.786 264.489 560.326 267.584 561.825 271.205C563.325 274.825 563.718 278.809 562.953 282.653C562.188 286.497 560.301 290.027 557.53 292.799C554.759 295.57 551.228 297.457 547.385 298.221C543.541 298.986 539.557 298.594 535.936 297.094C532.315 295.594 529.221 293.054 527.044 289.796C524.866 286.537 523.704 282.706 523.704 278.787C523.704 273.532 525.792 268.492 529.508 264.776C533.224 261.06 538.264 258.973 543.519 258.973Z" fill="#323286"/>
<path d="M45.6261 294.659C43.6101 293.312 41.2398 292.593 38.8152 292.593C35.5638 292.593 32.4456 293.884 30.1466 296.183C27.8475 298.482 26.5559 301.6 26.5559 304.852C26.5559 307.276 27.2749 309.647 28.622 311.663C29.9691 313.679 31.8837 315.25 34.1238 316.178C36.3639 317.106 38.8288 317.349 41.2068 316.875C43.5849 316.402 45.7693 315.235 47.4838 313.52C49.1983 311.806 50.3659 309.622 50.8389 307.243C51.3119 304.865 51.0691 302.4 50.1413 300.16C49.2134 297.92 47.6421 296.006 45.6261 294.659Z" fill="#323286"/>
<path d="M468.213 734.259C465.417 737.036 463.784 740.775 463.649 744.713C463.649 746.484 462.945 748.182 461.693 749.434C460.441 750.686 458.743 751.389 456.973 751.389C455.202 751.389 453.504 750.686 452.252 749.434C451 748.182 450.297 746.484 450.297 744.713C450.152 740.78 448.526 737.047 445.744 734.263C442.962 731.48 439.23 729.851 435.297 729.704C433.568 729.64 431.931 728.907 430.731 727.662C429.531 726.416 428.86 724.753 428.86 723.023C428.86 721.293 429.531 719.631 430.731 718.385C431.931 717.139 433.568 716.407 435.297 716.343C439.23 716.2 442.963 714.574 445.745 711.791C448.528 709.009 450.154 705.276 450.297 701.343C450.297 699.572 451 697.874 452.252 696.622C453.504 695.37 455.202 694.667 456.973 694.667C458.743 694.667 460.441 695.37 461.693 696.622C462.945 697.874 463.649 699.572 463.649 701.343C463.798 705.282 465.435 709.018 468.228 711.799C471.021 714.58 474.764 716.201 478.704 716.333C480.433 716.398 482.069 717.13 483.27 718.376C484.47 719.622 485.141 721.284 485.141 723.014C485.141 724.744 484.47 726.407 483.27 727.652C482.069 728.898 480.433 729.63 478.704 729.695C474.752 729.818 470.998 731.452 468.213 734.259Z" fill="#323286"/>
<path d="M31.3053 763.108C28.0467 760.93 24.2157 759.768 20.2967 759.768C15.0415 759.768 10.0016 761.856 6.28556 765.572C2.56956 769.288 0.481934 774.328 0.481934 779.583C0.481934 783.502 1.64406 787.333 3.82133 790.592C5.99861 793.85 9.09326 796.39 12.7139 797.89C16.3346 799.389 20.3187 799.782 24.1624 799.017C28.0061 798.253 31.5368 796.365 34.3079 793.594C37.0791 790.823 38.9663 787.292 39.7308 783.449C40.4954 779.605 40.103 775.621 38.6032 772C37.1035 768.38 34.5638 765.285 31.3053 763.108Z" fill="#323286"/>
<path d="M422.497 455.27C420.48 453.923 418.11 453.204 415.686 453.204C412.434 453.204 409.316 454.495 407.017 456.794C404.718 459.093 403.426 462.211 403.426 465.463C403.426 467.888 404.145 470.258 405.492 472.274C406.839 474.29 408.754 475.861 410.994 476.789C413.234 477.717 415.699 477.96 418.077 477.487C420.455 477.014 422.64 475.846 424.354 474.131C426.069 472.417 427.236 470.233 427.709 467.855C428.182 465.476 427.94 463.012 427.012 460.771C426.084 458.531 424.513 456.617 422.497 455.27Z" fill="#323286"/>
<path fill-rule="evenodd" clip-rule="evenodd" d="M254.333 741.781L254.494 741.993L609.059 472.947L600.991 462.315L606.302 450.069L357.1 342L241.003 704.532C240.974 704.538 240.944 704.544 240.915 704.55C237.486 705.245 234.468 707.258 232.508 710.156C230.548 713.054 229.804 716.605 230.436 720.046L233.269 734.009C234.027 737.424 236.096 740.405 239.03 742.311C241.963 744.216 245.528 744.895 248.956 744.199C250.925 743.8 252.758 742.967 254.333 741.781ZM373.53 378.222L574.74 465.479L272.028 695.179L373.53 378.222Z" fill="#323286"/>
<path d="M243.178 668.825C245.138 665.927 245.882 662.376 245.25 658.935L239.584 631.027C239.263 629.282 238.599 627.619 237.628 626.133C236.657 624.648 235.4 623.371 233.931 622.378C232.461 621.384 230.808 620.693 229.068 620.345C227.329 619.997 225.537 620 223.798 620.352C222.059 620.705 220.408 621.4 218.941 622.398C217.474 623.396 216.221 624.677 215.254 626.164C214.288 627.652 213.628 629.318 213.312 631.064C212.997 632.81 213.032 634.601 213.417 636.333L219.084 664.24C219.842 667.655 221.911 670.636 224.845 672.542C227.778 674.448 231.343 675.126 234.771 674.431C238.2 673.736 241.219 671.723 243.178 668.825Z" fill="#323286"/>
<path d="M228.232 575.222C228.709 576.983 228.821 578.823 228.56 580.629C228.298 582.434 227.67 584.167 226.712 585.721C225.755 587.274 224.49 588.614 222.994 589.66C221.499 590.705 219.805 591.433 218.017 591.798C216.23 592.163 214.386 592.158 212.601 591.783C210.815 591.408 209.125 590.671 207.636 589.617C206.146 588.563 204.888 587.216 203.94 585.657C202.991 584.099 202.372 582.362 202.121 580.555L196.463 552.648L222.63 547.342L228.232 575.222Z" fill="#323286"/>
<path d="M196.303 547.351C195.988 549.097 196.023 550.888 196.408 552.62L222.575 547.314C222.254 545.569 221.589 543.906 220.619 542.42C219.648 540.935 218.391 539.659 216.922 538.665C215.452 537.671 213.799 536.98 212.059 536.632C210.319 536.284 208.528 536.287 206.789 536.639C205.05 536.992 203.399 537.687 201.932 538.685C200.465 539.683 199.212 540.964 198.245 542.451C197.279 543.939 196.618 545.605 196.303 547.351Z" fill="#323286"/>
<path d="M211.223 491.509C211.777 493.292 211.951 495.172 211.734 497.026C211.516 498.881 210.912 500.669 209.961 502.276C209.009 503.883 207.731 505.272 206.209 506.354C204.687 507.436 202.955 508.187 201.125 508.558C199.295 508.929 197.407 508.912 195.584 508.508C193.761 508.104 192.043 507.322 190.541 506.213C189.039 505.103 187.786 503.691 186.863 502.068C185.941 500.444 185.369 498.645 185.186 496.787L179.529 468.89L179.399 468.916C178.75 465.469 179.483 461.904 181.441 458.994C183.4 456.083 186.424 454.06 189.862 453.361C193.3 452.663 196.875 453.346 199.813 455.262C202.751 457.178 204.817 460.173 205.565 463.6L205.695 463.574L211.223 491.509Z" fill="#323286"/>
<path d="M192.171 417.728C194.129 414.817 194.862 411.253 194.213 407.805L188.667 379.879C188.347 378.134 187.682 376.47 186.711 374.985C185.741 373.5 184.484 372.223 183.014 371.229C181.544 370.236 179.891 369.545 178.152 369.197C176.412 368.849 174.62 368.852 172.881 369.204C171.143 369.557 169.492 370.252 168.025 371.25C166.558 372.248 165.304 373.528 164.338 375.016C163.371 376.504 162.711 378.17 162.396 379.916C162.08 381.661 162.116 383.453 162.5 385.185L168.047 413.12C168.794 416.547 170.86 419.543 173.799 421.459C176.737 423.375 180.312 424.058 183.75 423.36C187.188 422.662 190.212 420.638 192.171 417.728Z" fill="#323286"/>
<path d="M177.315 324.074C177.947 327.514 177.203 331.066 175.243 333.964C173.283 336.862 170.265 338.875 166.836 339.57C163.407 340.265 159.843 339.587 156.909 337.681C153.976 335.775 151.907 332.794 151.149 329.379L145.482 301.472C144.85 298.031 145.594 294.48 147.554 291.582C149.514 288.684 152.533 286.671 155.961 285.976C159.39 285.28 162.954 285.959 165.888 287.864C168.821 289.77 170.89 292.751 171.649 296.166L177.315 324.074Z" fill="#323286"/>
<path d="M160.402 245.63C160.717 243.884 160.681 242.093 160.297 240.361L154.639 212.463C154.319 210.717 153.654 209.054 152.684 207.569C151.713 206.083 150.456 204.807 148.986 203.813C147.517 202.819 145.864 202.128 144.124 201.78C142.384 201.432 140.592 201.435 138.854 201.787C137.115 202.14 135.464 202.836 133.997 203.834C132.53 204.831 131.277 206.112 130.31 207.6C129.344 209.087 128.683 210.753 128.368 212.499C128.052 214.245 128.088 216.036 128.473 217.768L134.13 245.666C134.45 247.411 135.115 249.075 136.086 250.56C137.056 252.045 138.313 253.322 139.783 254.316C141.253 255.31 142.906 256.001 144.646 256.349C146.385 256.696 148.177 256.694 149.916 256.341C151.655 255.989 153.306 255.293 154.773 254.295C156.24 253.297 157.493 252.017 158.459 250.529C159.426 249.041 160.086 247.376 160.402 245.63Z" fill="#323286"/>
<path d="M143.287 156.657C143.919 160.098 143.175 163.649 141.215 166.547C139.256 169.445 136.237 171.458 132.808 172.153C129.38 172.848 125.815 172.17 122.882 170.264C119.948 168.359 117.879 165.378 117.121 161.963L114.297 148.009C113.665 144.568 114.409 141.017 116.369 138.119C118.329 135.221 121.347 133.208 124.776 132.513C128.205 131.818 131.769 132.496 134.703 134.401C137.636 136.307 139.705 139.288 140.463 142.703L143.287 156.657Z" fill="#323286"/>
<path d="M154.134 105.427C146.245 100.156 136.97 97.3425 127.482 97.3425C121.182 97.3413 114.943 98.5813 109.122 100.992C103.301 103.402 98.0124 106.936 93.5576 111.391C89.1027 115.845 85.5691 121.134 83.1587 126.955C80.7483 132.776 79.5083 139.015 79.5095 145.315C79.5095 154.803 82.323 164.078 87.5943 171.967C92.8656 179.856 100.358 186.004 109.124 189.635C117.889 193.266 127.535 194.216 136.841 192.365C146.146 190.514 154.694 185.945 161.403 179.236C168.112 172.527 172.681 163.979 174.532 154.674C176.383 145.368 175.433 135.722 171.802 126.957C168.171 118.191 162.023 110.699 154.134 105.427Z" fill="#F39919"/>
<path d="M391.893 320.242C384.004 314.971 374.729 312.157 365.241 312.157C352.518 312.157 340.316 317.212 331.319 326.208C322.323 335.205 317.269 347.407 317.269 360.13C317.269 369.618 320.082 378.892 325.354 386.782C330.625 394.671 338.117 400.819 346.883 404.45C355.649 408.081 365.294 409.031 374.6 407.18C383.906 405.329 392.453 400.76 399.163 394.051C405.872 387.342 410.44 378.794 412.291 369.488C414.142 360.183 413.192 350.537 409.562 341.771C405.931 333.006 399.782 325.513 391.893 320.242Z" fill="#F39919"/>
<path d="M627.581 422.432C619.69 417.162 610.415 414.35 600.926 414.352C588.205 414.354 576.005 419.41 567.011 428.406C558.016 437.402 552.963 449.603 552.963 462.324C552.963 471.813 555.777 481.088 561.049 488.977C566.32 496.866 573.813 503.015 582.579 506.646C591.346 510.276 600.992 511.226 610.298 509.374C619.604 507.522 628.152 502.952 634.86 496.242C641.569 489.532 646.137 480.984 647.987 471.677C649.837 462.371 648.886 452.725 645.253 443.96C641.621 435.194 635.471 427.702 627.581 422.432Z" fill="#F39919"/>
<path d="M246.352 683.398C255.841 683.397 265.117 686.209 273.008 691.479C280.898 696.75 287.048 704.242 290.68 713.008C294.312 721.774 295.263 731.421 293.412 740.727C291.562 750.034 286.992 758.583 280.283 765.292C273.573 772.002 265.025 776.571 255.718 778.422C246.411 780.272 236.765 779.321 227.999 775.689C219.233 772.057 211.741 765.907 206.47 758.017C201.2 750.126 198.387 740.85 198.389 731.361C198.392 718.642 203.446 706.443 212.44 697.449C221.434 688.455 233.632 683.401 246.352 683.398Z" fill="#F39919"/>
</svg>
