<svg width="661" height="876" viewBox="0 0 661 876" fill="none" xmlns="http://www.w3.org/2000/svg">
<path d="M515.418 4.01631C512.159 1.83862 508.328 0.67627 504.408 0.67627C499.155 0.67627 494.116 2.76262 490.4 6.47662C486.685 10.1906 484.596 15.2282 484.593 20.4818C484.592 24.4012 485.752 28.2331 487.928 31.4929C490.105 34.7526 493.199 37.2938 496.819 38.7949C500.44 40.2961 504.424 40.6898 508.268 39.9263C512.113 39.1628 515.644 37.2763 518.416 34.5055C521.188 31.7348 523.076 28.2041 523.842 24.3602C524.607 20.5162 524.215 16.5316 522.716 12.9104C521.216 9.2892 518.676 6.194 515.418 4.01631Z" fill="#F39B22"/>
<path d="M237.482 850.824C239.905 850.824 242.274 851.542 244.288 852.888C246.303 854.234 247.873 856.147 248.8 858.386C249.727 860.624 249.97 863.087 249.497 865.464C249.024 867.84 247.858 870.023 246.144 871.736C244.431 873.449 242.249 874.616 239.872 875.088C237.496 875.561 235.033 875.318 232.795 874.391C230.556 873.464 228.643 871.894 227.297 869.879C225.951 867.865 225.232 865.497 225.232 863.074C225.232 859.825 226.523 856.709 228.82 854.412C231.118 852.114 234.234 850.824 237.482 850.824Z" fill="#F39B22"/>
<path d="M199.908 74.9719C202.333 74.9701 204.705 75.6875 206.722 77.0334C208.739 78.3794 210.312 80.2934 211.241 82.5333C212.17 84.7732 212.414 87.2384 211.942 89.6171C211.47 91.9958 210.304 94.1811 208.589 95.8965C206.875 97.6119 204.691 98.7804 202.313 99.2542C199.934 99.728 197.469 99.4857 195.228 98.5581C192.988 97.6305 191.073 96.0592 189.725 94.043C188.378 92.0268 187.658 89.6562 187.658 87.2311C187.657 85.6217 187.973 84.0277 188.588 82.5404C189.203 81.0531 190.105 79.7016 191.243 78.5631C192.381 77.4246 193.731 76.5214 195.218 75.9053C196.705 75.289 198.299 74.9719 199.908 74.9719Z" fill="#F39B22"/>
<path d="M20.5472 488.703C24.4662 488.703 28.2972 489.866 31.5558 492.043C34.8143 494.22 37.354 497.315 38.8537 500.935C40.3535 504.556 40.7459 508.54 39.9813 512.384C39.2168 516.228 37.3296 519.758 34.5584 522.529C31.7873 525.301 28.2566 527.188 24.4129 527.952C20.5692 528.717 16.5851 528.324 12.9644 526.825C9.34375 525.325 6.2491 522.785 4.07182 519.527C1.89455 516.268 0.732422 512.437 0.732422 508.518C0.732422 503.263 2.82005 498.223 6.53605 494.507C10.252 490.791 15.292 488.703 20.5472 488.703Z" fill="#F39B22"/>
<path d="M526.918 346.333C524.126 349.111 522.5 352.85 522.371 356.787C522.307 358.515 521.575 360.152 520.329 361.352C519.083 362.552 517.421 363.223 515.691 363.223C513.961 363.223 512.298 362.552 511.052 361.352C509.807 360.152 509.075 358.515 509.01 356.787C508.888 352.832 507.264 349.071 504.47 346.27C501.675 343.468 497.919 341.836 493.964 341.703C492.193 341.703 490.495 341 489.243 339.748C487.991 338.496 487.288 336.798 487.288 335.027C487.288 333.257 487.991 331.559 489.243 330.307C490.495 329.055 492.193 328.352 493.964 328.352C497.9 328.211 501.637 326.585 504.421 323.8C507.206 321.015 508.833 317.278 508.973 313.342C509.038 311.613 509.77 309.977 511.015 308.777C512.261 307.576 513.924 306.906 515.654 306.906C517.384 306.906 519.046 307.576 520.292 308.777C521.538 309.977 522.27 311.613 522.334 313.342C522.474 317.277 524.1 321.012 526.883 323.797C529.666 326.582 533.4 328.209 537.334 328.352C539.105 328.352 540.803 329.055 542.055 330.307C543.307 331.559 544.01 333.257 544.01 335.027C544.01 336.798 543.307 338.496 542.055 339.748C540.803 341 539.105 341.703 537.334 341.703C533.399 341.864 529.674 343.52 526.918 346.333Z" fill="#F39B22"/>
<path d="M176.816 816C172.837 819.959 170.518 825.287 170.334 830.898C170.257 833.372 169.22 835.719 167.442 837.442C165.665 839.165 163.287 840.129 160.811 840.129C158.336 840.129 155.957 839.165 154.18 837.442C152.402 835.719 151.365 833.372 151.288 830.898C151.084 825.288 148.763 819.963 144.794 815.994C140.824 812.024 135.5 809.704 129.89 809.5C127.365 809.5 124.944 808.497 123.159 806.712C121.374 804.927 120.371 802.506 120.371 799.981C120.371 797.457 121.374 795.036 123.159 793.251C124.944 791.466 127.365 790.463 129.89 790.463C135.501 790.258 140.827 787.937 144.797 783.965C148.767 779.994 151.086 774.667 151.288 769.055C151.365 766.581 152.402 764.234 154.18 762.511C155.957 760.788 158.336 759.824 160.811 759.824C163.287 759.824 165.665 760.788 167.442 762.511C169.22 764.234 170.257 766.581 170.334 769.055C170.536 774.667 172.855 779.994 176.825 783.965C180.795 787.937 186.121 790.258 191.732 790.463C194.257 790.463 196.678 791.466 198.463 793.251C200.248 795.036 201.251 797.457 201.251 799.981C201.251 802.506 200.248 804.927 198.463 806.712C196.678 808.497 194.257 809.5 191.732 809.5C186.112 809.681 180.775 812.007 176.816 816Z" fill="#F39B22"/>
<path d="M448.112 498.352C450.537 498.35 452.909 499.067 454.926 500.414C456.944 501.76 458.517 503.675 459.446 505.915C460.375 508.155 460.618 510.621 460.145 513C459.673 515.379 458.505 517.564 456.79 519.279C455.075 520.994 452.89 522.162 450.511 522.635C448.132 523.108 445.666 522.864 443.426 521.935C441.185 521.006 439.271 519.433 437.924 517.416C436.578 515.398 435.86 513.027 435.862 510.601C435.862 507.356 437.15 504.243 439.443 501.946C441.737 499.649 444.848 498.356 448.094 498.352H448.112Z" fill="#F39B22"/>
<path d="M535.63 805.333C361.955 863.343 173.51 777.333 103.455 608.194C34.1119 440.778 105.01 249.018 265.195 165.935C302.83 146.416 343.726 133.966 385.853 129.204C403.017 127.332 420.222 132.346 433.694 143.145C447.167 153.944 455.805 169.645 457.714 186.806C460.417 211.389 449.714 232.741 430.584 247.194C391.529 276.685 362.538 320.963 351.029 370.046C339.094 420.423 345.493 473.404 369.078 519.491C392.663 565.579 431.891 601.759 479.732 621.546C506.17 632.461 534.501 638.052 563.103 638C564.262 638 565.275 638.001 566.173 638.003C573.014 638.013 573.251 638.013 581.714 637.268C585.242 636.963 587.399 636.759 588.269 636.667C633.816 631.565 670.575 674.463 658.112 718.963C655.843 727 652.048 734.526 646.936 741.13C637.806 753 620.436 765.074 601.417 775.611C577.936 788.574 550.167 800.528 535.677 805.38L535.63 805.333Z" fill="#F39B22"/>
<path fill-rule="evenodd" clip-rule="evenodd" d="M524.519 772.259C482.912 786.105 438.86 791.06 395.216 786.803C351.572 782.546 309.309 769.172 271.161 747.547C233.013 725.921 199.831 696.527 173.763 661.266C147.695 626.004 129.321 585.662 119.832 542.85C110.342 500.039 109.948 455.711 118.675 412.737C127.401 369.763 145.054 329.101 170.491 293.382C195.928 257.662 228.582 227.682 266.339 205.382C304.096 183.082 346.115 168.958 389.677 163.926C396.03 163.222 402.442 164.556 407.988 167.734C413.533 170.913 417.925 175.771 420.529 181.609C423.133 187.446 423.814 193.96 422.474 200.21C421.134 206.46 417.843 212.122 413.075 216.379C411.491 217.796 409.704 219.055 408.019 220.361C366.388 252.69 335.9 297.22 320.817 347.726C305.735 398.232 306.812 452.188 323.898 502.052C340.984 551.916 373.225 595.194 416.113 625.835C459.001 656.477 510.393 672.951 563.103 672.953C568.834 672.953 573.686 672.833 577.723 672.602C582.26 672.342 587.066 671.916 592.093 671.342C597.97 670.693 603.909 671.786 609.169 674.486C614.43 677.185 618.78 681.372 621.679 686.525C624.579 691.678 625.898 697.57 625.475 703.468C625.051 709.365 622.903 715.008 619.297 719.694C605.075 738.203 546.991 764.713 524.519 772.259Z" fill="#FFF48C"/>
<path fill-rule="evenodd" clip-rule="evenodd" d="M279.297 612.167C154.639 507.176 150.769 337.074 255.297 212.074C235.658 225.917 207.362 248.944 191.408 266.815C145.462 318.35 117.834 383.624 112.818 452.484C107.803 521.345 125.682 589.932 163.676 647.581C201.669 705.231 257.647 748.71 322.904 771.257C388.162 793.805 459.041 794.157 524.519 772.259C546.964 764.759 603.399 740.213 617.621 721.741C530.862 731.796 410.167 722.463 279.269 612.213" fill="#FBCF00"/>
<path d="M143.315 526.2C143.036 528.373 143.187 530.58 143.76 532.694C163.952 606.868 211.973 670.396 277.825 710.055C279.7 711.255 281.796 712.066 283.99 712.442C286.184 712.818 288.431 712.751 290.599 712.244C292.766 711.738 294.81 710.802 296.61 709.493C298.41 708.183 299.93 706.526 301.079 704.62C302.228 702.714 302.984 700.596 303.301 698.393C303.619 696.19 303.492 693.946 302.928 691.793C302.364 689.639 301.375 687.621 300.018 685.856C298.661 684.092 296.965 682.617 295.029 681.518C236.51 646.317 193.852 589.869 175.964 523.963C175.39 521.848 174.406 519.867 173.067 518.133C171.729 516.399 170.061 514.946 168.161 513.856C166.26 512.766 164.163 512.061 161.99 511.782C159.817 511.502 157.611 511.653 155.496 512.227C153.382 512.8 151.401 513.784 149.667 515.123C147.932 516.462 146.479 518.129 145.389 520.03C144.299 521.93 143.595 524.027 143.315 526.2Z" fill="#F39B22"/>
<path d="M324.464 731.812C326.2 733.26 328.213 734.338 330.381 734.981L330.399 735.028C335.874 737.022 340.976 738.725 345.705 740.139C350.433 741.552 355.621 742.951 361.269 744.333C363.446 745.01 365.737 745.233 368.003 744.989C370.269 744.745 372.461 744.039 374.443 742.915C376.425 741.79 378.156 740.271 379.528 738.451C380.899 736.631 381.883 734.549 382.419 732.334C382.954 730.119 383.03 727.817 382.64 725.572C382.251 723.326 381.406 721.185 380.156 719.279C378.906 717.373 377.279 715.744 375.374 714.492C373.47 713.24 371.329 712.392 369.084 712C364.794 710.963 360.164 709.694 355.195 708.194C350.103 706.657 345.566 705.173 341.584 703.741C339.502 702.86 337.262 702.413 335.002 702.428C332.741 702.443 330.507 702.918 328.436 703.826C326.366 704.734 324.502 706.054 322.96 707.707C321.417 709.36 320.228 711.31 319.465 713.437C318.702 715.566 318.381 717.827 318.521 720.083C318.662 722.339 319.262 724.543 320.284 726.56C321.305 728.577 322.728 730.364 324.464 731.812Z" fill="#F39B22"/>
</svg>
