<svg version="1.2" xmlns="http://www.w3.org/2000/svg" viewBox="0 0 403 403" width="403" height="403">
	<style>
		.s0 { fill: #f4dcba } 
		.s1 { fill: #ffffff } 
		.s2 { fill: #3c88a7 } 
		.s3 { fill: #2d2b39 } 
		.s4 { fill: #60bfb2 } 
		.s5 { opacity: .2;mix-blend-mode: multiply;fill: #2d2b39 } 
		.s6 { fill: #e76441 } 
		.s7 { fill: #ff7550 } 
		.s8 { fill: #ffb533 } 
	</style>
	<g id="&lt;Group&gt;">
		<path id="&lt;Path&gt;" class="s0" d="m382.86 204.13c0 103.42-83.84 187.26-187.26 187.26-103.42 0-187.26-83.84-187.26-187.26 0-103.43 83.84-187.27 187.26-187.27 103.42 0 187.26 83.84 187.26 187.27z"/>
		<path id="&lt;Path&gt;" class="s1" d="m342.26 118.07c0 0 2.24 22.64-20.86 21.27 20.86 4.74 20.86 24.01 20.86 24.01 0 0 2.24-21.05 18.84-24.31-18.84 1.67-18.84-20.97-18.84-20.97z"/>
		<path id="&lt;Path&gt;" class="s1" d="m41.88 241.8c0 0 1.08 10.93-10.07 10.27 10.07 2.29 10.07 11.59 10.07 11.59 0 0 1.08-10.16 9.1-11.74-9.1 0.81-9.1-10.12-9.1-10.12z"/>
		<path id="&lt;Path&gt;" class="s2" d="m308.96 204.13c0 62.6-50.75 113.36-113.36 113.36-62.61 0-113.36-50.76-113.36-113.36 0-62.61 50.75-113.37 113.36-113.37 62.61 0 113.36 50.76 113.36 113.37z"/>
		<g id="&lt;Group&gt;">
			<path id="&lt;Path&gt;" class="s3" d="m306.32 176.52c-7.26 10.34-240.86 37.04-254.8 34.18-3.84-0.78-8.24-12.8-12.54-29.98-11.34-45.24-22.02-126.2-19.9-131.38 6.92-16.88 257.28-53.24 263.66-43.28 4.74 7.38 19.46 92.14 23.74 139.5 1.48 16.4 1.7 28.3-0.16 30.96z"/>
			<path id="&lt;Path&gt;" class="s4" d="m34.7 60.63c-2.69 5.95 10.13 130.2 22.58 132.45 12.46 2.25 228.07-25.62 234.66-34.27 6.59-8.66-15.12-128.26-20.74-136.47-5.63-8.21-230.15 24.21-236.5 38.29z"/>
			<path id="&lt;Compound Path&gt;" fill-rule="evenodd" class="s1" d="m107.48 154.81q-0.23 0-0.46-0.04c-2.74-0.42-26.81-4.56-29.48-18.04-0.91-4.59 0.73-7.19 2.27-8.57 3.83-3.44 10.79-2.57 14.84-1.66 1.05-2.39 3.02-5.71 6.44-7.8 3.25-1.98 7.05-2.45 11.3-1.39 2.73 0.68 4.75 2.38 5.83 4.9 3.9 9.13-6.09 27.5-8.13 31.08-0.54 0.95-1.54 1.52-2.61 1.52zm-19.74-23.1c-1.73 0-3.2 0.26-3.93 0.91q-0.81 0.75-0.38 2.95c1.42 7.15 15.42 11.44 22.47 12.9 4.21-7.93 8.67-19.54 6.8-23.9-0.34-0.79-0.85-1.21-1.77-1.44-2.65-0.66-4.84-0.44-6.69 0.68-3.56 2.15-4.76 6.95-4.77 6.99-0.2 0.81-0.72 1.5-1.44 1.91-0.72 0.41-1.58 0.51-2.37 0.26-2.27-0.7-5.38-1.26-7.92-1.26z"/>
			<path id="&lt;Path&gt;" class="s5" d="m306.32 176.52c-7.26 10.34-240.86 37.04-254.8 34.18-3.84-0.78-8.24-12.8-12.54-29.98 26.82 2.98 126.94 9.62 267.42-35.14q0.04-0.01 0.08-0.02c1.48 16.4 1.7 28.3-0.16 30.96z"/>
			<path id="&lt;Path&gt;" class="s6" d="m78.02 202.63c0 0-5.48-18.51 4.41-21.04 9.9-2.53 41.63-6.18 42.94-3.35 1.32 2.82 6.09 17.22 6.09 17.22"/>
			<g id="&lt;Group&gt;">
				<path id="&lt;Path&gt;" class="s1" d="m77.98 99.32c-1.39 0-2.64-0.98-2.93-2.39l-5.19-25.02c-0.34-1.62 0.7-3.21 2.32-3.54 1.62-0.35 3.21 0.7 3.55 2.32l5.19 25.02c0.34 1.62-0.7 3.21-2.33 3.55q-0.3 0.06-0.61 0.06z"/>
				<path id="&lt;Path&gt;" class="s1" d="m62.22 88.58c-1.39 0-2.64-0.97-2.94-2.38-0.34-1.63 0.7-3.22 2.32-3.56l26.43-5.58c1.63-0.33 3.21 0.7 3.56 2.32 0.34 1.62-0.7 3.21-2.32 3.55l-26.43 5.58q-0.31 0.07-0.62 0.07z"/>
				<g id="&lt;Group&gt;">
					<path id="&lt;Compound Path&gt;" fill-rule="evenodd" class="s1" d="m185.94 119.39c-1.3 0-2.5-0.85-2.88-2.17l-18.06-62.03c-0.34-1.15 0.05-2.4 0.97-3.16 0.93-0.76 2.22-0.9 3.29-0.35l84.44 43.66c1.09 0.57 1.73 1.75 1.6 2.97-0.12 1.23-0.99 2.26-2.18 2.58l-66.38 18.39q-0.4 0.11-0.8 0.11zm-13.23-59.17l15.28 52.49 56.15-15.56z"/>
					<path id="&lt;Path&gt;" class="s1" d="m150.33 111.54c-1.13 0-2.21-0.64-2.72-1.73-0.65-1.4-6.25-13.88-2.76-21.45 1.2-2.6 3.34-4.39 6.19-5.18 2.65-0.73 5.37-0.37 7.86 1.06 7.92 4.57 11.87 18.98 12.3 20.61 0.41 1.61-0.55 3.24-2.15 3.66-1.6 0.42-3.24-0.54-3.66-2.14-0.98-3.76-4.6-14.12-9.49-16.93-1.11-0.64-2.14-0.78-3.26-0.48-1.15 0.32-1.87 0.91-2.34 1.91-1.76 3.82 0.75 12.09 2.75 16.41 0.7 1.5 0.05 3.28-1.45 3.98q-0.63 0.28-1.27 0.28z"/>
					<path id="&lt;Path&gt;" class="s1" d="m148.75 103.18c-1.31 0-2.52-0.88-2.89-2.2-0.44-1.6 0.5-3.25 2.09-3.69l15.83-4.39c1.6-0.44 3.25 0.5 3.69 2.09 0.44 1.6-0.49 3.25-2.09 3.7l-15.83 4.38q-0.4 0.11-0.8 0.11z"/>
					<path id="&lt;Path&gt;" class="s1" d="m221.46 68.28c-1.68 0-3.4-0.24-5-0.9-2.46-0.99-4.3-2.84-5.35-5.34-3.38-8.13 4.03-15.37 8.93-18.37 1.42-0.86 3.26-0.42 4.13 1 0.86 1.41 0.42 3.25-1 4.12-0.16 0.1-8.74 5.61-6.52 10.94 0.43 1.03 1.09 1.7 2.06 2.09 2.97 1.21 7.85-0.3 9.47-0.99 1.53-0.64 3.29 0.07 3.94 1.59 0.64 1.52-0.06 3.28-1.58 3.93-0.6 0.26-4.68 1.93-9.08 1.93z"/>
					<path id="&lt;Compound Path&gt;" fill-rule="evenodd" class="s1" d="m220.99 148.61c-1.34 0-2.53-0.89-2.89-2.2l-6.43-23.24c-0.4-1.44 0.31-2.95 1.68-3.55 2.47-1.09 10.89-4.46 15.52-1.93 1.63 0.88 2.69 2.4 2.99 4.28 0.48 2.97-0.24 5.5-1.32 7.5 4.12 0.78 8.08 2.93 8.88 7.69 0.31 1.9-0.17 3.73-1.39 5.29-3.85 4.92-14.68 5.99-16.81 6.15q-0.11 0.01-0.23 0.01zm-2.82-24.44l5.03 18.17c3.94-0.58 8.76-1.87 10.11-3.59 0.22-0.28 0.22-0.43 0.19-0.6-0.53-3.2-7.21-3.15-8.97-2.96-1.37 0.15-2.67-0.66-3.14-1.96-0.47-1.3 0-2.75 1.15-3.52 0.15-0.1 4.03-2.82 3.4-6.79-0.8-0.55-4.29 0.04-7.77 1.25z"/>
				</g>
			</g>
			<path id="&lt;Path&gt;" class="s7" d="m72.29 208.19c0 0-2.51-8.8-1.33-9.94 1.18-1.14 60.95-8.95 63.68-8.54 2.72 0.4 4.34 12.17 4.34 12.17z"/>
			<path id="&lt;Path&gt;" class="s3" d="m320.52 179.78c-0.24 2.18-1 4.76-2.34 7.66-3.64 7.88-278.22 41.98-281.86 39.78-1.52-0.9-2.66-4.18-3.5-7.7-0.38-1.7-0.7-3.44-0.94-5.02-0.46-2.94 1.6-5.7 4.54-6.1 38.72-5.34 278.96-38.4 281.7-36.38 1.88 1.38 2.86 4.02 2.4 7.76z"/>
			<path id="&lt;Path&gt;" class="s5" d="m320.52 179.78c-0.24 2.18-1 4.76-2.34 7.66-3.64 7.88-278.22 41.98-281.86 39.78-1.52-0.9-2.66-4.18-3.5-7.7z"/>
		</g>
		<path id="&lt;Path&gt;" class="s1" d="m275.87 247.08c2-1.48-5.24-13.76-5.24-13.76 0 0 9.99-7.66 9.71-9.9-0.34-2.66-13.94 0.27-13.94 0.27 0 0-4.26-11.59-7.52-11.78-3.27-0.19-1.84 13.43-1.84 13.43 0 0-12.06-1.08-13.54 1.32-1.49 2.39 9.81 8.39 9.81 8.39 0 0-3.06 11.39-1.17 13.04 1.89 1.65 10.27-7.91 10.27-7.91 0 0 10.69 8.95 13.46 6.9z"/>
		<path id="&lt;Path&gt;" class="s1" d="m161.46 224.83c0 0 1.39 13.95-12.85 13.1 12.85 2.93 12.85 14.8 12.85 14.8 0 0 1.39-12.97 11.61-14.98-11.61 1.03-11.61-12.92-11.61-12.92z"/>
		<g id="&lt;Group&gt;">
			<path id="&lt;Compound Path&gt;" fill-rule="evenodd" class="s6" d="m344.9 263.13l-80.86 27.62-25.12 1.17-81.7 38.24c0 0-20.82-34.29 12.69-53.48 33.51-19.19 56.46-2.71 56.46-2.71l25.19-6.71 91.72-11.09c4.3-0.52 5.68 5.57 1.62 6.96zm-131.99 28.01c0 0-12.7-14.86-29.8-7.03-17.11 7.8-14.34 26.72-14.34 26.72z"/>
			<path id="&lt;Compound Path&gt;" fill-rule="evenodd" class="s7" d="m315.68 213.74l-45.08 63.74-6.56 13.27c0 0 16.57 35.57-11.22 62.72-32.73 32.01-62.29-0.31-62.29-0.31l48.39-61.24-12.55-17.95 82.45-66.77c4.36-3.52 10.17 2.03 6.86 6.54zm-73.6 93.99l-27.58 37.26c0 0 19.54 10.38 32.84-6.78 13.28-17.13-5.26-30.48-5.26-30.48z"/>
			<path id="&lt;Path&gt;" class="s8" d="m256.18 275.92c1.4 3.66-0.42 7.75-4.08 9.15-3.65 1.4-7.74-0.42-9.14-4.07-1.41-3.65 0.42-7.75 4.07-9.15 3.65-1.4 7.74 0.42 9.15 4.07z"/>
			<path id="&lt;Path&gt;" class="s1" d="m211.01 280.14c0.73 1.9-0.22 4.03-2.12 4.76-1.9 0.73-4.04-0.21-4.77-2.12-0.73-1.9 0.22-4.03 2.12-4.76 1.91-0.73 4.04 0.22 4.77 2.12z"/>
		</g>
		<path id="&lt;Path&gt;" class="s1" d="m205.67 241.8c0 0 1.08 10.93-10.07 10.27 10.07 2.29 10.07 11.59 10.07 11.59 0 0 1.08-10.16 9.09-11.74-9.09 0.81-9.09-10.12-9.09-10.12z"/>
		<path id="&lt;Path&gt;" class="s1" d="m186.29 347.58c0 0 1.09 10.93-10.06 10.27 10.06 2.29 10.06 11.59 10.06 11.59 0 0 1.09-10.16 9.1-11.73-9.1 0.8-9.1-10.13-9.1-10.13z"/>
	</g>
</svg>