<svg version="1.2" xmlns="http://www.w3.org/2000/svg" viewBox="0 0 426 426" width="426" height="426">
	<style>
		.s0 { fill: #f4dcba } 
		.s1 { fill: #ffb533 } 
		.s2 { fill: #e76441 } 
		.s3 { fill: #ff7550 } 
		.s4 { fill: #2d2b39 } 
		.s5 { fill: #ffffff } 
		.s6 { fill: #3c88a7 } 
		.s7 { opacity: .2;mix-blend-mode: multiply;fill: #2d2b39 } 
	</style>
	<g id="&lt;Group&gt;">
		<path id="&lt;Path&gt;" class="s0" d="m400.86 220.87c0 103.43-83.84 187.27-187.26 187.27-103.42 0-187.26-83.84-187.26-187.27 0-103.42 83.84-187.26 187.26-187.26 103.42 0 187.26 83.84 187.26 187.26z"/>
		<path id="&lt;Path&gt;" class="s1" d="m326.96 220.87c0 62.61-50.75 113.37-113.36 113.37-62.61 0-113.36-50.76-113.36-113.37 0-62.6 50.75-113.36 113.36-113.36 62.61 0 113.36 50.76 113.36 113.36z"/>
		<g id="&lt;Group&gt;">
			<path id="&lt;Path&gt;" class="s2" d="m64.57 84.36l-11.52 3.19 17.63 217.77 179.23-18.43v-41.23"/>
			<path id="&lt;Path&gt;" class="s3" d="m58.81 74.77l22.74 220.86 174.77-15.92-18.01-215.59z"/>
			<path id="&lt;Path&gt;" class="s2" d="m70.68 81.58c-3.25 3.73 1.1 14.35 12.81 13.31 11.72-1.03 10-12.14 7.93-15.03-2.07-2.89-14.26-5.73-20.74 1.72z"/>
			<path id="&lt;Path&gt;" class="s2" d="m98.43 80.04c-3.25 3.73 1.09 14.35 12.81 13.31 11.72-1.03 9.99-12.15 7.93-15.03-2.07-2.89-14.26-5.73-20.74 1.72z"/>
			<path id="&lt;Path&gt;" class="s2" d="m126.78 78.99c-3.25 3.73 1.09 14.35 12.81 13.31 11.72-1.03 9.99-12.15 7.93-15.03-2.07-2.89-14.26-5.73-20.74 1.72z"/>
			<path id="&lt;Path&gt;" class="s2" d="m153 77.27c-3.24 3.73 1.1 14.34 12.82 13.31 11.71-1.03 9.99-12.15 7.92-15.03-2.06-2.89-14.25-5.73-20.74 1.72z"/>
			<path id="&lt;Path&gt;" class="s2" d="m180.97 75.76c-3.25 3.73 1.1 14.34 12.81 13.31 11.72-1.04 10-12.15 7.93-15.04-2.07-2.88-14.25-5.72-20.74 1.73z"/>
			<path id="&lt;Path&gt;" class="s2" d="m208.55 74.17c-3.25 3.73 1.09 14.34 12.81 13.31 11.72-1.04 10-12.15 7.93-15.04-2.07-2.88-14.26-5.73-20.74 1.73z"/>
			<path id="&lt;Path&gt;" class="s4" d="m70.68 56.64l5.62 28.73h10.81l-1.45-28.73z"/>
			<path id="&lt;Path&gt;" class="s4" d="m97.9 54.57l5.62 28.74h10.82l-1.46-28.74z"/>
			<path id="&lt;Path&gt;" class="s4" d="m125.13 52.85l5.62 28.73h10.82l-1.46-28.73z"/>
			<path id="&lt;Path&gt;" class="s4" d="m152.7 51.13l5.62 28.73h10.82l-1.46-28.73z"/>
			<path id="&lt;Path&gt;" class="s4" d="m179.93 49.75l5.61 28.73h10.82l-1.45-28.73z"/>
			<path id="&lt;Path&gt;" class="s4" d="m209.57 47.68l5.61 28.73h10.82l-1.45-28.73z"/>
			<g id="&lt;Group&gt;">
				<path id="&lt;Path&gt;" class="s5" d="m102.08 200.02c-1.81 0-3.45-1.23-3.89-3.07-1.26-5.23-11.66-51.33 9.88-58.75 3.76-1.29 7.52-0.84 10.89 1.31 14.15 9.01 18.69 48.49 19.16 52.97 0.24 2.19-1.36 4.16-3.55 4.39-2.19 0.23-4.17-1.36-4.4-3.55-1.63-15.42-7.28-41.83-15.51-47.07-1.31-0.83-2.54-0.98-3.98-0.48-7.72 2.65-8.31 17.04-7.98 25.39 0.48 12.17 3.24 23.81 3.27 23.93 0.51 2.14-0.81 4.3-2.96 4.82q-0.47 0.11-0.93 0.11z"/>
				<path id="&lt;Path&gt;" class="s5" d="m99.04 180.62c-2.02 0-3.76-1.53-3.98-3.58-0.23-2.2 1.37-4.17 3.57-4.4l31.81-3.34c2.19-0.22 4.16 1.36 4.39 3.56 0.23 2.2-1.36 4.17-3.56 4.4l-31.81 3.34q-0.21 0.02-0.42 0.02z"/>
				<path id="&lt;Compound Path&gt;" fill-rule="evenodd" class="s5" d="m158.6 196.35c-4.42 0-7.96-0.56-8.77-0.7l-2.87-0.49-8.04-56.71 3.37-0.94c1.52-0.42 15.07-3.99 24.05 1.28 3.57 2.1 5.99 5.4 6.98 9.54 1 4.16 0.35 8.25-1.86 11.81-1.05 1.69-2.38 3.17-3.86 4.46 2.16 0.59 4.25 1.49 6.12 2.8 3.8 2.67 6.1 6.74 6.64 11.78 0.67 6.11-1.82 9.86-4.01 11.92-4.55 4.27-11.91 5.25-17.75 5.25zm-4.55-8.21c5.71 0.53 13.58 0.18 16.82-2.88 0.82-0.77 1.87-2.15 1.54-5.22-0.3-2.75-1.37-4.74-3.28-6.09-4.76-3.36-13.71-2.35-17.32-1.58zm-6.19-43.65l2.82 19.91c3.76-1.07 11.18-3.94 13.99-8.48 1.1-1.78 1.38-3.6 0.87-5.72-0.49-2.06-1.52-3.49-3.25-4.51-3.88-2.28-10.18-1.91-14.43-1.2z"/>
				<path id="&lt;Path&gt;" class="s5" d="m207.66 192.58c-4.55 0-9.33-0.77-13.42-3.11-5.22-2.97-8.49-7.87-9.72-14.55-1.94-10.54-0.34-19.4 4.75-26.33 8.03-10.95 21.79-12.75 22.38-12.83 2.18-0.27 4.18 1.29 4.45 3.49 0.27 2.18-1.28 4.18-3.47 4.45-0.15 0.02-11.02 1.54-16.95 9.67-3.7 5.08-4.81 11.85-3.29 20.11 0.79 4.31 2.69 7.27 5.81 9.04 7.23 4.13 19.56 1.07 23.7-0.45 2.07-0.77 4.37 0.3 5.13 2.37 0.77 2.07-0.29 4.37-2.37 5.14-0.49 0.18-8.31 3-17 3z"/>
			</g>
		</g>
		<path id="&lt;Path&gt;" class="s5" d="m305 93.94c0.46-2.79-15.15-7.06-15.15-7.06 0 0 2.08-14.14 0.08-15.74-2.38-1.9-11.14 11.24-11.14 11.24 0 0-12.64-6.06-15.45-3.64-2.81 2.43 9.13 12.39 9.13 12.39 0 0-10.67 8.66-9.98 11.79 0.68 3.12 14.63-0.93 14.63-0.93 0 0 6.51 11.7 9.36 11.55 2.85-0.15 2.11-14.57 2.11-14.57 0 0 15.78-1.17 16.41-5.03z"/>
		<path id="&lt;Path&gt;" class="s5" d="m330.21 107.51c0 0 2.25 22.64-20.85 21.27 20.85 4.74 20.85 24.01 20.85 24.01 0 0 2.25-21.05 18.85-24.31-18.85 1.67-18.85-20.97-18.85-20.97z"/>
		<path id="&lt;Path&gt;" class="s5" d="m275.99 144.71c0 0 1.09 10.92-10.07 10.26 10.07 2.29 10.07 11.59 10.07 11.59 0 0 1.09-10.16 9.1-11.73-9.1 0.8-9.1-10.12-9.1-10.12z"/>
		<g id="&lt;Group&gt;">
			<path id="&lt;Compound Path&gt;" fill-rule="evenodd" class="s5" d="m271.38 370.95c0 0-18.62-7.1-127.21-48.97 92.38-24.38 127.21-142.11 127.21-142.11 0 0 66.54 15.88 105.56 18.01 7.98 136.93-105.56 173.07-105.56 173.07zm11.85-182.35c-5.69-0.38-9.84 9.88-3.35 12.32 6.5 2.44 13.2-11.67 3.35-12.32zm15 2.99c-5.69-0.38-9.85 9.88-3.35 12.32 6.49 2.44 13.19-11.67 3.35-12.32zm15.22 2.48c-5.69-0.37-9.84 9.89-3.35 12.33 6.5 2.43 13.2-11.68 3.35-12.33zm16.59 2.49c-5.69-0.37-9.85 9.89-3.35 12.33 6.5 2.43 13.2-11.68 3.35-12.33zm16.49 3.22c-5.69-0.38-9.84 9.89-3.35 12.32 6.5 2.44 13.2-11.67 3.35-12.32zm15.52 2.6c-5.69-0.37-9.84 9.89-3.35 12.33 6.5 2.43 13.2-11.68 3.35-12.33z"/>
			<path id="&lt;Path&gt;" class="s6" d="m361.22 234.1q-0.06 0-0.12-0.01c-52.02-6.21-90.53-18.03-90.92-18.14-0.52-0.17-0.82-0.73-0.66-1.26 0.17-0.52 0.73-0.82 1.26-0.65 0.38 0.11 38.73 11.87 90.56 18.06 0.55 0.07 0.94 0.57 0.87 1.11-0.06 0.51-0.49 0.89-0.99 0.89z"/>
			<path id="&lt;Path&gt;" class="s6" d="m350.69 246.23q-0.05 0-0.1 0c-38.76-4.09-84.95-18.86-85.41-19.01-0.52-0.17-0.81-0.73-0.64-1.26 0.17-0.52 0.73-0.8 1.25-0.64 0.46 0.15 46.46 14.85 85.01 18.92 0.55 0.05 0.95 0.55 0.89 1.1-0.06 0.51-0.49 0.89-1 0.89z"/>
			<path id="&lt;Path&gt;" class="s6" d="m320.92 255.3q-0.08 0-0.16-0.01c-18.99-3-59.88-15.02-60.29-15.14-0.53-0.16-0.83-0.72-0.67-1.25 0.15-0.52 0.7-0.83 1.24-0.67 0.41 0.12 41.17 12.1 60.03 15.08 0.55 0.09 0.92 0.6 0.83 1.15-0.07 0.49-0.5 0.84-0.98 0.84z"/>
		</g>
		<path id="&lt;Path&gt;" class="s5" d="m104.65 326.8c0 0 1.08 10.93-10.07 10.27 10.07 2.29 10.07 11.59 10.07 11.59 0 0 1.08-10.16 9.09-11.73-9.09 0.8-9.09-10.13-9.09-10.13z"/>
		<g id="&lt;Group&gt;">
			<g id="&lt;Group&gt;">
				<path id="&lt;Path&gt;" class="s4" d="m294.19 287.43q-0.1 1.05-0.65 2.03l-12.82 22.75-108.01 56.33-3.19 1.68-1.68 0.86-9.35-14.77-9.9-15.64 4.7-2.43 2.03-1.05 110.18-56.91 23.7 1.28c3.19 0.18 5.32 3.01 4.99 5.87z"/>
				<path id="&lt;Path&gt;" class="s6" d="m278.04 304.55l-113.27 59.87 3.08 6.66 112.85-58.88z"/>
				<path id="&lt;Path&gt;" class="s6" d="m270.48 286.68l-116.99 61.72-4.9-7.74 116.9-60.39z"/>
				<path id="&lt;Path&gt;" class="s0" d="m280.7 312.2l-6.27-8.87c-2.93-4.15-5.1-8.77-6.42-13.67l-2.52-9.39 14.83 0.81 8.88 0.48c3.93 0.21 6.26 4.47 4.33 7.89l-3.64 6.45z"/>
				<path id="&lt;Path&gt;" class="s1" d="m170.29 371.74c0 0-2.45 1.91-6.14 3.8-7.99 4.17-21.76 8.36-28.66-6.9q-0.92-2.05-1.45-3.97c-3.12-11.35 3.96-18.67 10.35-22.74 4.5-2.89 8.65-4.2 8.65-4.2l0.25 0.51 4.11 8.11 4.45 8.74 7.67 15.13z"/>
				<path id="&lt;Path&gt;" class="s4" d="m289.89 295.9c-7.12-3.57-9.1-10.27-9.57-14.82l8.88 0.48c3.93 0.21 6.26 4.47 4.33 7.89z"/>
			</g>
			<path id="&lt;Path&gt;" class="s7" d="m294.19 287.43q-0.1 1.05-0.65 2.03l-12.82 22.75-108.01 56.33c0.86 2.68-0.28 5.67-2.89 7.04l-0.05 0.03c-1.82 0.95-3.94 0.86-5.62-0.07-7.99 4.17-21.76 8.36-28.66-6.9q-0.92-2.05-1.45-3.97c4.41-1.42 11.07-3.61 19.37-6.55q2.45-0.87 5.08-1.81 1.64-0.59 3.36-1.22 1.41-0.51 2.89-1.07c36.73-13.56 93-37.29 129.45-66.59z"/>
			<path id="&lt;Path&gt;" class="s5" d="m169.82 375.58l-0.05 0.03c-1.82 0.95-3.94 0.86-5.62-0.07-0.95-0.52-1.74-1.29-2.3-2.29l-8.44-15.13-8.95-16.05q-0.03-0.07-0.07-0.14c-1.51-2.94-0.37-6.58 2.61-8.05 2.82-1.42 6.27-0.35 7.81 2.41l0.51 0.9 4.43 7.93 4.99 8.9 7.5 13.43q0.31 0.53 0.47 1.09c0.86 2.68-0.28 5.67-2.89 7.04z"/>
		</g>
	</g>
</svg>