<svg version="1.2" xmlns="http://www.w3.org/2000/svg" viewBox="0 0 397 397" width="397" height="397">
	<style>
		.s0 { fill: #f4dcba } 
		.s1 { fill: #60bfb2 } 
		.s2 { fill: #ff7550 } 
		.s3 { fill: #ffb533 } 
		.s4 { fill: #3c88a7 } 
		.s5 { opacity: .2;mix-blend-mode: multiply;fill: #2d2b39 } 
		.s6 { fill: #ffffff } 
		.s7 { fill: #e76441 } 
		.s8 { fill: #2d2b39 } 
	</style>
	<g id="&lt;Group&gt;">
		<path id="&lt;Path&gt;" class="s0" d="m384.66 206.87c0 103.43-83.84 187.27-187.26 187.27-103.42 0-187.26-83.84-187.26-187.27 0-103.42 83.84-187.26 187.26-187.26 103.42 0 187.26 83.84 187.26 187.26z"/>
		<path id="&lt;Path&gt;" class="s1" d="m310.76 206.87c0 62.61-50.75 113.37-113.36 113.37-62.61 0-113.36-50.76-113.36-113.37 0-62.6 50.75-113.36 113.36-113.36 62.61 0 113.36 50.76 113.36 113.36z"/>
		<g id="&lt;Group&gt;">
			<g id="&lt;Group&gt;">
				<g id="&lt;Group&gt;">
					<path id="&lt;Path&gt;" class="s2" d="m397.43 115.13l-35.44 8.88-28.73 7.21-25.09 6.27-73.46 18.43-25.29 6.34-29.91 7.49-33.06 8.3c0 0-2.76-9.07-4.63-23.03-5.13-38.53-3.37-114.49 82.08-141.6 81.49-25.84 133.92 34.32 158.04 72.75 10.36 16.47 15.49 28.96 15.49 28.96z"/>
					<path id="&lt;Path&gt;" class="s3" d="m362 124.02l-28.74 7.2-25.1 6.28-73.44 18.43-25.3 6.32-29.9 7.5c-4.45-21.22-15.85-100.95 56.07-125.35 80.2-27.23 119.53 62.02 126.41 79.62z"/>
					<path id="&lt;Path&gt;" class="s1" d="m333.26 131.22l-25.1 6.28-73.44 18.43-25.3 6.32c-2.96-16.85-6.1-74.99 40.26-89.69 47.44-15.05 75.58 42.92 83.58 58.66z"/>
					<path id="&lt;Path&gt;" class="s4" d="m308.16 137.5l-73.44 18.43c-1.94-13.23-2.02-38.72 23.44-46.94 25.81-8.34 42.84 15.47 50 28.51z"/>
				</g>
			</g>
			<path id="&lt;Path&gt;" class="s5" d="m397.43 115.13l-35.44 8.88-28.73 7.21-25.09 6.27-73.46 18.43-25.29 6.34-29.91 7.49-33.06 8.3c0 0-2.76-9.07-4.63-23.03 30.51 1.79 142.65 2.27 240.12-68.85 10.36 16.47 15.49 28.96 15.49 28.96z"/>
		</g>
		<path id="&lt;Path&gt;" class="s6" d="m313.44 324.05c0.4-2.46-13.35-6.21-13.35-6.21 0 0 1.83-12.46 0.07-13.87-2.09-1.68-9.81 9.9-9.81 9.9 0 0-11.13-5.34-13.6-3.2-2.48 2.13 8.03 10.91 8.03 10.91 0 0-9.39 7.63-8.79 10.38 0.61 2.75 12.89-0.82 12.89-0.82 0 0 5.74 10.3 8.24 10.17 2.51-0.13 1.86-12.83 1.86-12.83 0 0 13.9-1.03 14.46-4.43z"/>
		<path id="&lt;Path&gt;" class="s6" d="m50.68 232.17c0 0 2.24 22.63-20.86 21.26 20.86 4.74 20.86 24.01 20.86 24.01 0 0 2.24-21.04 18.84-24.3-18.84 1.66-18.84-20.97-18.84-20.97z"/>
		<path id="&lt;Path&gt;" class="s6" d="m77.78 103.59c0 0 1.09 10.92-10.06 10.26 10.06 2.29 10.06 11.59 10.06 11.59 0 0 1.09-10.16 9.1-11.73-9.1 0.8-9.1-10.12-9.1-10.12z"/>
		<path id="&lt;Path&gt;" class="s6" d="m362.48 206.19c0 0 1.08 10.93-10.07 10.27 10.07 2.28 10.07 11.58 10.07 11.58 0 0 1.08-10.15 9.1-11.73-9.1 0.81-9.1-10.12-9.1-10.12z"/>
		<path id="&lt;Path&gt;" class="s6" d="m228.87 173.43c0 0 1.62 16.3-15.01 15.31 15.01 3.42 15.01 17.29 15.01 17.29 0 0 1.62-15.15 13.57-17.5-13.57 1.2-13.57-15.1-13.57-15.1z"/>
		<path id="&lt;Path&gt;" class="s6" d="m118.92 60.45c0 0 1.08 10.92-10.07 10.26 10.07 2.29 10.07 11.59 10.07 11.59 0 0 1.08-10.16 9.09-11.73-9.09 0.8-9.09-10.12-9.09-10.12z"/>
		<g id="&lt;Group&gt;">
			<g id="&lt;Group&gt;">
				<path id="&lt;Path&gt;" class="s2" d="m378.06 307.25l-252.05-56.66 1.82-7.12 6.47-25.45c1.21-4.74 5.94-7.69 10.72-6.68l15.81 3.33 2.94 0.63 23.3 4.92 2.98 0.63 23.3 4.89 2.94 0.63 23.33 4.93 2.91 0.63 23.33 4.92 2.94 0.6 23.3 4.93 2.97 0.62 23.28 4.93 2.96 0.6 23.31 4.93 2.94 0.63 23.33 4.92 2.94 0.6 4.69 0.99c4.92 1.05 8.07 5.87 7.04 10.8l-5.6 26.82z"/>
				<path id="&lt;Path&gt;" class="s7" d="m378.07 307.24l-252.07-56.65 1.82-7.14 252.14 54.79z"/>
			</g>
			<path id="&lt;Path&gt;" class="s7" d="m371.06 276.46l-2.96-0.51 2.79-16.94 2.94 0.6z"/>
			<path id="&lt;Path&gt;" class="s7" d="m344.94 270.02l-2.96-0.48 2.64-16.08 2.94 0.63z"/>
			<path id="&lt;Path&gt;" class="s7" d="m318.86 263.61l-3-0.5 2.49-15.18 2.96 0.6z"/>
			<path id="&lt;Path&gt;" class="s7" d="m292.74 257.17l-2.99-0.47 2.35-14.32 2.97 0.62z"/>
			<path id="&lt;Path&gt;" class="s7" d="m266.62 250.76l-2.96-0.51 2.2-13.4 2.94 0.6z"/>
			<path id="&lt;Path&gt;" class="s7" d="m240.51 244.32l-2.96-0.47 2.07-12.55 2.91 0.63z"/>
			<path id="&lt;Path&gt;" class="s7" d="m214.42 237.88l-2.99-0.47 1.92-11.67 2.94 0.63z"/>
			<path id="&lt;Path&gt;" class="s7" d="m188.3 231.47l-2.99-0.5 1.76-10.75 2.98 0.63z"/>
			<path id="&lt;Path&gt;" class="s7" d="m162.18 225.03l-2.96-0.47 1.61-9.89 2.94 0.63z"/>
		</g>
		<g id="&lt;Group&gt;">
			<g id="&lt;Group&gt;">
				<path id="&lt;Path&gt;" class="s3" d="m226.44 365.78c25.8-19.71 22.88-70.56-23.64-69.51-46.51 1.06-45.61 37.31-41.79 50.34 6.58 22.47 44.17 35.42 65.43 19.17z"/>
			</g>
			<path id="&lt;Path&gt;" class="s8" d="m205.43 336.59c4.84-3.7 4.29-13.23-4.43-13.04-8.72 0.2-8.55 7-7.84 9.44 1.23 4.22 8.28 6.65 12.27 3.6z"/>
		</g>
		<g id="&lt;Group&gt;">
			<path id="&lt;Path&gt;" class="s2" d="m124.46 322.35c-5.07-3.15-56.01-19.25-61.3-17.62-5.29 1.63-17.5 61.42-12.17 67.05 5.32 5.62 55.29 13.47 60.02 11.66 4.74-1.81 20.05-56.99 13.45-61.09z"/>
			<path id="&lt;Path&gt;" class="s8" d="m71.47 327.09c0.87 3.53 6.23 5.5 8.2 0.68 1.97-4.83-1.79-6.35-3.3-6.54-2.61-0.33-5.62 2.95-4.9 5.86z"/>
			<path id="&lt;Path&gt;" class="s8" d="m104.39 333.52c0.87 3.53 6.23 5.5 8.2 0.68 1.97-4.83-1.79-6.36-3.3-6.55-2.6-0.33-5.61 2.96-4.9 5.87z"/>
			<path id="&lt;Path&gt;" class="s8" d="m65.39 355.3c0.87 3.53 6.22 5.5 8.19 0.68 1.97-4.83-1.79-6.36-3.3-6.55-2.6-0.33-5.61 2.96-4.89 5.87z"/>
			<path id="&lt;Path&gt;" class="s8" d="m98.31 361.72c0.87 3.53 6.22 5.51 8.19 0.68 1.97-4.82-1.79-6.35-3.3-6.54-2.6-0.33-5.61 2.95-4.89 5.86z"/>
		</g>
		<g id="&lt;Group&gt;">
			<path id="&lt;Path&gt;" class="s4" d="m336.13 234.86c6.55-9.49 10.64-72.71 6.06-79.85-4.59-7.13-75.85 23.37-78.02 33.38-2.18 10.01 65.05 56.47 71.96 46.47z"/>
			<path id="&lt;Path&gt;" class="s8" d="m287.69 194.08c1.54 3.9 7.96 5.33 9.47-0.49 1.51-5.81-3.02-6.98-4.78-6.97-3.02 0.03-5.96 4.24-4.69 7.46z"/>
			<path id="&lt;Path&gt;" class="s8" d="m316.74 210.52c1.53 3.9 7.95 5.34 9.47-0.48 1.51-5.82-3.03-6.98-4.78-6.97-3.03 0.03-5.96 4.24-4.69 7.45z"/>
			<path id="&lt;Path&gt;" class="s8" d="m319.53 179.83c1.54 3.9 7.96 5.33 9.47-0.48 1.51-5.82-3.02-6.98-4.78-6.97-3.02 0.02-5.96 4.24-4.69 7.45z"/>
		</g>
		<path id="&lt;Path&gt;" class="s6" d="m69.72 148.8c-3.54 2.47-35.76 29.85-32.04 38.44 3.72 8.58 21.39 37.18 26.49 40.01 5.09 2.83 46.34-4.54 49.14-8.86 2.8-4.33 16.97-43.19 11.55-48.84-5.43-5.65-49.63-24.62-55.14-20.75z"/>
		<path id="&lt;Path&gt;" class="s8" d="m72.68 165c-2.54 3.59-0.11 10.06 5.87 8.05 5.99-2.02 4.41-6.68 3.39-8.21-1.76-2.65-7.16-2.81-9.26 0.16z"/>
		<path id="&lt;Path&gt;" class="s8" d="m56.77 186.67c-2.54 3.59-0.11 10.07 5.87 8.05 5.99-2.01 4.41-6.67 3.39-8.21-1.76-2.65-7.16-2.81-9.26 0.16z"/>
		<path id="&lt;Path&gt;" class="s8" d="m72.68 203.75c-2.54 3.6-0.11 10.07 5.87 8.05 5.99-2.01 4.41-6.67 3.39-8.21-1.76-2.64-7.16-2.8-9.26 0.16z"/>
		<path id="&lt;Path&gt;" class="s8" d="m94.12 198.44c-2.55 3.6-0.11 10.07 5.87 8.05 5.99-2.01 4.41-6.67 3.38-8.21-1.76-2.64-7.15-2.8-9.25 0.16z"/>
		<path id="&lt;Path&gt;" class="s8" d="m96.41 175.61c-2.54 3.6-0.11 10.07 5.87 8.05 5.99-2.01 4.41-6.67 3.39-8.21-1.76-2.64-7.16-2.8-9.26 0.16z"/>
	</g>
</svg>