<svg version="1.2" xmlns="http://www.w3.org/2000/svg" viewBox="0 0 418 418" width="418" height="418">
	<style>
		.s0 { fill: #f4dcba } 
		.s1 { fill: #ffb533 } 
		.s2 { fill: #e76441 } 
		.s3 { fill: #ff7550 } 
		.s4 { fill: #2d2b39 } 
		.s5 { fill: #ffffff } 
		.s6 { fill: #3c88a7 } 
		.s7 { opacity: .2;mix-blend-mode: multiply;fill: #2d2b39 } 
		.s8 { fill: #60bfb2 } 
		.s9 { fill: #f49f16 } 
		.s10 { opacity: .2;mix-blend-mode: multiply;fill: #832b39 } 
	</style>
	<g id="&lt;Group&gt;">
		<path id="&lt;Path&gt;" class="s0" d="m-80.14-225.13c0 103.43-83.84 187.27-187.26 187.27-103.42 0-187.26-83.84-187.26-187.27 0-103.42 83.84-187.26 187.26-187.26 103.42 0 187.26 83.84 187.26 187.26z"/>
		<path id="&lt;Path&gt;" class="s1" d="m-154.04-225.13c0 62.61-50.75 113.37-113.36 113.37-62.61 0-113.36-50.76-113.36-113.37 0-62.6 50.75-113.36 113.36-113.36 62.61 0 113.36 50.76 113.36 113.36z"/>
		<g id="&lt;Group&gt;">
			<path id="&lt;Path&gt;" class="s2" d="m-416.43-361.64l-11.52 3.19 17.63 217.77 179.23-18.43v-41.23"/>
			<path id="&lt;Path&gt;" class="s3" d="m-422.19-371.23l22.74 220.86 174.77-15.92-18.01-215.59z"/>
			<path id="&lt;Path&gt;" class="s2" d="m-410.32-364.42c-3.25 3.73 1.1 14.35 12.81 13.31 11.72-1.03 10-12.14 7.93-15.03-2.07-2.89-14.26-5.73-20.74 1.72z"/>
			<path id="&lt;Path&gt;" class="s2" d="m-382.57-365.96c-3.25 3.73 1.09 14.35 12.81 13.31 11.72-1.03 9.99-12.15 7.93-15.03-2.07-2.89-14.26-5.73-20.74 1.72z"/>
			<path id="&lt;Path&gt;" class="s2" d="m-354.22-367.01c-3.25 3.73 1.09 14.35 12.81 13.31 11.72-1.03 9.99-12.15 7.93-15.03-2.07-2.89-14.26-5.73-20.74 1.72z"/>
			<path id="&lt;Path&gt;" class="s2" d="m-328-368.73c-3.24 3.73 1.1 14.34 12.82 13.31 11.71-1.03 9.99-12.15 7.92-15.03-2.06-2.89-14.25-5.73-20.74 1.72z"/>
			<path id="&lt;Path&gt;" class="s2" d="m-300.03-370.24c-3.25 3.73 1.1 14.34 12.81 13.31 11.72-1.04 10-12.15 7.93-15.04-2.07-2.88-14.25-5.72-20.74 1.73z"/>
			<path id="&lt;Path&gt;" class="s2" d="m-272.45-371.83c-3.25 3.73 1.09 14.34 12.81 13.31 11.72-1.04 10-12.15 7.93-15.04-2.07-2.88-14.26-5.73-20.74 1.73z"/>
			<path id="&lt;Path&gt;" class="s4" d="m-410.32-389.36l5.62 28.73h10.81l-1.45-28.73z"/>
			<path id="&lt;Path&gt;" class="s4" d="m-383.1-391.43l5.62 28.74h10.82l-1.46-28.74z"/>
			<path id="&lt;Path&gt;" class="s4" d="m-355.87-393.15l5.62 28.73h10.82l-1.46-28.73z"/>
			<path id="&lt;Path&gt;" class="s4" d="m-328.3-394.87l5.62 28.73h10.82l-1.46-28.73z"/>
			<path id="&lt;Path&gt;" class="s4" d="m-301.07-396.25l5.61 28.73h10.82l-1.45-28.73z"/>
			<path id="&lt;Path&gt;" class="s4" d="m-271.43-398.32l5.61 28.73h10.82l-1.45-28.73z"/>
			<g id="&lt;Group&gt;">
				<path id="&lt;Path&gt;" class="s5" d="m-378.92-245.98c-1.81 0-3.45-1.23-3.89-3.07-1.26-5.23-11.66-51.33 9.88-58.75 3.76-1.29 7.52-0.84 10.89 1.31 14.15 9.01 18.69 48.49 19.16 52.97 0.24 2.19-1.36 4.16-3.55 4.39-2.19 0.23-4.17-1.36-4.4-3.55-1.63-15.42-7.28-41.83-15.51-47.07-1.31-0.83-2.54-0.98-3.98-0.48-7.72 2.65-8.31 17.04-7.98 25.39 0.48 12.17 3.24 23.81 3.27 23.93 0.51 2.14-0.81 4.3-2.96 4.82q-0.47 0.11-0.93 0.11z"/>
				<path id="&lt;Path&gt;" class="s5" d="m-381.96-265.38c-2.02 0-3.76-1.53-3.98-3.58-0.23-2.2 1.37-4.17 3.57-4.4l31.81-3.34c2.19-0.22 4.16 1.36 4.39 3.56 0.23 2.2-1.36 4.17-3.56 4.4l-31.81 3.34q-0.21 0.02-0.42 0.02z"/>
				<path id="&lt;Compound Path&gt;" fill-rule="evenodd" class="s5" d="m-322.4-249.65c-4.42 0-7.96-0.56-8.77-0.7l-2.87-0.49-8.04-56.71 3.37-0.94c1.52-0.42 15.07-3.99 24.05 1.28 3.57 2.1 5.99 5.4 6.98 9.54 1 4.16 0.35 8.25-1.86 11.81-1.05 1.69-2.38 3.17-3.86 4.46 2.16 0.59 4.25 1.49 6.12 2.8 3.8 2.67 6.1 6.74 6.64 11.78 0.67 6.11-1.82 9.86-4.01 11.92-4.55 4.27-11.91 5.25-17.75 5.25zm-4.55-8.21c5.71 0.53 13.58 0.18 16.82-2.88 0.82-0.77 1.87-2.15 1.54-5.22-0.3-2.75-1.37-4.74-3.28-6.09-4.76-3.36-13.71-2.35-17.32-1.58zm-6.19-43.65l2.82 19.91c3.76-1.07 11.18-3.94 13.99-8.48 1.1-1.78 1.38-3.6 0.87-5.72-0.49-2.06-1.52-3.49-3.25-4.51-3.88-2.28-10.18-1.91-14.43-1.2z"/>
				<path id="&lt;Path&gt;" class="s5" d="m-273.34-253.42c-4.55 0-9.33-0.77-13.42-3.11-5.22-2.97-8.49-7.87-9.72-14.55-1.94-10.54-0.34-19.4 4.75-26.33 8.03-10.95 21.79-12.75 22.38-12.83 2.18-0.27 4.18 1.29 4.45 3.49 0.27 2.18-1.28 4.18-3.47 4.45-0.15 0.02-11.02 1.54-16.95 9.67-3.7 5.08-4.81 11.85-3.29 20.11 0.79 4.31 2.69 7.27 5.81 9.04 7.23 4.13 19.56 1.07 23.7-0.45 2.07-0.77 4.37 0.3 5.13 2.37 0.77 2.07-0.29 4.37-2.37 5.14-0.49 0.18-8.31 3-17 3z"/>
			</g>
		</g>
		<path id="&lt;Path&gt;" class="s5" d="m-176-352.06c0.46-2.79-15.15-7.06-15.15-7.06 0 0 2.08-14.14 0.08-15.74-2.38-1.9-11.14 11.24-11.14 11.24 0 0-12.64-6.06-15.45-3.64-2.81 2.43 9.13 12.39 9.13 12.39 0 0-10.67 8.66-9.98 11.79 0.68 3.12 14.63-0.93 14.63-0.93 0 0 6.51 11.7 9.36 11.55 2.85-0.15 2.11-14.57 2.11-14.57 0 0 15.78-1.17 16.41-5.03z"/>
		<path id="&lt;Path&gt;" class="s5" d="m-150.79-338.49c0 0 2.25 22.64-20.85 21.27 20.85 4.74 20.85 24.01 20.85 24.01 0 0 2.25-21.05 18.85-24.31-18.85 1.67-18.85-20.97-18.85-20.97z"/>
		<path id="&lt;Path&gt;" class="s5" d="m-205.01-301.29c0 0 1.09 10.92-10.07 10.26 10.07 2.29 10.07 11.59 10.07 11.59 0 0 1.09-10.16 9.1-11.73-9.1 0.8-9.1-10.12-9.1-10.12z"/>
		<g id="&lt;Group&gt;">
			<path id="&lt;Compound Path&gt;" fill-rule="evenodd" class="s5" d="m-209.62-75.05c0 0-18.62-7.1-127.21-48.97 92.38-24.38 127.21-142.11 127.21-142.11 0 0 66.54 15.88 105.56 18.01 7.98 136.93-105.56 173.07-105.56 173.07zm11.85-182.35c-5.69-0.38-9.84 9.88-3.35 12.32 6.5 2.44 13.2-11.67 3.35-12.32zm15 2.99c-5.69-0.38-9.85 9.88-3.35 12.32 6.49 2.44 13.19-11.67 3.35-12.32zm15.22 2.48c-5.69-0.37-9.84 9.89-3.35 12.33 6.5 2.43 13.2-11.68 3.35-12.33zm16.59 2.49c-5.69-0.37-9.85 9.89-3.35 12.33 6.5 2.43 13.2-11.68 3.35-12.33zm16.49 3.22c-5.69-0.38-9.84 9.89-3.35 12.32 6.5 2.44 13.2-11.67 3.35-12.32zm15.52 2.6c-5.69-0.37-9.84 9.89-3.35 12.33 6.5 2.43 13.2-11.68 3.35-12.33z"/>
			<path id="&lt;Path&gt;" class="s6" d="m-119.78-211.9q-0.06 0-0.12-0.01c-52.02-6.21-90.53-18.03-90.92-18.14-0.52-0.17-0.82-0.73-0.66-1.26 0.17-0.52 0.73-0.82 1.26-0.65 0.38 0.11 38.73 11.87 90.56 18.06 0.55 0.07 0.94 0.57 0.87 1.11-0.06 0.51-0.49 0.89-0.99 0.89z"/>
			<path id="&lt;Path&gt;" class="s6" d="m-130.31-199.77q-0.05 0-0.1 0c-38.76-4.09-84.95-18.86-85.41-19.01-0.52-0.17-0.81-0.73-0.64-1.26 0.17-0.52 0.73-0.8 1.25-0.64 0.46 0.15 46.46 14.85 85.01 18.92 0.55 0.05 0.95 0.55 0.89 1.1-0.06 0.51-0.49 0.89-1 0.89z"/>
			<path id="&lt;Path&gt;" class="s6" d="m-160.08-190.7q-0.08 0-0.16-0.01c-18.99-3-59.88-15.02-60.29-15.14-0.53-0.16-0.83-0.72-0.67-1.25 0.15-0.52 0.7-0.83 1.24-0.67 0.41 0.12 41.17 12.1 60.03 15.08 0.55 0.09 0.92 0.6 0.83 1.15-0.07 0.49-0.5 0.84-0.98 0.84z"/>
		</g>
		<path id="&lt;Path&gt;" class="s5" d="m-376.35-119.2c0 0 1.08 10.93-10.07 10.27 10.07 2.29 10.07 11.59 10.07 11.59 0 0 1.08-10.16 9.09-11.73-9.09 0.8-9.09-10.13-9.09-10.13z"/>
		<g id="&lt;Group&gt;">
			<g id="&lt;Group&gt;">
				<path id="&lt;Path&gt;" class="s4" d="m-186.81-158.57q-0.1 1.05-0.65 2.03l-12.82 22.75-108.01 56.33-3.19 1.68-1.68 0.86-9.35-14.77-9.9-15.64 4.7-2.43 2.03-1.05 110.18-56.91 23.7 1.28c3.19 0.18 5.32 3.01 4.99 5.87z"/>
				<path id="&lt;Path&gt;" class="s6" d="m-202.96-141.45l-113.27 59.87 3.08 6.66 112.85-58.88z"/>
				<path id="&lt;Path&gt;" class="s6" d="m-210.52-159.32l-116.99 61.72-4.9-7.74 116.9-60.39z"/>
				<path id="&lt;Path&gt;" class="s0" d="m-200.3-133.8l-6.27-8.87c-2.93-4.15-5.1-8.77-6.42-13.67l-2.52-9.39 14.83 0.81 8.88 0.48c3.93 0.21 6.26 4.47 4.33 7.89l-3.64 6.45z"/>
				<path id="&lt;Path&gt;" class="s1" d="m-310.71-74.26c0 0-2.45 1.91-6.14 3.8-7.99 4.17-21.76 8.36-28.66-6.9q-0.92-2.05-1.45-3.97c-3.12-11.35 3.96-18.67 10.35-22.74 4.5-2.89 8.65-4.2 8.65-4.2l0.25 0.51 4.11 8.11 4.45 8.74 7.67 15.13z"/>
				<path id="&lt;Path&gt;" class="s4" d="m-191.11-150.1c-7.12-3.57-9.1-10.27-9.57-14.82l8.88 0.48c3.93 0.21 6.26 4.47 4.33 7.89z"/>
			</g>
			<path id="&lt;Path&gt;" class="s7" d="m-186.81-158.57q-0.1 1.05-0.65 2.03l-12.82 22.75-108.01 56.33c0.86 2.68-0.28 5.67-2.89 7.04l-0.05 0.03c-1.82 0.95-3.94 0.86-5.62-0.07-7.99 4.17-21.76 8.36-28.66-6.9q-0.92-2.05-1.45-3.97c4.41-1.42 11.07-3.61 19.37-6.55q2.45-0.87 5.08-1.81 1.64-0.59 3.36-1.22 1.41-0.51 2.89-1.07c36.73-13.56 93-37.29 129.45-66.59z"/>
			<path id="&lt;Path&gt;" class="s5" d="m-311.18-70.42l-0.05 0.03c-1.82 0.95-3.94 0.86-5.62-0.07-0.95-0.52-1.74-1.29-2.3-2.29l-8.44-15.13-8.95-16.05q-0.03-0.07-0.07-0.14c-1.51-2.94-0.37-6.58 2.61-8.05 2.82-1.42 6.27-0.35 7.81 2.41l0.51 0.9 4.43 7.93 4.99 8.9 7.5 13.43q0.31 0.53 0.47 1.09c0.86 2.68-0.28 5.67-2.89 7.04z"/>
		</g>
	</g>
	<g id="&lt;Group&gt;">
		<path id="&lt;Path&gt;" class="s0" d="m-80.14 229.13c0 103.42-83.84 187.26-187.26 187.26-103.42 0-187.26-83.84-187.26-187.26 0-103.43 83.84-187.27 187.26-187.27 103.42 0 187.26 83.84 187.26 187.27z"/>
		<path id="&lt;Path&gt;" class="s5" d="m-120.74 143.07c0 0 2.24 22.64-20.86 21.27 20.86 4.74 20.86 24.01 20.86 24.01 0 0 2.24-21.05 18.84-24.31-18.84 1.67-18.84-20.97-18.84-20.97z"/>
		<path id="&lt;Path&gt;" class="s5" d="m-421.12 266.8c0 0 1.08 10.93-10.07 10.27 10.07 2.29 10.07 11.59 10.07 11.59 0 0 1.08-10.16 9.1-11.74-9.1 0.81-9.1-10.12-9.1-10.12z"/>
		<path id="&lt;Path&gt;" class="s6" d="m-154.04 229.13c0 62.6-50.75 113.36-113.36 113.36-62.61 0-113.36-50.76-113.36-113.36 0-62.61 50.75-113.37 113.36-113.37 62.61 0 113.36 50.76 113.36 113.37z"/>
		<g id="&lt;Group&gt;">
			<path id="&lt;Path&gt;" class="s4" d="m-156.68 201.52c-7.26 10.34-240.86 37.04-254.8 34.18-3.84-0.78-8.24-12.8-12.54-29.98-11.34-45.24-22.02-126.2-19.9-131.38 6.92-16.88 257.28-53.24 263.66-43.28 4.74 7.38 19.46 92.14 23.74 139.5 1.48 16.4 1.7 28.3-0.16 30.96z"/>
			<path id="&lt;Path&gt;" class="s8" d="m-428.3 85.63c-2.69 5.95 10.13 130.2 22.58 132.45 12.46 2.25 228.07-25.62 234.66-34.27 6.59-8.66-15.12-128.26-20.74-136.47-5.63-8.21-230.15 24.21-236.5 38.29z"/>
			<path id="&lt;Compound Path&gt;" fill-rule="evenodd" class="s5" d="m-355.52 179.81q-0.23 0-0.46-0.04c-2.74-0.42-26.81-4.56-29.48-18.04-0.91-4.59 0.73-7.19 2.27-8.57 3.83-3.44 10.79-2.57 14.84-1.66 1.05-2.39 3.02-5.71 6.44-7.8 3.25-1.98 7.05-2.45 11.3-1.39 2.73 0.68 4.75 2.38 5.83 4.9 3.9 9.13-6.09 27.5-8.13 31.08-0.54 0.95-1.54 1.52-2.61 1.52zm-19.74-23.1c-1.73 0-3.2 0.26-3.93 0.91q-0.81 0.75-0.38 2.95c1.42 7.15 15.42 11.44 22.47 12.9 4.21-7.93 8.67-19.54 6.8-23.9-0.34-0.79-0.85-1.21-1.77-1.44-2.65-0.66-4.84-0.44-6.69 0.68-3.56 2.15-4.76 6.95-4.77 6.99-0.2 0.81-0.72 1.5-1.44 1.91-0.72 0.41-1.58 0.51-2.37 0.26-2.27-0.7-5.38-1.26-7.92-1.26z"/>
			<path id="&lt;Path&gt;" class="s7" d="m-156.68 201.52c-7.26 10.34-240.86 37.04-254.8 34.18-3.84-0.78-8.24-12.8-12.54-29.98 26.82 2.98 126.94 9.62 267.42-35.14q0.04-0.01 0.08-0.02c1.48 16.4 1.7 28.3-0.16 30.96z"/>
			<path id="&lt;Path&gt;" class="s2" d="m-384.98 227.63c0 0-5.48-18.51 4.41-21.04 9.9-2.53 41.63-6.18 42.94-3.35 1.32 2.82 6.09 17.22 6.09 17.22"/>
			<g id="&lt;Group&gt;">
				<path id="&lt;Path&gt;" class="s5" d="m-385.02 124.32c-1.39 0-2.64-0.98-2.93-2.39l-5.19-25.02c-0.34-1.62 0.7-3.21 2.32-3.54 1.62-0.35 3.21 0.7 3.55 2.32l5.19 25.02c0.34 1.62-0.7 3.21-2.33 3.55q-0.3 0.06-0.61 0.06z"/>
				<path id="&lt;Path&gt;" class="s5" d="m-400.78 113.58c-1.39 0-2.64-0.97-2.94-2.38-0.34-1.63 0.7-3.22 2.32-3.56l26.43-5.58c1.63-0.33 3.21 0.7 3.56 2.32 0.34 1.62-0.7 3.21-2.32 3.55l-26.43 5.58q-0.31 0.07-0.62 0.07z"/>
				<g id="&lt;Group&gt;">
					<path id="&lt;Compound Path&gt;" fill-rule="evenodd" class="s5" d="m-277.06 144.39c-1.3 0-2.5-0.85-2.88-2.17l-18.06-62.03c-0.34-1.15 0.05-2.4 0.97-3.16 0.93-0.76 2.22-0.9 3.29-0.35l84.44 43.66c1.09 0.57 1.73 1.75 1.6 2.97-0.12 1.23-0.99 2.26-2.18 2.58l-66.38 18.39q-0.4 0.11-0.8 0.11zm-13.23-59.17l15.28 52.49 56.15-15.56z"/>
					<path id="&lt;Path&gt;" class="s5" d="m-312.67 136.54c-1.13 0-2.21-0.64-2.72-1.73-0.65-1.4-6.25-13.88-2.76-21.45 1.2-2.6 3.34-4.39 6.19-5.18 2.65-0.73 5.37-0.37 7.86 1.06 7.92 4.57 11.87 18.98 12.3 20.61 0.41 1.61-0.55 3.24-2.15 3.66-1.6 0.42-3.24-0.54-3.66-2.14-0.98-3.76-4.6-14.12-9.49-16.93-1.11-0.64-2.14-0.78-3.26-0.48-1.15 0.32-1.87 0.91-2.34 1.91-1.76 3.82 0.75 12.09 2.75 16.41 0.7 1.5 0.05 3.28-1.45 3.98q-0.63 0.28-1.27 0.28z"/>
					<path id="&lt;Path&gt;" class="s5" d="m-314.25 128.18c-1.31 0-2.52-0.88-2.89-2.2-0.44-1.6 0.5-3.25 2.09-3.69l15.83-4.39c1.6-0.44 3.25 0.5 3.69 2.09 0.44 1.6-0.49 3.25-2.09 3.7l-15.83 4.38q-0.4 0.11-0.8 0.11z"/>
					<path id="&lt;Path&gt;" class="s5" d="m-241.54 93.28c-1.68 0-3.4-0.24-5-0.9-2.46-0.99-4.3-2.84-5.35-5.34-3.38-8.13 4.03-15.37 8.93-18.37 1.42-0.86 3.26-0.42 4.13 1 0.86 1.41 0.42 3.25-1 4.12-0.16 0.1-8.74 5.61-6.52 10.94 0.43 1.03 1.09 1.7 2.06 2.09 2.97 1.21 7.85-0.3 9.47-0.99 1.53-0.64 3.29 0.07 3.94 1.59 0.64 1.52-0.06 3.28-1.58 3.93-0.6 0.26-4.68 1.93-9.08 1.93z"/>
					<path id="&lt;Compound Path&gt;" fill-rule="evenodd" class="s5" d="m-242.01 173.61c-1.34 0-2.53-0.89-2.89-2.2l-6.43-23.24c-0.4-1.44 0.31-2.95 1.68-3.55 2.47-1.09 10.89-4.46 15.52-1.93 1.63 0.88 2.69 2.4 2.99 4.28 0.48 2.97-0.24 5.5-1.32 7.5 4.12 0.78 8.08 2.93 8.88 7.69 0.31 1.9-0.17 3.73-1.39 5.29-3.85 4.92-14.68 5.99-16.81 6.15q-0.11 0.01-0.23 0.01zm-2.82-24.44l5.03 18.17c3.94-0.58 8.76-1.87 10.11-3.59 0.22-0.28 0.22-0.43 0.19-0.6-0.53-3.2-7.21-3.15-8.97-2.96-1.37 0.15-2.67-0.66-3.14-1.96-0.47-1.3 0-2.75 1.15-3.52 0.15-0.1 4.03-2.82 3.4-6.79-0.8-0.55-4.29 0.04-7.77 1.25z"/>
				</g>
			</g>
			<path id="&lt;Path&gt;" class="s3" d="m-390.71 233.19c0 0-2.51-8.8-1.33-9.94 1.18-1.14 60.95-8.95 63.68-8.54 2.72 0.4 4.34 12.17 4.34 12.17z"/>
			<path id="&lt;Path&gt;" class="s4" d="m-142.48 204.78c-0.24 2.18-1 4.76-2.34 7.66-3.64 7.88-278.22 41.98-281.86 39.78-1.52-0.9-2.66-4.18-3.5-7.7-0.38-1.7-0.7-3.44-0.94-5.02-0.46-2.94 1.6-5.7 4.54-6.1 38.72-5.34 278.96-38.4 281.7-36.38 1.88 1.38 2.86 4.02 2.4 7.76z"/>
			<path id="&lt;Path&gt;" class="s7" d="m-142.48 204.78c-0.24 2.18-1 4.76-2.34 7.66-3.64 7.88-278.22 41.98-281.86 39.78-1.52-0.9-2.66-4.18-3.5-7.7z"/>
		</g>
		<path id="&lt;Path&gt;" class="s5" d="m-187.13 272.08c2-1.48-5.24-13.76-5.24-13.76 0 0 9.99-7.66 9.71-9.9-0.34-2.66-13.94 0.27-13.94 0.27 0 0-4.26-11.59-7.52-11.78-3.27-0.19-1.84 13.43-1.84 13.43 0 0-12.06-1.08-13.54 1.32-1.49 2.39 9.81 8.39 9.81 8.39 0 0-3.06 11.39-1.17 13.04 1.89 1.65 10.27-7.91 10.27-7.91 0 0 10.69 8.95 13.46 6.9z"/>
		<g id="&lt;Group&gt;">
			<path id="&lt;Path&gt;" class="s3" d="m-305.59 300.26q1.24 2.11 2.35 4.34c2.81 5.5 5.15 11.4 6.81 17.45 0.48 1.88 0.95 3.76 1.28 5.66 2.39 12.26 1.63 24.98-4.34 36.38-7.2 13.92-22.08 25.94-48.38 33.07q-4.26 1.15-8.39 1.68 0.01-0.01-0.02 0.01c-3.26 0.46-6.39 0.57-9.43 0.43-2.8-0.12-5.48-0.44-8.09-1.03-1.64-0.3-3.26-0.74-4.8-1.26-16.03-5.14-27.84-18.31-34.44-34.11q-1.72-4.08-2.9-8.37-0.72-2.38-1.22-4.84c-1.18-5.22-1.79-10.55-1.83-15.88-0.04-2.38 0.06-4.76 0.3-7.06 1.19-13.91 6.44-26.97 16.26-36.22 18.11-16.98 39.55-20.78 57.75-17.33q2.86 0.52 5.64 1.34c6.02 1.68 11.56 4.14 16.34 7.18q2.2 1.35 4.11 2.87c3.88 2.97 7.08 6.31 9.41 9.82q1.89 2.84 3.59 5.87z"/>
			<path id="&lt;Compound Path&gt;" fill-rule="evenodd" class="s7" d="m-330.63 320.16q-3.44 2.79-6.55 5.82c6.03 8.3 8.94 17.65 8.34 27.21-0.96 15.13-10.15 30.41-27.4 45.65q0 0-0.03 0.01-4.89 0.66-9.45 0.42c19.54-15.74 30.24-31.56 31.18-46.44 0.57-9.11-2.48-16.68-6.68-22.7-18.38 20.03-27.79 46.03-32.58 68.12-1.64-0.3-3.26-0.74-4.8-1.26 3.08-14.15 7.53-27.49 13.14-39.2 5.83-12.19 12.93-22.72 21.19-31.56-1.78-2.05-3.64-3.86-5.47-5.44-6.23 4.97-12.77 9.39-19.37 13.27-16.62 9.79-33.58 16.3-46.83 20.45q-0.72-2.38-1.22-4.84c17.77-5.57 42.29-15.48 63.29-31.94-19-11.57-46.92 3.31-65.13 16.05-0.02-2.38 0.06-4.74 0.3-7.06 19.96-13.3 49-27.03 69.47-12.79q3.59-3.06 6.97-6.4c-5.8-11.28-4.55-24.78-2.41-34.35q2.86 0.54 5.62 1.33c-1.8 8.14-2.91 19.24 1.05 28.58 5.84-6.39 11.05-13.49 15.3-21.39q2.2 1.35 4.11 2.87c-4.67 8.6-10.44 16.28-16.89 23.13q0.48 0.73 1.01 1.43 1.92 2.46 4.42 4.45c7.48-5.51 15.63-9.98 24.46-13.31q1.24 2.1 2.35 4.33c-8.4 3.09-15.86 7.1-22.49 11.82q10.83 5.93 29.3 5.62c0.49 1.89 0.94 3.77 1.29 5.68-15.09 0.41-26.95-2.13-35.49-7.56zm-4.02-2.98q-2.41-2.06-4.34-4.52-0.3-0.4-0.58-0.81-2.8 2.72-5.72 5.25 2.74 2.43 5.04 5.04 2.72-2.59 5.6-4.96z"/>
			<path id="&lt;Path&gt;" class="s7" d="m-299.48 364.09c-7.2 13.91-22.1 25.93-48.38 33.06q-4.28 1.17-8.38 1.69 0 0-0.03 0.01c-3.27 0.45-6.41 0.57-9.45 0.42-22.63-0.94-39.09-16.61-47.31-36.4 20.7 11.41 60.74 24.88 113.55 1.22z"/>
		</g>
		<path id="&lt;Path&gt;" class="s5" d="m-301.54 249.83c0 0 1.39 13.95-12.85 13.1 12.85 2.93 12.85 14.8 12.85 14.8 0 0 1.39-12.97 11.61-14.98-11.61 1.03-11.61-12.92-11.61-12.92z"/>
		<g id="&lt;Group&gt;">
			<path id="&lt;Compound Path&gt;" fill-rule="evenodd" class="s2" d="m-78.1 288.13l-80.86 27.62-25.12 1.17-81.7 38.24c0 0-20.82-34.29 12.69-53.48 33.51-19.19 56.46-2.71 56.46-2.71l25.19-6.71 91.72-11.09c4.3-0.52 5.68 5.57 1.62 6.96zm-131.99 28.01c0 0-12.7-14.86-29.8-7.03-17.11 7.8-14.34 26.72-14.34 26.72z"/>
			<path id="&lt;Compound Path&gt;" fill-rule="evenodd" class="s3" d="m-107.32 238.74l-45.08 63.74-6.56 13.27c0 0 16.57 35.57-11.22 62.72-32.73 32.01-62.29-0.31-62.29-0.31l48.39-61.24-12.55-17.95 82.45-66.77c4.36-3.52 10.17 2.03 6.86 6.54zm-73.6 93.99l-27.58 37.26c0 0 19.54 10.38 32.84-6.78 13.28-17.13-5.26-30.48-5.26-30.48z"/>
			<path id="&lt;Path&gt;" class="s1" d="m-166.82 300.92c1.4 3.66-0.42 7.75-4.08 9.15-3.65 1.4-7.74-0.42-9.14-4.07-1.41-3.65 0.42-7.75 4.07-9.15 3.65-1.4 7.74 0.42 9.15 4.07z"/>
			<path id="&lt;Path&gt;" class="s5" d="m-169.99 302.14c0.73 1.9-0.22 4.03-2.12 4.76-1.9 0.73-4.04-0.21-4.77-2.12-0.73-1.9 0.22-4.03 2.12-4.76 1.91-0.73 4.04 0.22 4.77 2.12z"/>
		</g>
		<path id="&lt;Path&gt;" class="s5" d="m-257.33 266.8c0 0 1.08 10.93-10.07 10.27 10.07 2.29 10.07 11.59 10.07 11.59 0 0 1.08-10.16 9.09-11.74-9.09 0.81-9.09-10.12-9.09-10.12z"/>
		<path id="&lt;Path&gt;" class="s5" d="m-276.71 372.58c0 0 1.09 10.93-10.06 10.27 10.06 2.29 10.06 11.59 10.06 11.59 0 0 1.09-10.16 9.1-11.73-9.1 0.8-9.1-10.13-9.1-10.13z"/>
	</g>
	<g id="&lt;Group&gt;">
		<path id="&lt;Path&gt;" class="s0" d="m384.66-225.13c0 103.43-83.84 187.27-187.26 187.27-103.42 0-187.26-83.84-187.26-187.27 0-103.42 83.84-187.26 187.26-187.26 103.42 0 187.26 83.84 187.26 187.26z"/>
		<path id="&lt;Path&gt;" class="s8" d="m310.76-225.13c0 62.61-50.75 113.37-113.36 113.37-62.61 0-113.36-50.76-113.36-113.37 0-62.6 50.75-113.36 113.36-113.36 62.61 0 113.36 50.76 113.36 113.36z"/>
		<g id="&lt;Group&gt;">
			<g id="&lt;Group&gt;">
				<g id="&lt;Group&gt;">
					<path id="&lt;Path&gt;" class="s3" d="m397.43-316.87l-35.44 8.88-28.73 7.21-25.09 6.27-73.46 18.43-25.29 6.34-29.91 7.49-33.06 8.3c0 0-2.76-9.07-4.63-23.03-5.13-38.53-3.37-114.49 82.08-141.6 81.49-25.84 133.92 34.32 158.04 72.75 10.36 16.47 15.49 28.96 15.49 28.96z"/>
					<path id="&lt;Path&gt;" class="s1" d="m362-307.98l-28.74 7.2-25.1 6.28-73.44 18.43-25.3 6.32-29.9 7.5c-4.45-21.22-15.85-100.95 56.07-125.35 80.2-27.23 119.53 62.02 126.41 79.62z"/>
					<path id="&lt;Path&gt;" class="s8" d="m333.26-300.78l-25.1 6.28-73.44 18.43-25.3 6.32c-2.96-16.85-6.1-74.99 40.26-89.69 47.44-15.05 75.58 42.92 83.58 58.66z"/>
					<path id="&lt;Path&gt;" class="s6" d="m308.16-294.5l-73.44 18.43c-1.94-13.23-2.02-38.72 23.44-46.94 25.81-8.34 42.84 15.47 50 28.51z"/>
				</g>
			</g>
			<path id="&lt;Path&gt;" class="s7" d="m397.43-316.87l-35.44 8.88-28.73 7.21-25.09 6.27-73.46 18.43-25.29 6.34-29.91 7.49-33.06 8.3c0 0-2.76-9.07-4.63-23.03 30.51 1.79 142.65 2.27 240.12-68.85 10.36 16.47 15.49 28.96 15.49 28.96z"/>
		</g>
		<path id="&lt;Path&gt;" class="s5" d="m313.44-107.95c0.4-2.46-13.35-6.21-13.35-6.21 0 0 1.83-12.46 0.07-13.87-2.09-1.68-9.81 9.9-9.81 9.9 0 0-11.13-5.34-13.6-3.2-2.48 2.13 8.03 10.91 8.03 10.91 0 0-9.39 7.63-8.79 10.38 0.61 2.75 12.89-0.82 12.89-0.82 0 0 5.74 10.3 8.24 10.17 2.51-0.13 1.86-12.83 1.86-12.83 0 0 13.9-1.03 14.46-4.43z"/>
		<path id="&lt;Path&gt;" class="s5" d="m50.68-199.83c0 0 2.24 22.63-20.86 21.26 20.86 4.74 20.86 24.01 20.86 24.01 0 0 2.24-21.04 18.84-24.3-18.84 1.66-18.84-20.97-18.84-20.97z"/>
		<path id="&lt;Path&gt;" class="s5" d="m77.78-328.41c0 0 1.09 10.92-10.06 10.26 10.06 2.29 10.06 11.59 10.06 11.59 0 0 1.09-10.16 9.1-11.73-9.1 0.8-9.1-10.12-9.1-10.12z"/>
		<path id="&lt;Path&gt;" class="s5" d="m362.48-225.81c0 0 1.08 10.93-10.07 10.27 10.07 2.28 10.07 11.58 10.07 11.58 0 0 1.08-10.15 9.1-11.73-9.1 0.81-9.1-10.12-9.1-10.12z"/>
		<path id="&lt;Path&gt;" class="s5" d="m228.87-258.57c0 0 1.62 16.3-15.01 15.31 15.01 3.42 15.01 17.29 15.01 17.29 0 0 1.62-15.15 13.57-17.5-13.57 1.2-13.57-15.1-13.57-15.1z"/>
		<path id="&lt;Path&gt;" class="s5" d="m118.92-371.55c0 0 1.08 10.92-10.07 10.26 10.07 2.29 10.07 11.59 10.07 11.59 0 0 1.08-10.16 9.09-11.73-9.09 0.8-9.09-10.12-9.09-10.12z"/>
		<g id="&lt;Group&gt;">
			<g id="&lt;Group&gt;">
				<path id="&lt;Path&gt;" class="s3" d="m378.06-124.75l-252.05-56.66 1.82-7.12 6.47-25.45c1.21-4.74 5.94-7.69 10.72-6.68l15.81 3.33 2.94 0.63 23.3 4.92 2.98 0.63 23.3 4.89 2.94 0.63 23.33 4.93 2.91 0.63 23.33 4.92 2.94 0.6 23.3 4.93 2.97 0.62 23.28 4.93 2.96 0.6 23.31 4.93 2.94 0.63 23.33 4.92 2.94 0.6 4.69 0.99c4.92 1.05 8.07 5.87 7.04 10.8l-5.6 26.82z"/>
				<path id="&lt;Path&gt;" class="s2" d="m378.07-124.76l-252.07-56.65 1.82-7.14 252.14 54.79z"/>
			</g>
			<path id="&lt;Path&gt;" class="s2" d="m371.06-155.54l-2.96-0.51 2.79-16.94 2.94 0.6z"/>
			<path id="&lt;Path&gt;" class="s2" d="m344.94-161.98l-2.96-0.48 2.64-16.08 2.94 0.63z"/>
			<path id="&lt;Path&gt;" class="s2" d="m318.86-168.39l-3-0.5 2.49-15.18 2.96 0.6z"/>
			<path id="&lt;Path&gt;" class="s2" d="m292.74-174.83l-2.99-0.47 2.35-14.32 2.97 0.63z"/>
			<path id="&lt;Path&gt;" class="s2" d="m266.62-181.24l-2.96-0.51 2.2-13.4 2.94 0.6z"/>
			<path id="&lt;Path&gt;" class="s2" d="m240.51-187.68l-2.96-0.47 2.07-12.55 2.91 0.63z"/>
			<path id="&lt;Path&gt;" class="s2" d="m214.42-194.12l-2.99-0.47 1.92-11.67 2.94 0.63z"/>
			<path id="&lt;Path&gt;" class="s2" d="m188.3-200.53l-2.99-0.5 1.76-10.75 2.98 0.63z"/>
			<path id="&lt;Path&gt;" class="s2" d="m162.18-206.97l-2.96-0.47 1.61-9.89 2.94 0.63z"/>
		</g>
		<g id="&lt;Group&gt;">
			<g id="&lt;Group&gt;">
				<path id="&lt;Path&gt;" class="s1" d="m226.44-66.22c25.8-19.71 22.88-70.56-23.64-69.51-46.51 1.06-45.61 37.31-41.79 50.34 6.58 22.47 44.17 35.41 65.43 19.17z"/>
			</g>
			<path id="&lt;Path&gt;" class="s4" d="m205.43-95.41c4.84-3.7 4.29-13.23-4.43-13.04-8.72 0.2-8.55 7-7.84 9.44 1.23 4.22 8.28 6.65 12.27 3.6z"/>
		</g>
		<g id="&lt;Group&gt;">
			<path id="&lt;Path&gt;" class="s3" d="m124.46-109.65c-5.07-3.15-56.01-19.25-61.3-17.62-5.29 1.64-17.5 61.42-12.17 67.05 5.32 5.62 55.29 13.47 60.02 11.66 4.74-1.81 20.05-56.99 13.45-61.09z"/>
			<path id="&lt;Path&gt;" class="s4" d="m71.47-104.91c0.87 3.53 6.23 5.5 8.2 0.68 1.97-4.83-1.79-6.35-3.3-6.54-2.61-0.33-5.62 2.95-4.9 5.86z"/>
			<path id="&lt;Path&gt;" class="s4" d="m104.39-98.48c0.87 3.53 6.23 5.5 8.2 0.68 1.97-4.83-1.79-6.36-3.3-6.55-2.6-0.33-5.61 2.96-4.9 5.87z"/>
			<path id="&lt;Path&gt;" class="s4" d="m65.39-76.7c0.87 3.53 6.22 5.5 8.19 0.68 1.97-4.83-1.79-6.36-3.3-6.55-2.6-0.33-5.61 2.96-4.89 5.87z"/>
			<path id="&lt;Path&gt;" class="s4" d="m98.31-70.28c0.87 3.53 6.22 5.51 8.19 0.68 1.97-4.82-1.79-6.35-3.3-6.54-2.6-0.33-5.61 2.95-4.89 5.86z"/>
		</g>
		<g id="&lt;Group&gt;">
			<path id="&lt;Path&gt;" class="s6" d="m336.13-197.14c6.55-9.49 10.64-72.71 6.06-79.85-4.59-7.13-75.85 23.37-78.02 33.38-2.18 10.01 65.05 56.47 71.96 46.47z"/>
			<path id="&lt;Path&gt;" class="s4" d="m287.69-237.92c1.54 3.9 7.96 5.33 9.47-0.49 1.51-5.81-3.02-6.98-4.78-6.97-3.02 0.03-5.96 4.24-4.69 7.46z"/>
			<path id="&lt;Path&gt;" class="s4" d="m316.74-221.48c1.53 3.9 7.95 5.34 9.47-0.48 1.51-5.82-3.03-6.98-4.78-6.97-3.03 0.03-5.96 4.24-4.69 7.45z"/>
			<path id="&lt;Path&gt;" class="s4" d="m319.53-252.17c1.54 3.9 7.96 5.33 9.47-0.48 1.51-5.82-3.02-6.98-4.78-6.97-3.02 0.02-5.96 4.24-4.69 7.45z"/>
		</g>
		<path id="&lt;Path&gt;" class="s5" d="m69.72-283.2c-3.54 2.47-35.76 29.85-32.04 38.44 3.72 8.58 21.39 37.18 26.49 40.01 5.09 2.83 46.34-4.54 49.14-8.86 2.8-4.33 16.97-43.19 11.55-48.84-5.43-5.65-49.63-24.62-55.14-20.75z"/>
		<path id="&lt;Path&gt;" class="s4" d="m72.68-267c-2.54 3.59-0.11 10.06 5.87 8.05 5.99-2.02 4.41-6.68 3.39-8.21-1.76-2.65-7.16-2.81-9.26 0.16z"/>
		<path id="&lt;Path&gt;" class="s4" d="m56.77-245.33c-2.54 3.59-0.11 10.07 5.87 8.05 5.99-2.01 4.41-6.67 3.39-8.21-1.76-2.65-7.16-2.81-9.26 0.16z"/>
		<path id="&lt;Path&gt;" class="s4" d="m72.68-228.25c-2.54 3.6-0.11 10.07 5.87 8.05 5.99-2.01 4.41-6.67 3.39-8.21-1.76-2.64-7.16-2.8-9.26 0.16z"/>
		<path id="&lt;Path&gt;" class="s4" d="m94.12-233.56c-2.55 3.6-0.11 10.07 5.87 8.05 5.99-2.01 4.41-6.67 3.38-8.21-1.76-2.64-7.15-2.8-9.25 0.16z"/>
		<path id="&lt;Path&gt;" class="s4" d="m96.41-256.39c-2.54 3.6-0.11 10.07 5.87 8.05 5.99-2.01 4.41-6.67 3.39-8.21-1.76-2.64-7.16-2.8-9.26 0.16z"/>
	</g>
	<g id="&lt;Group&gt;">
		<path id="&lt;Path&gt;" class="s0" d="m384.66 223.13c0 103.42-83.84 187.26-187.26 187.26-103.42 0-187.26-83.84-187.26-187.26 0-103.43 83.84-187.27 187.26-187.27 103.42 0 187.26 83.84 187.26 187.27z"/>
		<path id="&lt;Path&gt;" class="s3" d="m310.76 222.13c0 62.6-50.75 113.36-113.36 113.36-62.61 0-113.36-50.76-113.36-113.36 0-62.61 50.75-113.37 113.36-113.37 62.61 0 113.36 50.76 113.36 113.37z"/>
		<path id="&lt;Path&gt;" class="s5" d="m138.95 108.24c2.01-1.48-5.24-13.76-5.24-13.76 0 0 10-7.66 9.71-9.9-0.33-2.66-13.93 0.27-13.93 0.27 0 0-4.26-11.59-7.53-11.78-3.26-0.19-1.84 13.43-1.84 13.43 0 0-12.05-1.08-13.53 1.32-1.49 2.39 9.81 8.39 9.81 8.39 0 0-3.07 11.39-1.17 13.04 1.89 1.65 10.26-7.91 10.26-7.91 0 0 10.7 8.95 13.46 6.9z"/>
		<path id="&lt;Path&gt;" class="s5" d="m46.08 153.78c0 0 1.09 10.93-10.06 10.27 10.06 2.29 10.06 11.59 10.06 11.59 0 0 1.09-10.16 9.1-11.74-9.1 0.81-9.1-10.12-9.1-10.12z"/>
		<path id="&lt;Path&gt;" class="s5" d="m113.13 351.23c0 0 1.08 10.92-10.07 10.26 10.07 2.29 10.07 11.59 10.07 11.59 0 0 1.08-10.16 9.1-11.73-9.1 0.8-9.1-10.12-9.1-10.12z"/>
		<path id="&lt;Path&gt;" class="s5" d="m317.39 298.18c0 0 1.09 10.93-10.07 10.27 10.07 2.29 10.07 11.59 10.07 11.59 0 0 1.09-10.16 9.1-11.73-9.1 0.8-9.1-10.13-9.1-10.13z"/>
		<g id="&lt;Group&gt;">
			<path id="&lt;Path&gt;" class="s8" d="m286.13 28.8c0 0 5.24-28.57 32.56-18.34 27.33 10.23 14.07 45.62 14.07 45.62l-12.39-7.01c0 0 12.82-25.65-4.12-30.48-13.06-3.73-20.21 13.04-20.21 13.04"/>
			<path id="&lt;Path&gt;" class="s6" d="m324.95 251.17c-77.29 14.41-32.3-9.04-3.15-22.4 10.45-4.8 18.86-8.31 18.86-8.31 0 0 25.78-8.74 36.44-45.52 10.63-36.76-9.85-86.01-40-80.16l-0.83-7.37-2.12-18.79c5.35-1.15 28.75-7.93 43.98 7.84 15.25 15.77 51.85 155.11-53.18 174.71z"/>
			<path id="&lt;Path&gt;" class="s6" d="m269.74 23.78c0 0-8.57-35.82-48.65-20.24-40.08 15.57-83.16 128.61-57.57 166.78 25.59 38.17 5.84-22.73 5.84-22.73 0 0 3.82-67.23 28.07-104.02 20.2-30.66 43.36-19.08 43.36-19.08"/>
			<path id="&lt;Path&gt;" class="s7" d="m320.7 240.22l1.1-11.45c10.45-4.8 18.86-8.31 18.86-8.31 0 0 25.78-8.74 36.44-45.52 10.63-36.76-9.85-86.01-40-80.16l-0.83-7.37c5.6-1.07 33.3-4.92 43.48 21.49 11.33 29.46 14.6 106.05-59.05 131.32z"/>
			<g id="&lt;Group&gt;">
				<path id="&lt;Path&gt;" class="s1" d="m337.01 258.54c-5.34 12.65-11.67 21.86-18.97 25.68-40.3 21.12-178.19-9.41-175.56-72.56q0.21-5 0.91-10.38c8.3-64.43 66.47-167.01 86.12-183 25.65-20.88 102.26 20.67 117.43 36.59 18.09 18.96 14.19 146.5-9.93 203.67z"/>
			</g>
			<path id="&lt;Path&gt;" class="s3" d="m240.23 71.66c0 0-9.62-20.73-1.13-28.23 8.5-7.49 13.01 5.44 13.01 5.44 0 0 11.04-3.38 14.3 7.88 3.27 11.26-26.18 14.91-26.18 14.91z"/>
			<path id="&lt;Path&gt;" class="s6" d="m337.01 258.54c-5.34 12.65-11.67 21.86-18.97 25.68-40.3 21.12-178.19-9.41-175.56-72.56q0.21-5 0.91-10.38c19 23.71 71.89 68.93 193.62 57.26z"/>
			<path id="&lt;Path&gt;" class="s4" d="m340.38 165.8q-0.19 0-0.39-0.04c-1.08-0.21-1.79-1.26-1.57-2.35 6.64-33.35 3.7-85.41-5.52-97.73-4.49-6.01-22.55-17.12-42.93-26.41-22.58-10.29-41.19-15.22-48.58-12.87-17.06 5.42-39.79 56.86-40.02 57.38-0.44 1.01-1.62 1.47-2.64 1.03-1.01-0.44-1.47-1.62-1.02-2.64 0.96-2.18 23.7-53.62 42.47-59.59 18.55-5.87 85.48 26.75 95.93 40.71 9.91 13.24 13.17 66.05 6.23 100.9-0.19 0.95-1.02 1.61-1.96 1.61z"/>
			<path id="&lt;Path&gt;" class="s5" d="m343.61 138.11c-8.15-0.11-11.25 12.75-1.35 13.86 9.9 1.1 10.81-13.72 1.35-13.86z"/>
			<path id="&lt;Compound Path&gt;" fill-rule="evenodd" class="s5" d="m347.07 181.03c-0.82 3.19-18.98-0.5-19.52-4.98-0.53-4.47 12.73-28.22 12.73-28.22l5.88-0.64c0 0 1.73 30.65 0.91 33.84zm-4.39-10.86l-7.33-0.65-1.78 4.27 8.56 2.62z"/>
			<path id="&lt;Path&gt;" class="s9" d="m280.8 269.14c-22.8 14.37-127.9-20.74-123.57-54.84 3.71-29.37 17.8-74.59 29.29-89.48 1.85-2.41 3.64-4.03 5.3-4.65 15.59-5.94 112.1 32.28 115.69 41.3q0.32 0.79 0.52 2.31c2.15 16.28-5.76 91.82-27.23 105.36z"/>
			<path id="&lt;Path&gt;" class="s10" d="m308.03 163.78c-26.09 12.93-81.15 39.15-90.18 34.92-9.36-4.41-25.58-52.94-31.33-73.88 1.85-2.41 3.64-4.03 5.3-4.65 15.59-5.94 112.1 32.28 115.69 41.3q0.32 0.79 0.52 2.31z"/>
			<path id="&lt;Path&gt;" class="s4" d="m217.22 199.23l-0.6-0.53c-16.45-14.4-31.41-70.97-32.04-73.38-0.28-1.06 0.36-2.16 1.43-2.44 1.08-0.27 2.16 0.36 2.44 1.43 0.15 0.57 14.89 56.34 30.21 70.84 23.99-1.65 87.84-32.85 88.48-33.16 1-0.5 2.2-0.08 2.68 0.91 0.49 0.99 0.08 2.19-0.91 2.68-2.72 1.33-66.73 32.6-90.89 33.61z"/>
			<path id="&lt;Path&gt;" class="s5" d="m229.11 195.97c-0.45 5.13-4.98 8.93-10.12 8.48-5.13-0.46-8.93-4.98-8.48-10.12 0.45-5.14 4.98-8.93 10.12-8.48 5.13 0.45 8.93 4.98 8.48 10.12z"/>
			<path id="&lt;Path&gt;" class="s3" d="m322.79 119.2c-0.91 10.23-9.93 17.8-20.17 16.9-10.23-0.9-17.8-9.93-16.9-20.16 0.9-10.24 9.93-17.8 20.16-16.9 10.24 0.9 17.81 9.92 16.91 20.16z"/>
			<path id="&lt;Path&gt;" class="s4" d="m301.74 111.26c-0.18 2.14-2.07 3.72-4.22 3.53-2.14-0.19-3.72-2.07-3.53-4.22 0.19-2.14 2.08-3.72 4.22-3.53 2.14 0.19 3.72 2.07 3.53 4.22z"/>
			<path id="&lt;Path&gt;" class="s4" d="m316.34 113.68c-0.19 2.14-2.08 3.72-4.22 3.54-2.14-0.19-3.72-2.08-3.53-4.22 0.18-2.14 2.07-3.73 4.21-3.54 2.15 0.19 3.73 2.08 3.54 4.22z"/>
			<path id="&lt;Path&gt;" class="s4" d="m305.26 127.9c-5.84 0-10.45-3.68-12.54-6.41-0.67-0.88-0.5-2.13 0.37-2.8 0.88-0.68 2.13-0.51 2.8 0.36 0.29 0.38 6.64 8.34 15.42 3 0.95-0.57 2.18-0.27 2.75 0.67 0.58 0.94 0.28 2.17-0.67 2.75-2.87 1.74-5.62 2.43-8.13 2.43z"/>
		</g>
		<g id="&lt;Group&gt;">
			<g id="&lt;Group&gt;">
				<g id="&lt;Group&gt;">
					<path id="&lt;Path&gt;" class="s8" d="m28.78 365.68c-3.26-5.73 25.65-86.86 25.65-86.86l-14.72-45.27-6.94-21.28-0.62-1.92 26.89-11.02 2.27 5.89 7.65 19.78 16.28 42.17c0 0 74.05 35.74 75.51 47.55 1.44 11.83-128.71 56.71-131.97 50.96z"/>
				</g>
				<path id="&lt;Path&gt;" class="s10" d="m68.96 225l-29.25 8.55-6.94-21.28 28.54-7.05z"/>
				<path id="&lt;Path&gt;" class="s8" d="m22.43 219.46c6.13 15.97 58.67-5.44 52.53-19.03-6.14-13.59-59.22 1.6-52.53 19.03z"/>
				<path id="&lt;Path&gt;" class="s7" d="m145.67 313.84c-0.37 4.31-101.48 39.31-101.54 35.89-0.02-1.25 2.06-10.64 4.73-22.1 4.68-20.16 11.15-46.7 11.15-46.7l23.12-7.14c0 0 15.77 9.47 29.52 17.57 15.98 9.42 33.22 20.16 33.02 22.48z"/>
				<g id="&lt;Group&gt;">
					<path id="&lt;Path&gt;" class="s1" d="m145.67 313.84c-0.37 4.31-101.48 39.31-101.54 35.89-0.02-1.25 2.06-10.64 4.73-22.1 7.17 1.14 19.03 1.21 31.42-6.33 11.69-7.1 20.51-20.57 32.37-29.94 15.98 9.42 33.22 20.16 33.02 22.48z"/>
				</g>
				<g id="&lt;Group&gt;">
					<path id="&lt;Path&gt;" class="s1" d="m91.84 295.64c-0.36 1.85-2.16 3.04-4 2.68-1.84-0.37-3.04-2.16-2.67-4 0.37-1.85 2.16-3.04 4-2.68 1.84 0.37 3.04 2.16 2.67 4z"/>
				</g>
				<g id="&lt;Group&gt;">
					<path id="&lt;Path&gt;" class="s1" d="m79.37 309.98c-0.48 2.39-2.81 3.95-5.2 3.47-2.4-0.48-3.96-2.81-3.48-5.2 0.48-2.4 2.81-3.95 5.2-3.48 2.4 0.48 3.96 2.81 3.48 5.21z"/>
				</g>
				<g id="&lt;Group&gt;">
					<path id="&lt;Path&gt;" class="s1" d="m75.89 292.47c-0.37 1.84-2.16 3.04-4 2.67-1.84-0.37-3.04-2.16-2.67-4 0.36-1.84 2.16-3.04 4-2.67 1.84 0.36 3.04 2.16 2.67 4z"/>
				</g>
				<path id="&lt;Path&gt;" class="s5" d="m45.77 208.01c2.23 3.46 21-0.12 19.58-5.28-1.41-5.16-21.82 1.81-19.58 5.28z"/>
			</g>
			<path id="&lt;Path&gt;" class="s4" d="m114.5 318.21c-0.77 0-1.51-0.46-1.84-1.21-0.43-1.02 0.04-2.2 1.06-2.63l22.61-9.68c1.02-0.44 2.19 0.04 2.63 1.05 0.43 1.02-0.04 2.19-1.05 2.63l-22.62 9.68q-0.39 0.16-0.79 0.16z"/>
			<path id="&lt;Path&gt;" class="s4" d="m108.86 307.31c-0.79 0-1.53-0.47-1.85-1.25-0.42-1.02 0.07-2.19 1.09-2.6l16.08-6.57c1.03-0.42 2.19 0.08 2.61 1.1 0.42 1.02-0.07 2.19-1.09 2.61l-16.08 6.56q-0.38 0.15-0.76 0.15z"/>
			<path id="&lt;Path&gt;" class="s4" d="m100.44 297.78c-0.82 0-1.59-0.5-1.88-1.32-0.38-1.03 0.16-2.18 1.2-2.56l12.2-4.42c1.04-0.37 2.19 0.16 2.57 1.2 0.37 1.04-0.17 2.19-1.2 2.56l-12.21 4.42q-0.34 0.12-0.68 0.12z"/>
		</g>
		<g id="&lt;Group&gt;">
			<path id="&lt;Path&gt;" class="s6" d="m314.73 347.17c-1.16 2.36-7.96 3.48-14.46 4-6.42 0.52-12.54 0.46-12.54 0.46l-8.58-3.54-4.88-2.02-7.64-3.16-5.88-2.44-61.96-25.64c-3-1.26-4.28-4.84-2.72-7.7l3.88-7.1 4.28-7.82c1.3-2.4 4.2-3.48 6.76-2.48l62.88 24.18 5.6 2.14 6.38 2.46 4.26 1.64 5.82 2.24c0 0 21.12 20.1 18.8 24.78z"/>
			<path id="&lt;Path&gt;" class="s7" d="m295.93 322.39l-8.2 29.24-8.58-3.54-4.88-2.02-7.64-3.16-5.88-2.44-61.96-25.64c-3-1.26-4.28-4.84-2.72-7.7l3.88-7.1 4.28-7.82c1.3-2.4 4.2-3.48 6.76-2.48l62.88 24.18 5.6 2.14 6.38 2.46 4.26 1.64z"/>
			<path id="&lt;Path&gt;" class="s5" d="m266.63 342.91l-5.89-2.43 13.14-26.57 5.59 2.15z"/>
			<path id="&lt;Path&gt;" class="s7" d="m300.26 351.18c-6.42 0.5-12.54 0.46-12.54 0.46l-8.58-3.56-4.87-2.02-7.64-3.15-5.89-2.43-61.95-25.66c-3.01-1.25-4.27-4.82-2.71-7.68l3.87-7.11c18.72 10.49 72.28 40.05 100.31 51.15z"/>
		</g>
		<g id="&lt;Group&gt;">
			<path id="&lt;Path&gt;" class="s3" d="m66.1 109.27c2.41-1.06 8.33 2.47 13.64 6.26 5.24 3.74 9.88 7.73 9.88 7.73l4.28 8.24 2.43 4.69 3.8 7.34 2.92 5.66 30.85 59.54c1.48 2.89 0.15 6.46-2.89 7.64l-7.54 2.92-8.31 3.22c-2.55 1-5.46-0.04-6.77-2.46l-32.49-59.02-2.9-5.24-3.29-6-2.2-4-3.01-5.46c0 0-3.19-28.98 1.6-31.06z"/>
			<path id="&lt;Path&gt;" class="s7" d="m64.5 140.33l25.12-17.07 4.28 8.24 2.43 4.69 3.8 7.34 2.92 5.66 30.85 59.54c1.48 2.89 0.15 6.46-2.89 7.64l-7.54 2.92-8.31 3.22c-2.55 1-5.46-0.04-6.77-2.46l-32.49-59.02-2.9-5.24-3.29-6-2.2-4z"/>
			<path id="&lt;Path&gt;" class="s5" d="m100.13 143.53l2.93 5.65-27.17 11.85-2.88-5.25z"/>
			<path id="&lt;Path&gt;" class="s7" d="m79.75 115.53c5.23 3.75 9.88 7.73 9.88 7.73l4.27 8.25 2.42 4.69 3.81 7.33 2.93 5.65 30.83 59.55c1.5 2.9 0.15 6.45-2.88 7.63l-7.55 2.93c-7.54-20.08-29.44-77.21-43.71-103.76z"/>
		</g>
		<g id="&lt;Group&gt;">
			<path id="&lt;Path&gt;" class="s1" d="m267.01 363.15c-0.04 2.63-5.7 6.55-11.35 9.8-5.58 3.22-11.14 5.79-11.14 5.79l-9.27 0.47-5.27 0.27-8.26 0.41-6.36 0.31-66.97 3.36c-3.25 0.15-5.94-2.54-5.75-5.79l0.46-8.08 0.52-8.9c0.15-2.72 2.31-4.94 5.05-5.13l67.18-5.08 5.97-0.46 6.82-0.51 4.55-0.34 6.22-0.47c0 0 27.7 9.12 27.6 14.35z"/>
			<path id="&lt;Path&gt;" class="s9" d="m239.41 348.8l5.11 29.94-9.27 0.47-5.27 0.27-8.26 0.41-6.36 0.31-66.97 3.36c-3.25 0.15-5.94-2.54-5.75-5.79l0.46-8.08 0.52-8.9c0.15-2.72 2.31-4.94 5.05-5.13l67.18-5.08 5.97-0.46 6.82-0.51 4.55-0.34z"/>
			<path id="&lt;Path&gt;" class="s5" d="m221.72 379.89l-6.36 0.32 0.49-29.63 5.98-0.45z"/>
			<path id="&lt;Path&gt;" class="s7" d="m255.65 372.96c-5.58 3.21-11.13 5.79-11.13 5.79l-9.28 0.46-5.27 0.26-8.25 0.42-6.36 0.32-66.97 3.34c-3.25 0.16-5.93-2.53-5.74-5.78l0.46-8.08c21.4 1.47 82.46 5.24 112.54 3.27z"/>
		</g>
		<path id="&lt;Path&gt;" class="s5" d="m135.51 234.14c0 0 2.24 22.64-20.86 21.27 20.86 4.74 20.86 24.01 20.86 24.01 0 0 2.24-21.05 18.84-24.31-18.84 1.67-18.84-20.97-18.84-20.97z"/>
	</g>
</svg>