<svg width="824" height="858" viewBox="0 0 824 858" fill="none" xmlns="http://www.w3.org/2000/svg">
<path d="M448.694 100.148C448.764 98.1381 449.599 96.2306 451.027 94.8148C452.441 93.385 454.351 92.553 456.361 92.4907C457.235 92.4452 458.058 92.0658 458.661 91.4309C459.264 90.796 459.6 89.954 459.6 89.0787C459.6 88.2033 459.264 87.3613 458.661 86.7264C458.058 86.0915 457.235 85.7122 456.361 85.6666C454.353 85.5911 452.448 84.7604 451.026 83.3406C449.605 81.9209 448.772 80.0168 448.694 78.0092C448.694 77.1055 448.335 76.2388 447.696 75.5998C447.057 74.9608 446.19 74.6018 445.287 74.6018C444.383 74.6018 443.516 74.9608 442.877 75.5998C442.238 76.2388 441.879 77.1055 441.879 78.0092C441.806 80.0182 440.974 81.9248 439.552 83.3454C438.129 84.7661 436.222 85.5954 434.213 85.6666C433.338 85.7122 432.515 86.0915 431.912 86.7264C431.31 87.3613 430.974 88.2033 430.974 89.0787C430.974 89.954 431.31 90.796 431.912 91.4309C432.515 92.0658 433.338 92.4452 434.213 92.4907C436.222 92.5619 438.129 93.3912 439.552 94.8119C440.974 96.2325 441.806 98.1391 441.879 100.148C441.879 101.052 442.238 101.918 442.877 102.558C443.516 103.197 444.383 103.556 445.287 103.556C446.19 103.556 447.057 103.197 447.696 102.558C448.335 101.918 448.694 101.052 448.694 100.148Z" fill="#323286"/>
<path d="M162.861 157.806C165.348 157.806 167.779 158.543 169.847 159.925C171.914 161.307 173.526 163.27 174.478 165.568C175.43 167.866 175.679 170.394 175.193 172.833C174.708 175.272 173.511 177.513 171.752 179.271C169.994 181.03 167.753 182.227 165.314 182.712C162.875 183.198 160.347 182.949 158.049 181.997C155.751 181.045 153.788 179.434 152.406 177.366C151.024 175.298 150.287 172.867 150.287 170.38C150.287 167.045 151.612 163.847 153.97 161.489C156.328 159.131 159.526 157.806 162.861 157.806Z" fill="#323286"/>
<path d="M801.998 432.829C798.257 430.331 793.859 428.998 789.361 429C783.332 429 777.55 431.395 773.287 435.658C769.024 439.921 766.629 445.703 766.629 451.731C766.628 456.23 767.96 460.628 770.458 464.369C772.956 468.11 776.508 471.026 780.663 472.749C784.819 474.471 789.392 474.922 793.804 474.045C798.216 473.168 802.269 471.002 805.45 467.821C808.631 464.64 810.797 460.587 811.674 456.175C812.551 451.763 812.1 447.19 810.378 443.034C808.656 438.878 805.739 435.327 801.998 432.829Z" fill="#323286"/>
<path d="M180 839.787C177.151 842.643 175.495 846.477 175.37 850.509C175.37 852.327 174.648 854.069 173.363 855.354C172.078 856.639 170.336 857.361 168.518 857.361C166.701 857.361 164.958 856.639 163.673 855.354C162.388 854.069 161.666 852.327 161.666 850.509C161.517 846.472 159.846 842.64 156.988 839.784C154.13 836.927 150.297 835.258 146.259 835.111C144.487 835.046 142.809 834.296 141.578 833.019C140.347 831.742 139.659 830.038 139.659 828.264C139.659 826.49 140.347 824.786 141.578 823.509C142.809 822.232 144.487 821.482 146.259 821.417C150.295 821.268 154.126 819.597 156.982 816.741C159.838 813.885 161.508 810.055 161.657 806.019C161.657 804.201 162.379 802.459 163.664 801.174C164.949 799.889 166.692 799.167 168.509 799.167C170.326 799.167 172.069 799.889 173.354 801.174C174.639 802.459 175.361 804.201 175.361 806.019C175.505 810.047 177.166 813.872 180.011 816.728C182.856 819.583 186.676 821.258 190.703 821.417C192.476 821.482 194.154 822.232 195.385 823.509C196.616 824.786 197.303 826.49 197.303 828.264C197.303 830.038 196.616 831.742 195.385 833.019C194.154 834.296 192.476 835.046 190.703 835.111C186.672 835.239 182.839 836.894 179.981 839.741L180 839.787Z" fill="#323286"/>
<path d="M780.398 244.426C782.885 244.426 785.316 245.163 787.384 246.545C789.451 247.927 791.063 249.891 792.015 252.188C792.966 254.486 793.216 257.014 792.73 259.453C792.245 261.892 791.048 264.133 789.289 265.891C787.531 267.65 785.29 268.847 782.851 269.333C780.412 269.818 777.884 269.569 775.586 268.617C773.288 267.665 771.325 266.054 769.943 263.986C768.561 261.918 767.824 259.487 767.824 257C767.824 253.665 769.149 250.467 771.507 248.109C773.865 245.751 777.063 244.426 780.398 244.426Z" fill="#323286"/>
<path d="M718.648 287.259C716.278 289.62 714.894 292.795 714.777 296.138C714.718 297.603 714.095 298.988 713.038 300.003C711.981 301.018 710.572 301.585 709.106 301.585C707.64 301.585 706.232 301.018 705.175 300.003C704.117 298.988 703.494 297.603 703.435 296.138C703.313 292.799 701.934 289.629 699.572 287.264C697.211 284.899 694.043 283.515 690.703 283.388C689.198 283.388 687.754 282.79 686.69 281.726C685.625 280.662 685.027 279.218 685.027 277.713C685.027 276.207 685.625 274.763 686.69 273.699C687.754 272.635 689.198 272.037 690.703 272.037C694.046 271.915 697.219 270.532 699.584 268.167C701.949 265.802 703.332 262.629 703.453 259.287C703.513 257.822 704.136 256.437 705.193 255.422C706.25 254.407 707.659 253.84 709.125 253.84C710.59 253.84 711.999 254.407 713.056 255.422C714.113 256.437 714.737 257.822 714.796 259.287C714.918 262.631 716.302 265.805 718.669 268.17C721.036 270.536 724.211 271.917 727.555 272.037C729.061 272.037 730.504 272.635 731.569 273.699C732.633 274.763 733.231 276.207 733.231 277.713C733.231 279.218 732.633 280.662 731.569 281.726C730.504 282.79 729.061 283.388 727.555 283.388C724.206 283.495 721.025 284.88 718.666 287.259H718.648Z" fill="#323286"/>
<path d="M13.3607 579.268C15.848 579.267 18.28 580.003 20.349 581.383C22.418 582.764 24.0311 584.727 24.9842 587.024C25.9374 589.322 26.1877 591.85 25.7036 594.29C25.2194 596.73 24.0226 598.971 22.2645 600.731C20.5063 602.49 18.2658 603.688 15.8265 604.174C13.3871 604.66 10.8584 604.412 8.56022 603.46C6.26207 602.509 4.29772 600.897 2.91566 598.829C1.53359 596.761 0.795898 594.33 0.795898 591.843C0.795898 588.509 2.11939 585.312 4.47548 582.955C6.83158 580.597 10.0275 579.271 13.3607 579.268Z" fill="#323286"/>
<path d="M650.953 803.926C653.441 803.924 655.873 804.66 657.943 806.041C660.012 807.422 661.625 809.386 662.578 811.684C663.531 813.982 663.78 816.511 663.296 818.951C662.811 821.391 661.613 823.632 659.854 825.391C658.095 827.15 655.853 828.348 653.413 828.833C650.973 829.318 648.444 829.068 646.146 828.115C643.849 827.162 641.885 825.549 640.504 823.48C639.123 821.411 638.387 818.978 638.389 816.491C638.391 813.159 639.716 809.964 642.071 807.609C644.427 805.253 647.622 803.928 650.953 803.926Z" fill="#323286"/>
<path d="M112.777 268.815C246.944 108.852 490.166 96.8148 639 245.667V245.62C778.453 385.083 778.453 611.176 639 750.639C508.435 881.194 299.759 890.768 157.944 772.518C6.74962 646.472 -14.7226 420.815 112.777 268.815Z" fill="#323286"/>
<path fill-rule="evenodd" clip-rule="evenodd" d="M386.5 177.362C563.667 177.362 707.297 320.982 707.297 498.158C707.297 675.334 563.667 818.963 386.5 818.963C209.334 818.963 65.7041 675.297 65.7041 498.158C65.7041 321.019 209.324 177.362 386.5 177.362Z" fill="#76469C"/>
<path fill-rule="evenodd" clip-rule="evenodd" d="M219.685 291.472C239.935 291.474 259.729 297.481 276.565 308.733C293.401 319.985 306.522 335.978 314.268 354.688C322.015 373.397 324.038 393.984 320.084 413.844C316.13 433.704 306.375 451.946 292.052 466.261C277.73 480.577 259.485 490.324 239.623 494.269C219.761 498.215 199.175 496.181 180.469 488.426C161.762 480.672 145.776 467.544 134.531 450.703C123.287 433.862 117.289 414.064 117.296 393.815C117.306 366.667 128.098 340.634 147.299 321.442C166.499 302.25 192.537 291.469 219.685 291.472Z" fill="#906AAF"/>
<path fill-rule="evenodd" clip-rule="evenodd" d="M463.898 186.833C580.083 349.944 542.555 794.602 232.213 779.491C343.241 840.333 484.704 831.833 588.972 746.991C726.389 635.167 747.185 433.111 635.324 295.667C591.544 241.705 531.359 203.495 463.898 186.833Z" fill="#5B3E93"/>
<path d="M636.295 562.954C636.884 560.785 637.894 558.753 639.268 556.974C640.642 555.195 642.352 553.704 644.302 552.586C646.252 551.469 648.403 550.746 650.633 550.459C652.862 550.173 655.126 550.328 657.295 550.917C659.465 551.505 661.497 552.516 663.276 553.889C665.054 555.263 666.545 556.974 667.663 558.924C668.781 560.874 669.503 563.025 669.79 565.254C670.076 567.484 669.921 569.748 669.332 571.917C648.614 648.002 599.35 713.166 531.795 753.843C529.872 755.002 527.74 755.77 525.52 756.105C523.3 756.44 521.035 756.334 518.856 755.794C516.677 755.253 514.626 754.289 512.819 752.956C511.013 751.622 509.486 749.946 508.328 748.023C507.169 746.1 506.4 743.968 506.066 741.748C505.731 739.528 505.837 737.264 506.377 735.084C506.918 732.905 507.882 730.854 509.215 729.047C510.548 727.241 512.224 725.715 514.147 724.556C574.177 688.453 617.939 630.556 636.295 562.954Z" fill="#323286"/>
<path d="M466.388 747.343C468.501 746.561 470.748 746.206 473 746.299C475.251 746.391 477.462 746.929 479.504 747.881C481.546 748.833 483.379 750.18 484.897 751.845C486.415 753.51 487.588 755.459 488.348 757.58C489.108 759.701 489.44 761.952 489.325 764.202C489.21 766.452 488.65 768.658 487.677 770.69C486.704 772.722 485.338 774.542 483.658 776.043C481.978 777.544 480.017 778.697 477.888 779.435C472.203 781.491 466.956 783.238 462.147 784.676C457.339 786.114 452.042 787.55 446.258 788.982C444.046 789.624 441.726 789.811 439.44 789.533C437.153 789.254 434.946 788.516 432.952 787.361C430.959 786.207 429.219 784.661 427.839 782.817C426.459 780.972 425.467 778.868 424.922 776.629C424.377 774.391 424.291 772.066 424.669 769.793C425.047 767.521 425.881 765.348 427.121 763.407C428.361 761.465 429.982 759.795 431.884 758.497C433.787 757.198 435.934 756.299 438.193 755.852C442.582 754.784 447.326 753.485 452.425 751.954C457.66 750.367 462.314 748.843 466.388 747.38V747.343Z" fill="#323286"/>
<path d="M190.694 622.392C185.938 619.214 180.348 617.518 174.629 617.518C166.96 617.521 159.607 620.568 154.184 625.99C148.762 631.413 145.714 638.766 145.712 646.435C145.712 652.154 147.408 657.745 150.585 662.5C153.763 667.255 158.279 670.962 163.563 673.15C168.846 675.339 174.661 675.912 180.27 674.796C185.879 673.68 191.032 670.926 195.076 666.882C199.12 662.838 201.874 657.686 202.99 652.076C204.105 646.467 203.533 640.653 201.344 635.369C199.155 630.085 195.449 625.569 190.694 622.392Z" fill="#323286"/>
<path d="M708.462 0.833594C735.194 0.833656 761.099 10.1028 781.764 27.0616C802.428 44.0204 816.573 67.6196 821.788 93.8382C827.003 120.057 822.966 147.273 810.364 170.848C797.763 194.424 777.376 212.901 752.679 223.131C727.982 233.361 700.501 234.711 674.92 226.951C649.339 219.191 627.24 202.801 612.388 180.574C597.537 158.347 590.851 131.658 593.472 105.054C596.092 78.4507 607.856 53.5787 626.758 34.6762C637.476 23.9307 650.211 15.4092 664.233 9.60136C678.254 3.79351 693.285 0.813845 708.462 0.833594Z" fill="#D64536"/>
<path fill-rule="evenodd" clip-rule="evenodd" d="M765.953 58.8794C752.651 45.5832 735.15 37.3106 716.432 35.471C697.715 33.6314 678.938 38.3386 663.302 48.7907C647.666 59.2428 636.138 74.793 630.681 92.792C625.225 110.791 626.178 130.125 633.378 147.5C640.578 164.875 653.58 179.216 670.168 188.08C686.756 196.943 705.905 199.781 724.351 196.11C742.797 192.438 759.399 182.485 771.329 167.945C783.259 153.405 789.779 135.178 789.777 116.37C789.79 105.691 787.693 95.1147 783.606 85.2486C779.519 75.3825 773.523 66.4212 765.962 58.8794" fill="#FF9359"/>
<path fill-rule="evenodd" clip-rule="evenodd" d="M723.285 36.4075C731.504 49.4619 736.699 64.1887 738.491 79.5101C740.284 94.8316 738.628 110.36 733.645 124.959C728.662 139.558 720.477 152.858 709.691 163.885C698.904 174.913 685.789 183.39 671.304 188.695C681.689 194.026 693.1 197.059 704.762 197.588C716.424 198.116 728.063 196.127 738.888 191.756C749.713 187.385 759.47 180.734 767.495 172.256C775.52 163.778 781.626 153.672 785.397 142.624C789.168 131.576 790.516 119.845 789.35 108.23C788.183 96.6143 784.529 85.3862 778.636 75.3088C772.743 65.2314 764.749 56.541 755.198 49.8284C745.647 43.1158 734.763 38.5384 723.285 36.4075Z" fill="#FF775B"/>
<path fill-rule="evenodd" clip-rule="evenodd" d="M652.2 80.1977C648.938 81.7969 646.444 84.6268 645.268 88.0648L645.305 88.1019C642.196 97.3053 640.915 107.028 641.536 116.722C641.782 120.34 643.454 123.711 646.186 126.095C648.917 128.479 652.484 129.681 656.101 129.435C659.718 129.19 663.09 127.517 665.474 124.786C667.858 122.054 669.059 118.488 668.814 114.87C668.597 111.832 668.684 108.78 669.073 105.759C669.48 102.754 670.191 99.7975 671.193 96.9352C672.37 93.4972 672.132 89.7328 670.533 86.47C668.934 83.2072 666.104 80.7134 662.666 79.5371C659.228 78.3608 655.463 78.5984 652.2 80.1977ZM660.978 156.322C661.138 159.907 662.706 163.285 665.341 165.722V165.713C676.699 175.991 691.012 182.42 706.239 184.083C721.466 185.745 736.83 182.557 750.137 174.972C753.212 173.146 755.448 170.187 756.365 166.731C757.282 163.275 756.807 159.597 755.041 156.487C753.276 153.377 750.362 151.084 746.924 150.099C743.486 149.115 739.8 149.518 736.656 151.222C728.335 155.953 718.737 157.947 709.22 156.922C699.704 155.897 690.75 151.904 683.628 145.509C680.941 143.13 677.423 141.907 673.84 142.106C670.256 142.305 666.895 143.909 664.487 146.571C662.079 149.232 660.818 152.736 660.978 156.322Z" fill="#D64536"/>
</svg>
