<svg width="715" height="716" viewBox="0 0 715 716" fill="none" xmlns="http://www.w3.org/2000/svg">
<path fill-rule="evenodd" clip-rule="evenodd" d="M609.676 105.491C460.833 -43.3426 217.611 -31.3148 83.4446 128.639C-44.0462 280.648 -22.5739 506.315 128.621 632.343C270.435 750.593 479.111 741.018 609.676 610.463C749.13 471 749.13 244.907 609.676 105.444" fill="#BF2D41"/>
<path fill-rule="evenodd" clip-rule="evenodd" d="M357.167 37.2039C534.343 37.2039 677.973 180.834 677.973 358C677.973 535.167 534.343 678.797 357.167 678.797C179.991 678.797 36.3706 535.167 36.3706 358C36.3706 180.834 179.991 37.2039 357.167 37.2039Z" fill="#D8636A"/>
<path fill-rule="evenodd" clip-rule="evenodd" d="M190.334 151.315C210.586 151.309 230.385 157.31 247.227 168.557C264.068 179.805 277.196 195.795 284.949 214.504C292.703 233.213 294.734 253.801 290.786 273.665C286.837 293.529 277.087 311.775 262.768 326.097C248.449 340.419 230.204 350.172 210.341 354.124C190.478 358.076 169.89 356.049 151.179 348.299C132.468 340.548 116.476 327.424 105.226 310.584C93.975 293.744 87.9708 273.947 87.9727 253.694C87.9727 226.545 98.7565 200.507 117.952 181.308C137.148 162.108 163.184 151.32 190.334 151.315Z" fill="#DB7A7F"/>
<path fill-rule="evenodd" clip-rule="evenodd" d="M434.575 46.6668C550.76 209.778 513.195 654.435 202.88 639.334C209.8 643.13 216.834 646.654 223.982 649.908H224.065C231.195 653.148 238.414 656.117 245.723 658.815L245.871 658.871C253.124 661.55 260.451 663.954 267.852 666.083L268.269 666.213C275.596 668.306 282.979 670.158 290.417 671.769L291.038 671.898C292.815 672.269 294.596 672.627 296.38 672.972L296.871 673.065C302.278 674.09 307.707 674.985 313.158 675.75L314.167 675.889C315.843 676.111 317.547 676.324 319.232 676.528L320.352 676.658C325.556 677.275 330.772 677.75 336.001 678.084L337.501 678.176C339.065 678.278 340.63 678.361 342.195 678.435L344.047 678.509C348.985 678.713 353.945 678.803 358.926 678.778H360.954C362.389 678.778 363.834 678.778 365.269 678.695C366.065 678.695 366.862 678.695 367.658 678.63C369.075 678.63 370.491 678.537 371.908 678.472L373.963 678.371C376.547 678.232 379.139 678.065 381.723 677.871L384.371 677.667L388.269 677.315L391.213 677.019L394.973 676.602C396.065 676.472 397.158 676.333 398.241 676.185C400.204 675.938 402.167 675.67 404.13 675.38L407.713 674.843C408.852 674.667 409.982 674.472 411.121 674.278L414.575 673.676L417.908 673.056C419.232 672.806 420.556 672.528 421.871 672.259C423.186 671.991 424.649 671.695 425.982 671.398C427.593 671.046 429.198 670.682 430.797 670.306C431.806 670.074 432.815 669.824 433.815 669.574C435.093 669.259 436.371 668.945 437.649 668.648L440.621 667.871C442.075 667.482 443.538 667.065 444.991 666.658L447.315 666C449.408 665.383 451.501 664.747 453.593 664.093C454.454 663.824 455.315 663.537 456.186 663.25C457.575 662.806 458.963 662.324 460.352 661.871L463.047 660.945C464.547 660.417 466.056 659.871 467.556 659.324L469.667 658.556C471.778 657.759 473.88 656.954 475.982 656.111L478.13 655.232C479.639 654.621 481.139 653.991 482.639 653.38L485.028 652.352C486.572 651.673 488.115 650.988 489.658 650.296L491.593 649.371C493.704 648.401 495.806 647.401 497.899 646.371C498.463 646.093 499.019 645.806 499.584 645.537C501.176 644.741 502.769 643.945 504.352 643.121L506.565 641.963C508.093 641.158 509.621 640.333 511.13 639.5C511.751 639.158 512.371 638.834 512.982 638.491C515.056 637.334 517.13 636.148 519.186 634.945L520.436 634.195C522.121 633.204 523.797 632.185 525.473 631.158L527.473 629.898C528.982 628.972 530.473 628.046 531.964 627.028L533.751 625.871C535.778 624.528 537.806 623.158 539.806 621.769C540.056 621.602 540.288 621.426 540.528 621.259C542.312 620.025 544.087 618.756 545.852 617.454L547.704 616.111C549.161 615.037 550.605 613.948 552.038 612.843L553.815 611.482C555.778 609.963 557.729 608.42 559.667 606.852C697.093 495.028 717.852 292.963 606.028 155.546C604.355 153.485 602.658 151.454 600.936 149.454L600.482 148.917C598.815 146.972 597.127 145.053 595.417 143.158L595.214 142.926C593.473 140.991 591.704 139.093 589.926 137.213L589.408 136.704C587.695 134.898 585.973 133.13 584.232 131.38L583.834 130.982C582.038 129.176 580.214 127.408 578.38 125.648L577.889 125.185C576.142 123.525 574.383 121.889 572.612 120.278L572.019 119.741C570.167 118.065 568.315 116.426 566.463 114.796L565.973 114.371C564.176 112.833 562.368 111.315 560.547 109.815L559.815 109.222C557.908 107.667 555.991 106.13 554.065 104.593L553.612 104.241C551.76 102.806 549.908 101.398 548.056 100L547.186 99.3705C545.334 98.0063 543.482 96.6668 541.63 95.352L540.88 94.8242C539.028 93.5001 537.075 92.2038 535.158 90.9168L534.13 90.2316C532.278 89.0372 530.491 87.8612 528.658 86.7038C528.343 86.5094 528.047 86.3057 527.732 86.1205C525.781 84.8859 523.818 83.6853 521.843 82.5186L520.667 81.8242C518.889 80.7686 517.102 79.7347 515.306 78.7224L514.084 78.0279C512.139 76.9353 510.176 75.8612 508.204 74.8242L506.889 74.1205C505.13 73.1946 503.365 72.2872 501.593 71.3983L500.13 70.6575C498.278 69.7316 496.371 68.8057 494.482 67.8798L492.825 67.1112C491.065 66.2964 489.306 65.4909 487.528 64.7038C486.991 64.4631 486.436 64.2131 485.88 63.9816C484.093 63.1946 482.297 62.4353 480.501 61.6853L478.519 60.8705C476.76 60.1575 475.001 59.4538 473.241 58.7779L471.389 58.0557C469.676 57.4075 467.954 56.7686 466.232 56.1575C465.491 55.8798 464.751 55.6205 464.01 55.3612C462.232 54.7316 460.445 54.1298 458.658 53.5094L456.658 52.852C454.982 52.3149 453.306 51.7779 451.621 51.2686L449.352 50.5742C447.501 50.0186 445.649 49.4909 443.797 48.9724L441.788 48.4168C440.102 47.9662 438.417 47.5248 436.732 47.0927L434.686 46.5649L434.575 46.6668Z" fill="#D1565F"/>
<path fill-rule="evenodd" clip-rule="evenodd" d="M211.75 497.648C227.361 513.445 556.546 381.463 270.389 434.047C225.945 442.213 174.556 459.973 211.75 497.648ZM127.787 582.26C164.685 567.389 214.13 550.574 225.009 559.491C252.463 582.01 256.908 623.38 248.158 659.76C202.68 643.381 161.52 616.88 127.787 582.26ZM275.056 668.111C293.574 631.343 342.593 587.926 360.241 550.352C412.806 438.556 490.648 471.732 517.602 521.565C532.417 548.889 467.074 625.213 399.426 676.028C357.849 681.501 315.603 678.812 275.056 668.111ZM666.861 274.093C644.639 276.945 631.38 296.139 653.5 354.945C680.204 425.954 516.296 427.167 608.972 510.5C610.639 511.991 611.074 529.093 616.935 546.315C645.004 507.522 664.052 462.949 672.69 415.851C681.328 368.754 679.336 320.322 666.861 274.093ZM482.407 276.815C425.926 224.38 569.787 177.084 596.861 327.158C620.759 459.732 532.213 323.102 482.407 276.815ZM557.361 134.917C574.028 179.602 610.861 265.732 647.898 222.269C629.313 182.605 602.85 147.138 570.12 118.028C558.602 117.26 552.472 121.889 557.361 134.917ZM515.333 78.8059C452.972 191.843 438.074 139.917 383.852 45.1577C383.243 44.1267 382.854 42.9808 382.709 41.7921C382.564 40.6034 382.666 39.3976 383.009 38.2503C429.54 41.9928 474.696 55.8325 515.333 78.8059ZM332.167 38.167C338.945 96.954 251.167 91.204 245.222 57.2781C273.17 46.8828 302.436 40.45 332.167 38.167ZM306.676 156.084C339.519 140.204 451.648 172.51 384.648 251.648C358.25 282.806 435.926 411.834 309.648 329.686C216.463 269.019 296.157 161.167 306.676 156.084ZM215.435 87.6763C234.213 175.121 141.157 196.528 79.3241 197.602C109.329 145.748 153.201 103.291 206.009 75.0003C210.75 78.7874 214.454 83.1022 215.435 87.6763ZM198.722 354.074C212.796 424.991 193.583 380.926 144.491 407.287C127.593 416.352 179.12 500.056 107.695 500.973C-2.56475 502.343 152.306 120.287 198.722 354.074Z" fill="#C04868"/>
</svg>
