<svg width="739" height="738" viewBox="0 0 739 738" fill="none" xmlns="http://www.w3.org/2000/svg">
<path d="M429.398 45.8982L487.195 232.546L676.009 232.074C722.778 232.074 752.861 283.713 731.722 326.824C727.275 335.926 720.751 343.856 712.676 349.972L559.815 465.407L618.482 652.444C629.204 686.704 611.241 723.491 578.333 734.639C568.24 738.071 557.414 738.745 546.972 736.593C536.423 734.386 526.634 729.461 518.574 722.306L369.741 609.148L217.222 725.148C179.306 753.954 126.074 730.25 118.843 682.806C117.291 672.675 118.064 662.325 121.102 652.537C121.232 652.537 174.685 481.241 179.667 465.407L26.7408 350.093C-11.6666 321.102 -6.33327 259.139 37.1112 238.056C46.7007 233.39 57.3563 231.352 67.9908 232.148L252.25 232.519L310.213 45.3612C324.667 -1.48143 381.389 -14.9444 414.037 19.3334C421.171 26.8469 426.442 35.93 429.426 45.8519L429.398 45.8982Z" fill="#EE7002"/>
<path fill-rule="evenodd" clip-rule="evenodd" d="M369.741 550.482L544.574 683.398L545.778 684.324C548.027 686.333 550.762 687.719 553.713 688.343C556.558 688.922 559.506 688.727 562.25 687.778C564.513 686.978 566.595 685.738 568.375 684.128C570.155 682.517 571.598 680.57 572.62 678.398C574.954 673.624 575.371 668.137 573.787 663.065L506.111 447.278L682.778 313.861C685.152 312.074 687.071 309.752 688.379 307.083C689.719 304.254 690.396 301.158 690.361 298.028C690.419 292.876 688.485 287.9 684.963 284.139C683.392 282.471 681.498 281.14 679.397 280.226C677.296 279.313 675.032 278.836 672.741 278.824V278.741L453.648 279.185L449.166 264.722L386.611 62.6853L386.537 62.5279C385.66 59.5603 384.099 56.8395 381.981 54.5834C380.029 52.5169 377.6 50.9593 374.907 50.0464L374.528 49.9353C371.409 48.9721 368.072 48.9721 364.954 49.9353L364.565 50.0464C361.875 50.9596 359.449 52.5173 357.5 54.5834C355.375 56.8347 353.814 59.5572 352.944 62.5279L352.861 62.6853L290.315 264.676L285.833 279.185L66.7406 278.75V278.833C64.4493 278.844 62.1842 279.321 60.083 280.234C57.9818 281.148 56.0885 282.48 54.5183 284.148C50.9963 287.909 49.0624 292.885 49.1202 298.037C49.082 301.166 49.7564 304.263 51.0924 307.093C52.4075 309.759 54.3293 312.081 56.7035 313.87L233.398 447.278L165.685 663.102C164.105 668.175 164.523 673.66 166.852 678.435C167.876 680.607 169.32 682.555 171.102 684.165C172.884 685.775 174.967 687.016 177.231 687.815C179.972 688.764 182.917 688.959 185.759 688.38C188.712 687.756 191.451 686.371 193.704 684.361L194.907 683.435L369.741 550.482Z" fill="#F6C13D"/>
<path fill-rule="evenodd" clip-rule="evenodd" d="M285.833 279.185C318.019 275.537 354.935 239.972 378.426 217.083C395.594 200.368 408.411 179.705 415.759 156.898L386.611 62.6853L386.537 62.5279C385.66 59.5603 384.1 56.8395 381.982 54.5834C380.029 52.5169 377.6 50.9593 374.908 50.0464L374.528 49.9353C371.409 48.9721 368.073 48.9721 364.954 49.9353L364.565 50.0464C361.875 50.9596 359.45 52.5173 357.5 54.5834C355.376 56.8347 353.815 59.5572 352.945 62.5279L352.861 62.6853L285.833 279.185Z" fill="#FAD579"/>
<path fill-rule="evenodd" clip-rule="evenodd" d="M453.648 279.185C466.074 343 461.806 409.176 409.009 449.148C356.213 489.12 291.417 476.648 233.398 447.296L165.685 663.102C164.105 668.175 164.523 673.66 166.852 678.435C167.876 680.607 169.32 682.555 171.102 684.165C172.884 685.775 174.967 687.015 177.232 687.815C179.972 688.764 182.917 688.959 185.759 688.38C188.713 687.756 191.451 686.371 193.704 684.361L194.907 683.435L369.741 550.481L544.574 683.398L545.778 684.324C548.027 686.333 550.763 687.719 553.713 688.343C556.558 688.922 559.506 688.727 562.25 687.778C564.513 686.978 566.595 685.737 568.375 684.127C570.156 682.517 571.598 680.57 572.62 678.398C574.954 673.624 575.372 668.137 573.787 663.065L506.111 447.278L682.778 313.861C685.152 312.073 687.071 309.751 688.38 307.083C689.719 304.254 690.397 301.158 690.361 298.028C690.419 292.875 688.485 287.9 684.963 284.139C683.392 282.471 681.499 281.14 679.398 280.226C677.297 279.313 675.032 278.836 672.741 278.824V278.741L453.648 279.185Z" fill="#F39919"/>
<path d="M466.243 483.887C465.968 486.111 466.134 488.368 466.731 490.528L471.425 507.38C471.994 509.571 472.993 511.628 474.364 513.43C475.735 515.232 477.451 516.743 479.412 517.875C481.373 519.008 483.54 519.738 485.786 520.024C488.032 520.311 490.313 520.147 492.496 519.543C494.678 518.939 496.718 517.907 498.498 516.507C500.277 515.106 501.76 513.366 502.86 511.386C503.96 509.407 504.655 507.229 504.905 504.978C505.154 502.728 504.954 500.45 504.314 498.278L499.629 481.435C499.032 479.275 498.015 477.254 496.637 475.486C495.259 473.719 493.546 472.241 491.597 471.135C489.647 470.03 487.499 469.32 485.275 469.045C483.05 468.77 480.794 468.935 478.634 469.532C476.474 470.129 474.452 471.146 472.685 472.524C470.918 473.902 469.439 475.615 468.334 477.565C467.229 479.515 466.518 481.663 466.243 483.887Z" fill="#EE7002"/>
<path d="M487.446 539.88C485.341 543.894 484.918 548.58 486.268 552.907L510.259 629.361C511.654 633.634 514.676 637.186 518.67 639.247C522.664 641.308 527.31 641.713 531.601 640.373C535.891 639.034 539.482 636.059 541.595 632.091C543.707 628.124 544.172 623.484 542.889 619.176L518.898 542.722C517.547 538.395 514.533 534.782 510.518 532.678C506.504 530.573 501.817 530.149 497.49 531.5C493.163 532.851 489.55 535.865 487.446 539.88Z" fill="#EE7002"/>
</svg>
