<svg xmlns="http://www.w3.org/2000/svg" viewBox="0 0 512 512">
  <path fill="#FFA500" d="M256,512c141.4,0 256,-114.6 256,-256c0,-141.4 -114.6,-256 -256,-256c-141.4,0 -256,114.6 -256,256c0,141.4 114.6,256 256,256Z" />
  <!-- Face -->
  <path fill="#FF9800" d="M390,256c0,74 -60,134 -134,134c-74,0 -134,-60 -134,-134c0,-74 60,-134 134,-134c74,0 134,60 134,134Z" />
  <!-- Tiger Stripes -->
  <path fill="#333333" d="M130,180 C140,170 150,165 160,170 C145,190 155,215 130,180Z" />
  <path fill="#333333" d="M365,180 C355,170 345,165 335,170 C350,190 340,215 365,180Z" />
  <path fill="#333333" d="M170,290 C180,280 190,275 200,280 C185,300 195,325 170,290Z" />
  <path fill="#333333" d="M325,290 C315,280 305,275 295,280 C310,300 300,325 325,290Z" />
  <!-- Ears -->
  <circle fill="#FF9800" cx="157" cy="170" r="28" />
  <circle fill="#FF9800" cx="355" cy="170" r="28" />
  <path fill="#333333" d="M157,152 L147,160 L167,160Z" />
  <path fill="#333333" d="M355,152 L345,160 L365,160Z" />
  <!-- Eyes -->
  <circle fill="#333333" cx="210" cy="230" r="18" />
  <circle fill="#333333" cx="302" cy="230" r="18" />
  <path fill="#FFFFFF" d="M210,225 L200,220 L220,220Z" />
  <path fill="#FFFFFF" d="M302,225 L292,220 L312,220Z" />
  <!-- Nose -->
  <path fill="#333333" d="M256,260 a20,14 0 1,0 1,0 z" />
  <!-- Frown -->
  <path fill="none" stroke="#333333" stroke-width="8" stroke-linecap="round" d="M210,310 C230,280 282,280 302,310" />
</svg> 