<svg width="887" height="698" viewBox="0 0 887 698" fill="none" xmlns="http://www.w3.org/2000/svg">
<path fill-rule="evenodd" clip-rule="evenodd" d="M191.352 102.852C336.435 -42.2315 573.528 -30.4815 704.315 125.426C828.593 273.574 807.667 493.565 660.287 616.463C522.037 731.731 318.621 722.398 191.361 595.167C55.4077 459.185 55.417 238.815 191.352 102.852Z" fill="#097C6B"/>
<path fill-rule="evenodd" clip-rule="evenodd" d="M437.445 36.2871C610.148 36.2871 750.148 176.287 750.148 348.991C750.148 521.694 610.185 661.694 437.445 661.694C264.704 661.694 124.778 521.694 124.778 349C124.778 176.306 264.778 36.2871 437.445 36.2871Z" fill="#84BD24"/>
<path fill-rule="evenodd" clip-rule="evenodd" d="M274.871 147.509C294.61 147.509 313.907 153.362 330.319 164.329C346.732 175.296 359.525 190.883 367.079 209.121C374.633 227.358 376.609 247.425 372.758 266.786C368.907 286.146 359.402 303.93 345.444 317.888C331.486 331.846 313.702 341.351 294.342 345.202C274.981 349.053 254.914 347.077 236.677 339.523C218.439 331.969 202.852 319.176 191.885 302.763C180.918 286.351 175.065 267.054 175.065 247.314C175.065 220.844 185.58 195.458 204.297 176.741C223.014 158.024 248.4 147.509 274.871 147.509Z" fill="#9BCA4E"/>
<path fill-rule="evenodd" clip-rule="evenodd" d="M512.926 45.5187C626.185 204.556 589.574 637.945 287.083 623.222C293.837 626.926 300.692 630.358 307.648 633.519L307.741 633.565C314.679 636.719 321.713 639.611 328.843 642.241L328.991 642.297C336.053 644.901 343.195 647.247 350.417 649.334L350.824 649.445C357.954 651.5 365.148 653.297 372.408 654.834L373.019 654.963C374.753 655.327 376.488 655.676 378.222 656.009L378.704 656.102C383.975 657.114 389.266 657.982 394.574 658.704C394.898 658.759 395.232 658.797 395.556 658.843C397.204 659.065 398.852 659.275 400.5 659.472L401.593 659.593C406.667 660.21 411.753 660.673 416.852 660.982L418.315 661.084C419.834 661.176 421.361 661.259 422.88 661.324L424.658 661.408C429.491 661.605 434.327 661.692 439.167 661.667H441.148C442.556 661.667 443.926 661.667 445.361 661.593L447.685 661.519C449.074 661.519 450.463 661.435 451.833 661.371L453.834 661.269C456.352 661.139 458.88 660.972 461.398 660.787L463.972 660.584C465.241 660.482 466.509 660.361 467.778 660.241L470.648 659.954L474.352 659.537C475.417 659.417 476.472 659.278 477.537 659.148C479.445 658.898 481.361 658.639 483.269 658.352C484.435 658.185 485.611 658.019 486.769 657.834C487.926 657.648 488.982 657.472 490.083 657.278C491.185 657.084 492.334 656.898 493.454 656.695L496.713 656.093L500.574 655.315C501.908 655.047 503.241 654.759 504.574 654.472C506.136 654.133 507.704 653.778 509.278 653.408C510.25 653.185 511.232 652.935 512.213 652.704C513.463 652.389 514.704 652.084 515.917 651.778L518.815 651.019C520.241 650.63 521.658 650.241 523.074 649.834L525.343 649.195C527.389 648.602 529.426 647.972 531.454 647.343L533.991 646.528C535.352 646.093 536.704 645.602 538.047 645.185L540.676 644.259C542.139 643.741 543.611 643.213 545.074 642.676L547.13 641.926C549.185 641.155 551.238 640.361 553.287 639.547L555.38 638.685C556.855 638.068 558.321 637.451 559.778 636.834L562.102 635.834C563.611 635.185 565.111 634.509 566.611 633.834L568.463 632.982C570.531 632.031 572.58 631.056 574.611 630.056C575.167 629.787 575.713 629.51 576.25 629.232C577.815 628.463 579.361 627.676 580.88 626.88L583.037 625.75C584.528 624.972 586.009 624.167 587.491 623.352C588.093 623.028 588.695 622.704 589.287 622.371C591.315 621.241 593.334 620.093 595.343 618.908C595.75 618.676 596.158 618.426 596.556 618.185C598.204 617.259 599.834 616.222 601.463 615.213L603.417 613.991C604.88 613.065 606.343 612.139 607.796 611.213L609.528 610.084C611.509 608.775 613.479 607.442 615.435 606.084C615.676 605.926 615.908 605.75 616.139 605.593C617.88 604.38 619.611 603.139 621.333 601.889L623.121 600.574C624.537 599.528 625.954 598.454 627.361 597.38L629.083 596.056C631 594.574 632.908 593.074 634.797 591.528C768.806 482.537 789.037 285.584 680.037 151.621C678.398 149.611 676.75 147.63 675.074 145.685L674.621 145.158C673 143.306 671.361 141.389 669.695 139.547L669.491 139.324C667.796 137.472 666.074 135.621 664.333 133.769L663.889 133.297C662.222 131.537 660.54 129.806 658.843 128.102L658.454 127.713C656.704 125.963 654.926 124.222 653.139 122.519L652.648 122.056C650.957 120.445 649.244 118.855 647.509 117.287L646.935 116.759C645.139 115.13 643.315 113.528 641.482 111.935L640.991 111.528C639.25 110.028 637.482 108.547 635.713 107.084L635 106.509C633.148 104.991 631.296 103.5 629.389 102.028L628.945 101.685C627.136 100.29 625.318 98.9138 623.491 97.5558L622.648 96.9354C620.852 95.6144 619.04 94.3089 617.213 93.0187L616.472 92.5002C614.621 91.2163 612.769 89.9508 610.917 88.7039L609.917 88.0373C608.148 86.8706 606.361 85.7132 604.574 84.5928L603.648 84.0187C601.796 82.8336 599.834 81.6576 597.908 80.5095L596.769 79.8336C595.04 78.8027 593.296 77.7934 591.537 76.8058L590.343 76.1299C588.448 75.0743 586.54 74.0311 584.621 73.0002L583.334 72.3243C581.621 71.3984 579.889 70.5373 578.167 69.6669L576.741 68.9539C574.889 68.0465 573.056 67.1576 571.241 66.2873L569.63 65.5373C567.917 64.741 566.195 63.9539 564.463 63.1947L562.861 62.4817C561.121 61.7224 559.361 60.9724 557.611 60.2502L555.676 59.4632C553.972 58.7595 552.25 58.0743 550.528 57.4076L548.676 56.7132C547.003 56.0959 545.327 55.4786 543.648 54.8613L541.482 54.0928C539.75 53.4817 538.009 52.8799 536.259 52.3058L534.315 51.6669C532.676 51.1391 531.046 50.6206 529.408 50.1206L527.195 49.4539C525.343 48.9076 523.584 48.3891 521.778 47.8798L519.815 47.3428C518.176 46.8984 516.537 46.4724 514.898 46.0465L512.889 45.5465L512.926 45.5187Z" fill="#379654"/>
<path fill-rule="evenodd" clip-rule="evenodd" d="M333.611 182.167C315.408 193.87 374.991 534.417 382.463 250.898C383.63 206.843 377.019 154.269 333.611 182.167ZM269.852 85.0371C276.611 123.231 282.686 173.769 271.991 182.343C244.963 204 204.602 199.926 171.704 184.278C196.479 144.189 230.04 110.254 269.852 85.0371ZM158.287 208.259C189.621 233.361 221.167 288.815 253.445 313.232C349.482 385.824 302.167 453.38 249.204 469.056C220.176 477.648 160.537 399.991 125.695 325.241C128.854 284.5 139.925 244.765 158.287 208.259ZM455.176 661.241C456.936 639.472 441.287 622.963 380.76 632.222C307.658 643.389 339.528 486.852 241.352 558.417C239.593 559.704 223.195 556.685 205.584 558.806C236.933 593.389 275.611 620.533 318.793 638.255C361.975 655.978 408.571 663.831 455.176 661.241ZM489.741 484.769C551.111 441.482 567.26 588.194 418.667 583.787C287.445 579.889 435.593 522.954 489.741 484.769ZM609.973 584.833C563.991 591.759 474.482 609.519 508.426 653.63C550.019 643.886 589.191 625.774 623.556 600.398C626.547 589.565 623.426 582.806 609.973 584.833ZM671.963 556.028C576.704 473.778 629.213 470.028 730.528 437.426C731.632 437.048 732.802 436.904 733.964 437.003C735.126 437.102 736.254 437.441 737.278 438C724.34 481.621 702.051 521.898 671.963 556.028ZM747.63 389.537C690.223 384.167 713.371 301.574 746.917 302.759C751.202 331.51 751.442 360.72 747.63 389.537ZM640.306 341.482C648.834 376.009 595.445 476.444 533.463 396.602C509.056 365.12 370.324 413.269 474.13 309.38C550.723 232.694 637.537 330.426 640.269 341.482H640.306ZM723.917 268.241C636.75 268.537 635.028 175.481 646.5 116.241C689.909 155.322 721.563 205.73 737.908 261.806C733.297 265.565 728.445 268.222 723.88 268.241H723.917ZM473.167 198.648C402.704 197.796 448.565 188.343 433.352 136.213C428.112 118.269 337.899 150.556 351.417 82.25C372.287 -23.2222 705.491 201.463 473.167 198.648Z" fill="#4CA044"/>
<path fill-rule="evenodd" clip-rule="evenodd" d="M109.973 467.037C-105.639 647.833 44.5003 643.889 162.945 618.37C459.473 554.389 641.852 511.555 827.037 269.231C891.658 184.676 952.963 82.4166 724.732 152.278C732.76 164.046 750.306 241.315 754.158 254.648C690.926 308.972 599.223 388.963 472.908 449.268C359.084 503.63 255.963 521.472 179.186 537.667L109.973 467.037Z" fill="#097C6B"/>
</svg>
