<svg width="697" height="698" viewBox="0 0 697 698" fill="none" xmlns="http://www.w3.org/2000/svg">
<path fill-rule="evenodd" clip-rule="evenodd" d="M61.5102 545.602C52.4325 549.854 42.0681 550.455 32.5596 547.282C23.0511 544.108 15.1253 537.403 10.4207 528.551C5.71617 519.7 4.59248 509.379 7.28195 499.722C9.97142 490.066 16.2684 481.812 24.8713 476.667C1.96023 418.391 -4.82717 355.019 5.22265 293.213C15.2725 231.407 41.7882 173.45 81.9824 125.435C87.291 119.114 92.8157 112.981 98.5564 107.037C96.3654 99.4153 96.4385 91.3209 98.7668 83.74C101.095 76.1591 105.578 69.4192 111.67 64.3414C117.761 59.2636 125.198 56.0673 133.075 55.1419C140.951 54.2165 148.926 55.602 156.029 59.1296C228.687 10.8268 316.833 -8.43391 403.017 5.16062C489.2 18.7552 567.137 64.2139 621.399 132.537C624.958 132.294 628.521 132.966 631.747 134.489C634.974 136.011 637.757 138.334 639.833 141.235C641.909 144.137 643.208 147.521 643.607 151.067C644.006 154.612 643.491 158.2 642.112 161.491C668.269 202.464 685.561 248.458 692.875 296.516C700.19 344.573 697.366 393.629 684.584 440.529C671.803 487.429 649.347 531.135 618.66 568.836C587.974 606.537 549.737 637.398 506.408 659.435C505.554 665.322 503.173 670.883 499.504 675.566C495.835 680.248 491.004 683.889 485.492 686.126C479.98 688.364 473.978 689.12 468.083 688.32C462.189 687.519 456.606 685.191 451.89 681.565C396.437 698.697 337.585 701.715 280.671 690.347C223.756 678.979 170.58 653.583 125.964 616.463C117.865 609.716 110.112 602.608 102.705 595.139C94.4617 586.894 86.6371 578.241 79.2602 569.213C73.0379 561.602 67.1336 553.725 61.5472 545.583" fill="#6262B3"/>
<path fill-rule="evenodd" clip-rule="evenodd" d="M348.797 36.2961C521.501 36.2961 661.51 176.296 661.51 349C661.51 521.704 521.501 661.713 348.797 661.713C176.093 661.713 36.0933 521.704 36.0933 349C36.0933 176.296 176.103 36.2961 348.797 36.2961Z" fill="#88AEFF"/>
<path fill-rule="evenodd" clip-rule="evenodd" d="M212.741 151.074C221.932 153.597 230.711 157.432 238.806 162.463C230.691 157.44 221.898 153.605 212.695 151.074H212.741ZM186.251 147.509C193.728 147.506 201.182 148.341 208.473 150C206.628 158.679 207.254 167.703 210.278 176.045C213.303 184.387 218.606 191.714 225.585 197.195C232.564 202.675 240.939 206.09 249.761 207.05C258.582 208.011 267.496 206.479 275.491 202.629C285.214 222.047 288.338 244.107 284.39 265.461C280.441 286.816 269.636 306.3 253.612 320.957C237.588 335.615 217.221 344.646 195.6 346.681C173.98 348.716 152.285 343.644 133.808 332.233C115.331 320.823 101.079 303.698 93.2157 283.455C85.352 263.212 84.3051 240.957 90.234 220.066C96.1629 199.175 108.744 180.787 126.069 167.693C143.393 154.599 164.516 147.512 186.232 147.509H186.251Z" fill="#B7CAFF"/>
<path fill-rule="evenodd" clip-rule="evenodd" d="M424.232 45.4631C537.51 204.398 500.954 637.917 198.454 623.241C244.524 648.549 296.252 661.778 348.815 661.695C521.519 661.695 661.519 521.695 661.519 348.991C661.519 202.287 560.5 79.2039 424.232 45.4631Z" fill="#7599E7"/>
<path fill-rule="evenodd" clip-rule="evenodd" d="M292.927 87.2131C278.445 78.5186 261.029 78.5927 244.575 85.7316L244.594 85.7594C229.918 92.1761 215.871 104.352 205.927 120.88C195.982 137.426 191.779 155.519 193.019 171.398C194.418 189.287 202.566 204.732 217.14 213.5C231.612 222.148 249.001 222.148 265.473 214.945C280.149 208.537 294.205 196.37 304.14 179.833C314.084 163.287 318.297 145.195 317.047 129.315C315.649 111.426 307.501 95.9816 292.927 87.2131ZM275.103 115.389C275.59 115.723 276.094 116.032 276.612 116.315L276.594 116.241C280.825 119.222 283.26 124.926 283.844 132.009C284.584 141.398 281.918 152.408 275.631 162.852C269.344 173.296 260.908 180.833 252.334 184.537C245.918 187.315 239.677 187.852 234.992 185.463C234.51 185.111 234.001 184.815 233.492 184.537C229.251 181.556 226.797 175.833 226.251 168.843C225.51 159.463 228.186 148.445 234.473 138C240.76 127.556 249.195 120.019 257.76 116.315C264.186 113.537 270.418 113 275.103 115.389Z" fill="#6262B3"/>
<path d="M493.112 524C491.138 522.857 489.42 521.321 488.064 519.487C486.707 517.654 485.742 515.561 485.227 513.339C484.712 511.117 484.659 508.813 485.07 506.57C485.481 504.327 486.349 502.192 487.619 500.297C488.889 498.402 490.534 496.789 492.452 495.556C494.371 494.322 496.522 493.496 498.773 493.128C501.024 492.76 503.327 492.858 505.538 493.415C507.75 493.973 509.823 494.979 511.631 496.37C513.525 497.632 515.727 498.355 518.001 498.463C520.866 498.608 523.696 497.782 526.032 496.117C528.367 494.452 530.072 492.046 530.869 489.29C531.666 486.534 531.508 483.59 530.42 480.936C529.333 478.281 527.381 476.072 524.881 474.666C522.816 473.693 520.973 472.306 519.466 470.59C517.96 468.875 516.822 466.869 516.123 464.696C515.423 462.523 515.178 460.23 515.402 457.958C515.625 455.686 516.313 453.485 517.423 451.49C518.533 449.495 520.04 447.749 521.852 446.361C523.664 444.973 525.742 443.971 527.957 443.419C530.172 442.867 532.477 442.776 534.729 443.151C536.981 443.527 539.131 444.361 541.047 445.602C546.452 448.62 551.192 452.7 554.982 457.595C558.773 462.49 561.535 468.1 563.105 474.088C564.674 480.077 565.018 486.321 564.116 492.446C563.214 498.571 561.085 504.45 557.855 509.732C554.626 515.014 550.363 519.589 545.322 523.184C540.282 526.778 534.567 529.318 528.521 530.65C522.475 531.982 516.223 532.08 510.138 530.937C504.054 529.794 498.263 527.435 493.112 524Z" fill="#6262B3"/>
<path fill-rule="evenodd" clip-rule="evenodd" d="M191.593 534.75C189.46 529.283 187.935 523.597 187.047 517.796C185.112 504.657 187.047 492.444 192.288 482.435C197.536 472.258 206.361 464.379 217.066 460.314C220.842 458.865 224.767 457.837 228.769 457.25C246.362 454.666 265.205 459.972 281.547 470.629C297.89 481.287 311.445 497.222 318.723 516.065C320.861 521.534 322.389 527.223 323.279 533.028C325.205 546.157 323.279 558.37 318.047 568.379C312.788 578.555 303.959 586.432 293.251 590.5C289.479 591.955 285.557 592.983 281.556 593.565C263.964 596.139 245.121 590.852 228.779 580.185C212.436 569.518 198.834 553.629 191.593 534.75ZM216.417 521.222C216.897 524.492 217.745 527.698 218.945 530.778C223.177 541.371 230.588 550.393 240.158 556.602C249.362 562.62 260.038 565.611 270.001 564.148C272.276 563.824 274.509 563.249 276.658 562.435C282.772 560.129 287.819 555.648 290.834 549.852C293.926 543.611 294.963 536.551 293.797 529.685C293.31 526.412 292.459 523.204 291.26 520.12C287.032 509.53 279.624 500.511 270.056 494.305C260.853 488.287 250.177 485.296 240.214 486.759C237.935 487.08 235.699 487.655 233.547 488.472C227.443 490.765 222.397 495.224 219.371 501C216.281 507.244 215.244 514.306 216.408 521.176L216.417 521.222Z" fill="#6262B3"/>
<path d="M134.445 249.083C138.621 250.256 142.174 253.011 144.352 256.762C146.529 260.513 147.158 264.964 146.106 269.172C145.054 273.379 142.403 277.011 138.717 279.295C135.03 281.58 130.598 282.338 126.362 281.407C122.629 280.459 118.673 281.033 115.363 283.002C112.054 284.971 109.662 288.175 108.714 291.907C107.766 295.64 108.34 299.596 110.309 302.906C112.278 306.216 115.481 308.607 119.214 309.555C123.502 310.64 127.183 313.383 129.448 317.181C131.713 320.98 132.377 325.522 131.293 329.81C130.208 334.098 127.465 337.779 123.667 340.044C119.868 342.309 115.326 342.973 111.038 341.889C98.7871 338.728 88.2859 330.846 81.8306 319.965C75.3752 309.083 73.491 296.089 76.5897 283.822C79.6885 271.556 87.5182 261.015 98.3669 254.505C109.216 247.995 122.2 246.046 134.482 249.083H134.445Z" fill="#6262B3"/>
<path fill-rule="evenodd" clip-rule="evenodd" d="M542.167 188.759C528.556 182.027 513.214 180.944 499.325 187.074L499.353 187.083C484.695 193.583 474.538 206.722 469.973 222.713C465.547 238.24 466.547 256.296 474.038 273.185C481.167 289.407 493.047 301.611 506.445 308.24C520.066 314.972 535.417 316.064 549.306 309.916C563.973 303.426 574.13 290.287 578.686 274.287C583.112 258.759 582.112 240.713 574.63 223.814C567.695 208.157 556.325 196.231 543.417 189.463C543.019 189.213 542.593 188.972 542.167 188.759ZM508.186 218.648C508.603 218.492 509.011 218.312 509.408 218.111C516.445 215.24 524.427 216.018 531.723 219.639C532.047 219.787 532.353 219.916 532.649 220.037C540.503 224.364 546.692 231.182 550.242 239.416C553.945 247.824 554.538 256.416 552.51 263.564C551.644 266.86 550.055 269.921 547.86 272.527C545.664 275.132 542.916 277.217 539.816 278.629C532.612 281.814 524.39 281.083 516.871 277.379C508.587 273.14 502.039 266.146 498.353 257.601C494.64 249.203 494.047 240.611 496.084 233.463C496.923 230.271 498.437 227.296 500.525 224.74C502.613 222.184 505.226 220.107 508.186 218.648Z" fill="#6262B3"/>
</svg>
