<svg width="715" height="716" viewBox="0 0 715 716" fill="none" xmlns="http://www.w3.org/2000/svg">
<path fill-rule="evenodd" clip-rule="evenodd" d="M610.38 105.491C461.537 -43.3422 218.315 -31.3052 84.1485 128.639C-43.3423 280.658 -21.8793 506.324 129.297 632.389C193.407 685.941 274.318 715.223 357.852 715.102C555.074 715.102 714.954 555.213 714.954 358C715.006 311.094 705.789 264.64 687.833 221.306C669.878 177.973 643.537 138.614 610.324 105.491" fill="#3C85F3"/>
<path fill-rule="evenodd" clip-rule="evenodd" d="M357.871 37.2041C535.047 37.2041 678.667 180.834 678.667 358C678.667 535.167 535.047 678.797 357.871 678.797C180.695 678.797 37.0747 535.176 37.0747 358C37.0747 180.824 180.704 37.2041 357.871 37.2041Z" fill="#33AEFF"/>
<path fill-rule="evenodd" clip-rule="evenodd" d="M191.056 151.315C211.307 151.315 231.103 157.32 247.941 168.571C264.779 179.822 277.902 195.814 285.652 214.523C293.401 233.233 295.428 253.821 291.477 273.682C287.525 293.544 277.773 311.788 263.452 326.107C249.132 340.426 230.887 350.177 211.025 354.126C191.163 358.076 170.576 356.047 151.867 348.296C133.158 340.545 117.168 327.42 105.918 310.581C94.6686 293.742 88.6652 273.946 88.667 253.695C88.667 240.249 91.3154 226.935 96.4611 214.513C101.607 202.092 109.149 190.805 118.657 181.298C128.164 171.791 139.452 164.25 151.874 159.105C164.296 153.961 177.61 151.314 191.056 151.315Z" fill="#59BDFF"/>
<path fill-rule="evenodd" clip-rule="evenodd" d="M435.269 46.6763C551.454 209.787 513.908 654.436 203.583 639.324C314.621 700.176 456.084 691.676 560.343 606.834C697.815 495.037 718.528 292.954 606.704 155.528C562.923 101.559 502.734 63.3426 435.269 46.6763Z" fill="#2E9EE8"/>
<path d="M435.741 83.4449C433.917 67.5004 433.908 55.593 435.148 46.6393H435.167C390.664 35.6275 344.324 34.2354 299.241 42.556C317.757 67.9982 313.875 82.4275 311.024 93.0238C307.429 106.383 305.474 113.65 352.111 129.213C357.775 144.056 370.67 148.145 382.095 151.768C390.62 154.471 398.326 156.914 401.602 163.371C426.047 211.537 439.445 158.676 439.445 146.954C439.445 119.556 438.982 111.704 435.741 83.4449Z" fill="#9CE657"/>
<path d="M298.544 192.899C302.391 194.484 305.896 195.928 308.148 195.037C308.642 194.829 309.29 194.222 310.068 193.493C311.744 191.923 314.024 189.786 316.667 189.843C329.278 189.843 319.281 198.667 317.194 200.509C316.963 200.714 316.829 200.832 316.834 200.843C321.371 214.269 294.972 220.76 293.334 212.926C284.059 209.835 282.168 206.985 280.603 204.626C279.914 203.586 279.287 202.642 278.121 201.815C280.688 185.545 290.386 189.539 298.544 192.899Z" fill="#9CE657"/>
<path d="M83.3823 193.821C83.0678 193.67 82.7551 193.52 82.4446 193.371C53.6388 241.65 38.0011 296.64 37.0928 352.852C40.4696 352.368 43.8692 352.059 47.278 351.926C55.737 351.534 63.3048 341.972 68.8807 334.927C75.2675 326.857 79.0408 322.09 78.5465 338.186C77.8084 361.564 96.4651 334.412 100.575 328.43C100.899 327.958 101.133 327.618 101.259 327.445C122.815 298.121 153.232 294.825 184.176 310.297C190.646 313.541 194.327 320.632 198.156 328.009C204.099 339.457 210.398 351.592 228.028 351.102C251.852 350.463 257.611 334.389 245.713 314.065C239.834 304.028 227.5 296.102 203.658 297.954C194.009 298.704 208.584 278.547 223.88 271.602C225.224 270.981 220.76 268.798 213.836 265.413C201.681 259.471 181.947 249.822 172.75 238.408C169.572 234.464 163.344 234.691 156.31 234.947C147.094 235.282 136.493 235.668 129.556 226.788C125.274 221.278 123.892 223.097 122.343 225.138C119.744 228.562 116.671 232.609 98.6483 203.75C96.3403 200.042 89.5398 196.777 83.3823 193.821Z" fill="#9CE657"/>
<path d="M99.565 178.871C106.195 178.186 105.556 171.019 103.371 162.63C99.0187 168.284 94.8952 174.031 91.0002 179.871C93.5557 179.537 96.3891 179.204 99.565 178.871Z" fill="#9CE657"/>
<path d="M143.213 121.054C143.102 120.675 142.991 120.296 142.871 119.908L142.834 119.936C133.405 128.454 124.488 137.522 116.13 147.093C120.296 158.889 122.63 176.843 116.713 184.38C111.611 190.862 145.945 248.269 148.195 201.973C148.543 194.746 153.742 196.509 159.422 198.436C166.268 200.758 173.815 203.318 174.417 190.667C174.961 179.138 170.534 173.168 164.453 164.969C157.91 156.148 149.452 144.744 143.213 121.056L143.213 121.054Z" fill="#9CE657"/>
<path d="M173.327 348.544C168.045 347.826 162.674 347.096 157.25 346.25L157.213 346.278C151.419 345.372 145.888 350.073 139.491 355.512C135.043 359.294 130.176 363.432 124.509 366.288C98.4686 379.495 96.913 378.813 93.1736 377.172C90.1679 375.853 85.7514 373.915 66.0743 378.075C53.1946 380.806 44.3335 382.871 38.1761 384.649C43.4548 449.069 68.1683 510.368 109.046 560.436C116.708 569.84 124.894 578.805 133.565 587.287C134.448 585.644 135.494 584.093 136.685 582.658C150.713 565.706 151.921 553.696 152.762 545.332C153.513 537.862 153.972 533.3 163.009 530.723C187.765 523.659 202.872 526.182 215.236 528.248C234.282 531.429 246.82 533.523 278.093 497.815C308.926 462.63 266.185 392.787 240.769 370.602C223.25 355.331 199.358 352.083 173.327 348.544Z" fill="#9CE657"/>
<path d="M202.272 87.5737C202.648 87.5339 202.925 86.5585 206.056 86.9171C206.507 86.9723 206.962 87.0032 207.417 87.0097C213.574 87.0097 219.028 90.5838 217.843 96.0745C215.14 108.455 207.457 108.021 203.354 107.789C202.397 107.735 201.635 107.691 201.176 107.825C194.972 109.626 197.277 112.928 199.796 116.537C201.627 119.16 203.571 121.945 202.445 124.436C198.296 133.63 194.871 132.454 189.602 127.51C187.133 125.183 187.199 121.57 187.266 117.891C187.326 114.601 187.387 111.258 185.639 108.732C181.973 103.487 181.559 106.541 180.989 110.735C180.363 115.345 179.55 121.333 174.028 119.195C161.447 114.313 170.804 108.157 172.045 107.341C172.129 107.285 172.176 107.255 172.176 107.25C173.649 101.824 177.269 100.054 179.817 98.8076C182.204 97.6403 183.65 96.933 181.509 94.1116C181.503 94.1016 181.255 94.0502 180.818 93.9593C180.035 93.7963 178.642 93.5066 176.935 93.1023C182.053 89.6085 187.241 86.2721 192.5 83.093C193.932 84.1523 195.236 83.7559 196.35 83.4173C197.311 83.1254 198.13 82.8764 198.769 83.6393C201.505 86.8699 201.929 87.6098 202.272 87.5737Z" fill="#9CE657"/>
<path d="M226.815 213.528C213.88 197.408 234.056 200.612 235.778 203.445C235.831 203.525 236.292 203.748 236.984 204.084C240.313 205.697 248.987 209.9 243.269 213.158C240.452 214.792 242.374 217.508 244.089 219.931C245.864 222.439 247.417 224.633 243.269 224.991C225.178 226.534 226.174 221.139 226.934 217.026C227.2 215.585 227.437 214.302 226.815 213.528Z" fill="#9CE657"/>
<path d="M205.038 191.808C204.55 188.251 204.142 185.27 207.908 182.658C209.086 181.839 209.759 181.168 210.284 180.645C211.113 179.82 211.571 179.363 213.056 179.278C231.927 178.01 225.74 188.8 223.184 193.259C222.679 194.14 222.315 194.774 222.315 195.019C222.315 199.567 218.008 202.984 214.515 205.755C210.612 208.851 207.724 211.142 212.991 213.306C215.519 214.362 217.148 219.917 218.296 223.991C212.576 231.831 217.906 234.941 217.83 235.079C217.776 235.177 214.978 233.766 203.482 231.482C203.426 231.362 189.213 223.695 188.611 223.491C188.046 221.445 189.139 215.417 191.167 214.186C206.802 204.678 205.819 197.504 205.038 191.808Z" fill="#9CE657"/>
<path d="M509.343 419.436C509.565 419.463 526.945 415.695 527.445 415.51C545.287 408.686 559.908 404.028 571.935 401.075C570.759 397.602 569.63 393.676 568.556 389.195C562.722 364.732 506.982 337.038 482.167 330.139C440.806 318.676 461.13 263.38 481.722 261.621C482.19 257.081 480.988 251.073 479.79 245.081C476.381 228.037 472.999 211.127 508.13 228.528C509.286 229.1 511.631 225.576 514.793 220.824C525.866 204.183 546.962 172.479 562.13 248.825C573.509 306.093 687.926 185.473 560.759 156.047C559.917 155.853 557.95 155.19 555.243 154.277C538.672 148.688 494.346 133.739 510.121 159.797C514.945 160.075 549.509 167.556 521.361 180.963C519.402 181.896 516.625 184.701 513.376 187.982C503.62 197.835 489.611 211.984 480.713 192.639C474.882 179.955 480.172 177.466 480.14 177.396C480.115 177.34 476.732 178.81 461.75 177.908C452.509 177.35 456.659 168.274 461.939 156.725C466.034 147.769 470.809 137.325 470.546 128.213C470.287 119.176 492.926 98.2041 501.259 93.1949C509.349 91.8443 507.938 89.8029 505.978 86.9672C503.867 83.9123 501.118 79.9355 508.926 74.9079C546.569 94.9914 579.814 122.403 606.704 155.528C718.528 292.954 697.815 495.037 560.334 606.797C542.225 621.539 522.566 634.269 501.704 644.76C497.139 637.278 491.954 630.334 487.602 626.297C477.097 616.567 474.185 608.528 471.8 601.943C469.344 595.162 467.447 589.924 458.389 585.973C423.241 570.681 422.79 546.447 422.473 529.416C422.309 520.573 422.18 513.672 417.25 510.973C389.13 495.556 415.139 469.658 435.982 468.825C468.132 467.533 478.307 450.522 486.514 436.804C492.542 426.726 497.508 418.424 509.343 419.436Z" fill="#9CE657"/>
</svg>
