<svg width="697" height="700" viewBox="0 0 697 700" fill="none" xmlns="http://www.w3.org/2000/svg">
<path d="M663.896 0.925781C667.815 0.925781 671.646 2.08791 674.905 4.26518C678.163 6.44246 680.703 9.53711 682.203 13.1578C683.702 16.7785 684.095 20.7626 683.33 24.6063C682.566 28.45 680.679 31.9806 677.907 34.7518C675.136 37.5229 671.606 39.4101 667.762 40.1747C663.918 40.9392 659.934 40.5468 656.313 39.0471C652.693 37.5474 649.598 35.0076 647.421 31.7491C645.244 28.4906 644.081 24.6596 644.081 20.7406C644.084 15.4861 646.172 10.4476 649.888 6.73212C653.603 3.01664 658.642 0.92824 663.896 0.925781Z" fill="#323286"/>
<path d="M364.431 82.8376C359.796 79.8845 354.411 78.3242 348.915 78.342L348.961 78.3791C342.85 78.348 336.889 80.2681 331.945 83.8597C327.001 87.4513 323.332 92.5271 321.473 98.3483C319.613 104.169 319.66 110.432 321.606 116.225C323.553 122.017 327.297 127.038 332.294 130.555V351.379C269.422 354.284 208.532 374.276 156.174 409.203C149.072 405.671 141.095 404.282 133.217 405.206C125.338 406.129 117.899 409.326 111.806 414.404C105.713 419.483 101.23 426.225 98.9032 433.809C96.5763 441.392 96.5063 449.488 98.7018 457.111C92.961 463.043 87.4364 469.175 82.1277 475.509C29.5231 538.116 0.735663 617.3 0.849948 699.073H697.007C697.124 632.581 678.105 567.459 642.22 511.481C643.599 508.191 644.114 504.604 643.715 501.059C643.317 497.515 642.018 494.131 639.944 491.23C637.869 488.328 635.087 486.006 631.862 484.483C628.636 482.959 625.075 482.286 621.517 482.527C613.262 472.159 604.427 462.267 595.054 452.898C533.904 391.599 452.044 355.379 365.554 351.351V281.185C379.48 277.907 405.341 274.888 431.443 287.777C455.831 299.814 477.239 307.398 496.868 309.073C517.924 310.879 536.563 306.073 553.831 293.009C556.199 291.503 558.149 289.423 559.499 286.963C560.849 284.502 561.555 281.741 561.554 278.935V158.046H561.498C561.481 154.938 560.596 151.898 558.943 149.267C557.289 146.636 554.933 144.52 552.14 143.157C549.348 141.795 546.23 141.24 543.138 141.556C540.047 141.871 537.106 143.045 534.646 144.944C524.239 153.092 512.785 156.074 499.618 154.944C484.507 153.685 466.906 147.203 446.183 137.018C418.313 123.277 390.544 123.009 370.813 125.712C374.387 121.537 376.687 116.424 377.441 110.98C378.194 105.536 377.369 99.9899 375.063 95.0012C372.756 90.0125 369.066 85.7908 364.431 82.8376Z" fill="#323286"/>
<path d="M246.387 224.722C246.521 220.783 248.149 217.041 250.943 214.259C253.722 211.469 257.46 209.84 261.396 209.704C263.167 209.704 264.865 209.001 266.117 207.749C267.369 206.497 268.072 204.799 268.072 203.028C268.072 201.257 267.369 199.559 266.117 198.307C264.865 197.055 263.167 196.352 261.396 196.352C257.463 196.208 253.73 194.581 250.946 191.799C248.163 189.017 246.534 185.285 246.387 181.352C246.387 179.581 245.684 177.883 244.432 176.631C243.18 175.379 241.482 174.676 239.711 174.676C237.94 174.676 236.242 175.379 234.99 176.631C233.738 177.883 233.035 179.581 233.035 181.352C232.888 185.285 231.259 189.017 228.476 191.799C225.692 194.581 221.959 196.208 218.026 196.352C216.255 196.352 214.557 197.055 213.305 198.307C212.053 199.559 211.35 201.257 211.35 203.028C211.35 204.799 212.053 206.497 213.305 207.749C214.557 209.001 216.255 209.704 218.026 209.704C221.962 209.849 225.697 211.478 228.482 214.264C231.266 217.05 232.893 220.786 233.035 224.722C233.035 226.493 233.738 228.191 234.99 229.443C236.242 230.695 237.94 231.398 239.711 231.398C241.482 231.398 243.18 230.695 244.432 229.443C245.684 228.191 246.387 226.493 246.387 224.722Z" fill="#323286"/>
<path d="M123.263 298.374C120.002 296.196 116.169 295.035 112.248 295.037V294.999C106.994 295.002 101.957 297.091 98.2428 300.806C94.5289 304.522 92.4425 309.561 92.4425 314.814C92.4352 318.735 93.5913 322.57 95.7645 325.834C97.9378 329.097 101.03 331.643 104.651 333.148C108.272 334.653 112.257 335.05 116.104 334.289C119.95 333.528 123.484 331.643 126.259 328.872C129.033 326.102 130.923 322.57 131.69 318.725C132.456 314.88 132.065 310.893 130.565 307.271C129.065 303.648 126.523 300.552 123.263 298.374Z" fill="#323286"/>
<path d="M590.896 354.741C593.321 354.742 595.691 355.463 597.706 356.812C599.721 358.16 601.29 360.076 602.217 362.317C603.143 364.558 603.384 367.023 602.909 369.401C602.434 371.778 601.265 373.962 599.549 375.675C597.833 377.388 595.648 378.554 593.27 379.025C590.891 379.497 588.426 379.252 586.187 378.322C583.948 377.393 582.034 375.82 580.689 373.803C579.343 371.786 578.626 369.415 578.628 366.991C578.628 363.742 579.918 360.626 582.216 358.329C584.513 356.031 587.629 354.741 590.878 354.741H590.896Z" fill="#323286"/>
<path d="M211.866 6.42992C209.853 5.08277 207.485 4.36277 205.063 4.36093C203.453 4.35972 201.86 4.67567 200.372 5.29074C198.885 5.90583 197.533 6.80795 196.395 7.94559C195.256 9.08323 194.353 10.4341 193.737 11.9209C193.121 13.4078 192.804 15.0015 192.804 16.6109C192.804 19.0334 193.522 21.4014 194.868 23.4157C196.213 25.43 198.126 27.0001 200.364 27.9276C202.601 28.855 205.064 29.0981 207.44 28.6262C209.816 28.1543 211.999 26.9885 213.712 25.2763C215.426 23.564 216.593 21.3821 217.067 19.0065C217.541 16.6308 217.3 14.168 216.374 11.9295C215.448 9.69091 213.879 7.77709 211.866 6.42992Z" fill="#323286"/>
<path fill-rule="evenodd" clip-rule="evenodd" d="M348.915 386.333C521.619 386.333 661.619 526.334 661.619 699.037H36.2112C36.2112 526.334 176.211 386.333 348.915 386.333Z" fill="#76469C"/>
<path fill-rule="evenodd" clip-rule="evenodd" d="M192.035 483.472C199.512 483.468 206.966 484.303 214.257 485.963C212.417 494.643 213.046 503.664 216.074 512.004C219.101 520.344 224.404 527.669 231.383 533.148C238.362 538.627 246.737 542.04 255.557 543.001C264.377 543.962 273.29 542.431 281.285 538.584C291.012 558.003 294.14 580.065 290.194 601.423C286.247 622.781 275.442 642.269 259.418 656.93C243.393 671.591 223.024 680.626 201.4 682.662C179.776 684.699 158.078 679.627 139.598 668.215C121.118 656.804 106.864 639.676 98.9993 619.431C91.1346 599.185 90.0881 576.927 96.0186 556.033C101.949 535.139 114.533 516.749 131.861 503.654C149.189 490.559 170.315 483.474 192.035 483.472Z" fill="#906AAF"/>
<path fill-rule="evenodd" clip-rule="evenodd" d="M424.341 395.5C473.591 464.583 494.498 585.555 477.582 699.037H661.637C661.637 552.333 560.609 429.25 424.341 395.509" fill="#5B3E93"/>
<path fill-rule="evenodd" clip-rule="evenodd" d="M244.692 435.769C261.155 428.63 278.562 428.556 293.034 437.241C307.599 446 315.757 461.454 317.155 479.343C318.405 495.222 314.192 513.324 304.247 529.861C294.294 546.398 280.247 558.611 265.562 564.991C249.118 572.13 231.701 572.204 217.229 563.509C202.664 554.741 194.507 539.296 193.108 521.407C191.858 505.528 196.071 487.426 206.016 470.889C215.96 454.352 230.016 442.185 244.692 435.769ZM276.71 466.324C276.192 466.041 275.688 465.732 275.201 465.398C270.506 463.009 264.275 463.546 257.858 466.324C249.294 470.028 240.849 477.565 234.571 488.009C228.294 498.454 225.608 509.463 226.34 518.852C226.895 525.843 229.34 531.574 233.581 534.593C234.096 534.876 234.597 535.185 235.081 535.519C239.775 537.907 246.016 537.37 252.432 534.593C260.997 530.889 269.442 523.352 275.719 512.907C281.997 502.463 284.682 491.445 283.942 482.065C283.395 475 280.942 469.25 276.71 466.278V466.324Z" fill="#323286"/>
<path d="M132.331 579.176C136.552 580.308 140.16 583.054 142.376 586.821C144.593 590.588 145.241 595.075 144.181 599.315C143.121 603.556 140.437 607.21 136.709 609.491C132.98 611.771 128.505 612.496 124.247 611.509C120.541 610.641 116.642 611.262 113.389 613.239C110.137 615.216 107.789 618.39 106.853 622.079C105.916 625.769 106.465 629.678 108.381 632.967C110.297 636.256 113.428 638.662 117.099 639.666C121.385 640.756 125.064 643.503 127.325 647.304C129.585 651.105 130.244 655.649 129.155 659.935C128.066 664.221 125.318 667.9 121.517 670.16C117.716 672.421 113.173 673.08 108.886 671.991C102.792 670.451 97.0603 667.726 92.019 663.972C86.9777 660.218 82.7253 655.507 79.5044 650.109C72.9997 639.208 71.092 626.169 74.2009 613.861C77.3098 601.553 85.1807 590.984 96.0822 584.479C106.984 577.975 120.023 576.067 132.331 579.176Z" fill="#323286"/>
<path fill-rule="evenodd" clip-rule="evenodd" d="M542.284 538.796C528.673 532.064 513.321 530.972 499.432 537.111L499.423 537.12C484.757 543.611 474.608 556.759 470.043 572.75C465.618 588.277 466.618 606.333 474.099 623.222C481.284 639.444 493.164 651.648 506.571 658.277C520.182 665 535.534 666.092 549.423 659.953C564.081 653.453 574.247 640.314 578.803 624.324C583.229 608.796 582.229 590.75 574.738 573.842C567.812 558.194 556.442 546.259 543.534 539.5C543.127 539.25 542.71 539.009 542.284 538.796ZM508.303 568.685C508.718 568.53 509.123 568.351 509.516 568.148C516.59 565.277 524.534 566.055 531.84 569.685C532.155 569.824 532.46 569.963 532.766 570.083C540.624 574.404 546.816 581.224 550.358 589.463C554.071 597.861 554.664 606.463 552.627 613.601C551.762 616.897 550.175 619.96 547.981 622.567C545.788 625.174 543.041 627.26 539.942 628.676C532.729 631.851 524.506 631.129 516.988 627.426C508.701 623.19 502.152 616.195 498.469 607.648C494.756 599.24 494.164 590.657 496.201 583.5C497.039 580.307 498.553 577.332 500.641 574.776C502.729 572.22 505.342 570.143 508.303 568.685Z" fill="#323286"/>
<path fill-rule="evenodd" clip-rule="evenodd" d="M431.453 166.879C405.37 154.009 379.537 157.009 365.602 160.268V247.407C385.463 243.963 415.768 242.907 446.157 257.916C466.879 268.101 484.481 274.583 499.592 275.842C510.092 276.768 519.509 275.018 528.166 270.148V185.324C518.003 188.252 507.377 189.222 496.852 188.185C477.222 186.509 455.815 178.926 431.426 166.888" fill="#FFF48C"/>
<path fill-rule="evenodd" clip-rule="evenodd" d="M528.194 228.287C470.185 247.065 436.787 190.676 365.602 203.241V247.408C385.463 243.963 415.768 242.908 446.157 257.917C466.879 268.102 484.481 274.583 499.592 275.843C510.092 276.769 519.509 275.019 528.166 270.148L528.194 228.287Z" fill="#FBCF00"/>
</svg>
