<svg width="715" height="716" viewBox="0 0 715 716" fill="none" xmlns="http://www.w3.org/2000/svg">
<path fill-rule="evenodd" clip-rule="evenodd" d="M609.723 105.482C460.889 -43.3517 217.667 -31.3147 83.5097 128.63C-43.9903 280.648 -22.5274 506.306 128.676 632.333C270.491 750.593 479.167 741.056 609.723 610.5C749.186 471.037 749.176 244.954 609.723 105.482Z" fill="#323286"/>
<path fill-rule="evenodd" clip-rule="evenodd" d="M357.222 37.1948C534.398 37.1948 678.018 180.824 678.018 358C678.018 535.176 534.398 678.787 357.222 678.787C180.046 678.787 36.4258 535.167 36.4258 358C36.4258 180.834 180.055 37.1948 357.222 37.1948Z" fill="#76469C"/>
<path fill-rule="evenodd" clip-rule="evenodd" d="M434.63 46.6575C550.805 209.778 513.259 654.426 202.935 639.324C313.972 700.167 455.435 691.657 559.694 606.824C697.12 495.037 717.88 292.945 606.074 155.519C562.289 101.548 502.098 63.3289 434.63 46.6575Z" fill="#5B3E93"/>
<path d="M619.434 412.59C615.515 414.808 612.627 418.482 611.398 422.815C593.028 490.405 549.265 548.29 489.241 584.389C485.357 586.729 482.562 590.516 481.471 594.917C480.38 599.318 481.081 603.973 483.421 607.856C485.762 611.74 489.549 614.535 493.95 615.626C498.351 616.718 503.005 616.016 506.889 613.676C574.441 573.005 623.706 507.848 644.426 431.768C645.554 427.408 644.917 422.779 642.654 418.885C640.391 414.991 636.684 412.147 632.338 410.968C627.991 409.79 623.354 410.373 619.434 412.59Z" fill="#323286"/>
<path d="M448.093 606.132C445.842 606.04 443.595 606.395 441.482 607.176C437.408 608.651 432.753 610.176 427.519 611.75C422.42 613.287 417.676 614.587 413.287 615.648C408.958 616.777 405.245 619.561 402.948 623.4C400.651 627.24 399.954 631.827 401.006 636.176C402.059 640.524 404.777 644.285 408.575 646.649C412.374 649.013 416.949 649.791 421.315 648.815C427.185 647.383 432.51 645.948 437.287 644.51C442.065 643.071 447.297 641.324 452.982 639.269C455.11 638.53 457.072 637.377 458.752 635.876C460.432 634.375 461.798 632.556 462.771 630.523C463.744 628.491 464.304 626.286 464.419 624.036C464.534 621.786 464.202 619.535 463.442 617.414C462.682 615.293 461.509 613.343 459.991 611.678C458.473 610.013 456.64 608.666 454.597 607.714C452.555 606.762 450.345 606.224 448.093 606.132Z" fill="#323286"/>
<path fill-rule="evenodd" clip-rule="evenodd" d="M341.538 37.5652C171.649 45.7411 36.4268 186.074 36.4268 358C36.4268 479.649 104.084 585.389 203.871 639.843C246.286 662.857 293.339 676.026 341.538 678.371C346.76 678.63 351.982 678.763 357.204 678.769V37.1948C351.951 37.1948 346.729 37.3183 341.538 37.5652Z" fill="#FFF48C"/>
<path fill-rule="evenodd" clip-rule="evenodd" d="M102.556 501.519C74.5256 465.461 55.7594 423.082 47.9 378.092C40.0406 333.102 43.3274 286.871 57.4729 243.445C38.8911 292.03 32.4039 344.405 38.5708 396.056C44.7377 447.706 63.3735 497.082 92.8717 539.926C122.37 582.771 161.845 617.798 207.895 641.989C253.945 666.181 305.187 678.81 357.204 678.787V599.241C289.177 645.121 147.658 559.584 102.575 501.556" fill="#FBCF00"/>
<path fill-rule="evenodd" clip-rule="evenodd" d="M194.778 151.305C215.029 151.303 234.827 157.307 251.666 168.557C268.505 179.807 281.63 195.798 289.381 214.507C297.131 233.217 299.16 253.805 295.209 273.667C291.259 293.529 281.507 311.774 267.187 326.094C252.867 340.414 234.623 350.166 214.76 354.116C194.898 358.066 174.31 356.038 155.601 348.287C136.891 340.537 120.9 327.412 109.65 310.573C98.4003 293.733 92.3966 273.936 92.3984 253.685C92.4009 226.533 103.188 200.494 122.387 181.294C141.587 162.095 167.626 151.308 194.778 151.305Z" fill="#FFFDEA"/>
</svg>
