<svg width="716" height="716" viewBox="0 0 716 716" fill="none" xmlns="http://www.w3.org/2000/svg">
<path fill-rule="evenodd" clip-rule="evenodd" d="M610.481 105.481C461.648 -43.3426 218.416 -31.3241 84.2588 128.63C-43.232 280.639 -21.7597 506.306 129.435 632.333C271.25 750.593 479.925 741.056 610.481 610.5C749.944 471.037 749.935 244.944 610.481 105.481Z" fill="#D64536"/>
<path fill-rule="evenodd" clip-rule="evenodd" d="M357.999 37.1942C535.166 37.1942 678.796 180.824 678.796 357.991C678.796 535.157 535.148 678.787 357.999 678.787C180.851 678.787 37.1846 535.157 37.1846 358C37.1846 180.842 180.814 37.1942 357.999 37.1942Z" fill="#FF9359"/>
<path fill-rule="evenodd" clip-rule="evenodd" d="M191.167 151.305C211.418 151.303 231.215 157.307 248.054 168.557C264.894 179.807 278.019 195.798 285.769 214.507C293.52 233.217 295.548 253.804 291.598 273.667C287.648 293.529 277.896 311.774 263.576 326.094C249.256 340.414 231.011 350.166 211.149 354.116C191.286 358.066 170.699 356.038 151.989 348.287C133.28 340.537 117.289 327.412 106.039 310.572C94.789 293.733 88.7853 273.936 88.7871 253.685C88.7871 226.532 99.5735 200.491 118.773 181.291C137.973 162.092 164.014 151.305 191.167 151.305Z" fill="#FFA87A"/>
<path fill-rule="evenodd" clip-rule="evenodd" d="M435.389 46.6574C551.565 209.769 514.009 654.435 203.694 639.324C314.731 700.167 456.185 691.657 560.454 606.824C697.88 495 718.639 292.935 606.815 155.519C563.035 101.551 502.851 63.3325 435.389 46.6574Z" fill="#FF775B"/>
<path fill-rule="evenodd" clip-rule="evenodd" d="M678.629 348.583C670.361 359.695 661.824 370.806 653.398 382.028C599.166 453.963 468.99 606.204 644.777 499.13L646.694 497.954C669.163 451.445 680.116 400.214 678.629 348.583ZM559.518 108.352C501.009 171.889 424.666 246.658 376.592 323.176C213.888 582.259 483.073 298.62 631.296 190C612.163 158.918 587.892 131.31 559.518 108.352ZM212.805 644.111C327.62 605.065 713.277 271.889 359.286 678.759C308.408 678.946 258.209 667.072 212.805 644.111ZM136.064 589.667C203.888 526.343 300.694 419.296 208.453 574.232C194.073 598.371 186.277 615.583 183.638 627.333C166.62 616.324 150.69 603.717 136.064 589.685V589.667ZM61.305 480.222C162.323 395.102 339.083 229.75 345.805 243.685C370.527 294.556 167.611 441.065 100.435 549.241C84.5768 527.948 71.4325 504.764 61.305 480.222ZM37.8235 338.046C139.564 238.398 278.851 170.037 64.8698 427.445C59.3142 434.102 54.305 440.241 49.4624 446.167C39.4688 411.05 35.5329 374.486 37.8235 338.046ZM328.583 38.5557C229.111 183.38 331.314 125.935 427.925 44.9446C395.341 37.6912 361.828 35.536 328.583 38.5557Z" fill="#EC604A"/>
</svg>
