<svg width="715" height="716" viewBox="0 0 715 716" fill="none" xmlns="http://www.w3.org/2000/svg">
<path fill-rule="evenodd" clip-rule="evenodd" d="M609.926 105.491C461.093 -43.3422 217.871 -31.3052 83.704 128.639C-43.7867 280.649 -22.3238 506.315 128.871 632.343C270.695 750.639 479.371 741.065 609.926 610.5C749.389 471.047 749.38 244.954 609.926 105.491Z" fill="#587AFC"/>
<path fill-rule="evenodd" clip-rule="evenodd" d="M357.426 37.1943C534.602 37.1943 678.222 180.833 678.222 357.991C678.222 535.148 534.602 678.796 357.426 678.796C180.25 678.796 36.6299 535.167 36.6299 358C36.6299 180.833 180.26 37.1943 357.426 37.1943Z" fill="#90B4FF"/>
<path fill-rule="evenodd" clip-rule="evenodd" d="M190.613 151.306C210.863 151.306 230.659 157.311 247.497 168.561C264.335 179.812 277.458 195.803 285.208 214.512C292.957 233.221 294.985 253.808 291.034 273.67C287.083 293.531 277.332 311.775 263.012 326.094C248.693 340.414 230.449 350.165 210.588 354.116C190.726 358.067 170.139 356.039 151.43 348.29C132.721 340.54 116.73 327.417 105.479 310.579C94.2286 293.741 88.2236 273.945 88.2236 253.695C88.2224 240.248 90.87 226.934 96.0151 214.511C101.16 202.088 108.702 190.8 118.21 181.292C127.718 171.784 139.006 164.242 151.429 159.097C163.852 153.952 177.166 151.304 190.613 151.306Z" fill="#9AC1FC"/>
<path fill-rule="evenodd" clip-rule="evenodd" d="M434.777 46.6113C550.999 209.658 513.481 654.398 203.166 639.324C250.424 665.299 303.491 678.878 357.416 678.797C534.592 678.797 678.212 535.167 678.212 357.991C678.222 207.5 574.592 81.2317 434.777 46.6113Z" fill="#6D98FB"/>
<path fill-rule="evenodd" clip-rule="evenodd" d="M138.483 592.528C337.872 578.569 527.289 500.047 678.075 368.843C678.747 349.553 677.666 330.243 674.844 311.149C521.955 461.642 317.514 548.296 103.048 553.51C113.761 567.473 125.613 580.523 138.483 592.528ZM56.1865 468.352C166.972 473.288 277.455 453.324 379.508 409.93C481.56 366.536 572.586 300.815 645.89 217.602C639.082 203.59 631.258 190.094 622.483 177.223C552.017 260.831 463.163 327.002 362.872 370.562C262.581 414.122 153.572 433.888 44.3717 428.315C47.4272 441.906 51.374 455.28 56.1865 468.352ZM36.918 343.491C250.52 343.352 429.224 261.945 563.251 111.852C551.756 102.248 539.6 93.4638 526.872 85.5653C465.971 152.995 391.224 206.473 307.743 242.342C224.263 278.211 134.019 295.624 43.1865 293.389C39.7982 309.902 37.7023 326.653 36.918 343.491ZM67.4735 220.639C220.967 205.565 354.399 150.936 467.77 56.7504C455.733 52.6764 449.122 50.269 436.501 47.0653C423.834 43.8453 410.983 41.3964 398.02 39.7319C323.711 109.966 224.375 152.201 100.011 166.436C86.5198 185.223 77.455 199.593 67.5106 220.639H67.4735ZM657.52 471.306C530.224 581.571 390.288 643.003 237.714 655.602C262.585 665.596 288.603 672.454 315.168 676.019C422.77 661.306 524.52 616.149 610.538 555.149C630.315 529.715 646.153 501.452 657.52 471.306Z" fill="#6887FB"/>
</svg>
