<svg width="887" height="698" viewBox="0 0 887 698" fill="none" xmlns="http://www.w3.org/2000/svg">
<path fill-rule="evenodd" clip-rule="evenodd" d="M695.722 102.843C550.638 -42.2313 313.546 -30.4906 182.759 125.417C58.4811 273.565 79.407 493.565 226.787 616.454C365.027 731.722 568.453 722.398 695.713 595.158C831.666 459.185 831.657 238.815 695.722 102.843Z" fill="#EE7002"/>
<path fill-rule="evenodd" clip-rule="evenodd" d="M449.555 36.2776C622.259 36.2776 762.259 176.287 762.259 348.991C762.259 521.694 622.296 661.694 449.555 661.694C276.815 661.694 136.879 521.685 136.879 349C136.879 176.315 276.879 36.2776 449.555 36.2776Z" fill="#F6D095"/>
<path fill-rule="evenodd" clip-rule="evenodd" d="M286.972 147.509C306.712 147.507 326.009 153.359 342.424 164.325C358.838 175.29 371.632 190.877 379.187 209.114C386.742 227.351 388.72 247.419 384.87 266.78C381.02 286.141 371.515 303.925 357.558 317.884C343.6 331.843 325.816 341.35 306.456 345.202C287.095 349.053 267.027 347.077 248.79 339.524C230.552 331.97 214.964 319.178 203.997 302.764C193.03 286.351 187.176 267.055 187.176 247.314C187.176 220.846 197.69 195.461 216.405 176.745C235.12 158.028 260.504 147.511 286.972 147.509Z" fill="#FBE1BA"/>
<path fill-rule="evenodd" clip-rule="evenodd" d="M525 45.4536C638.287 204.389 601.722 637.917 299.222 623.231C345.283 648.538 397.001 661.77 449.555 661.694C622.259 661.694 762.259 521.685 762.259 348.991C762.259 202.287 661.231 79.1944 524.963 45.4536" fill="#F3BD86"/>
<path fill-rule="evenodd" clip-rule="evenodd" d="M154.231 451.898C332.571 530.387 531.623 548.65 721.268 503.926C730.601 487.595 738.433 470.45 744.666 452.704C544.462 513.104 328.772 495.035 141.407 402.167C144.3 419.07 148.589 435.704 154.231 451.898ZM139.639 307.454C232.959 361.998 337.319 394.929 445.044 403.824C552.769 412.719 661.118 397.351 762.12 358.852C762.617 343.676 761.999 328.483 760.268 313.398C661.53 353.525 554.847 370.263 448.564 362.304C342.281 354.345 239.281 321.904 147.62 267.518C144.085 280.631 141.419 293.962 139.639 307.426V307.454ZM179.703 191.009C364.018 287.833 555.111 298.722 738.889 230.111C733.331 216.608 726.834 203.511 719.444 190.916C636.303 221.428 547.552 233.622 459.262 226.666C370.972 219.71 285.226 193.766 207.889 150.611C197.445 163.305 188.021 176.803 179.703 190.981V191.009ZM261.861 98.9072C401.102 155.574 540.997 169.031 681.546 139.278C673.018 130.296 668.398 125.241 658.963 116.731C649.504 108.201 639.535 100.254 629.111 92.935C533.111 119.762 428.244 111.08 314.509 66.8887C294.342 76.9721 280 85.2498 261.861 98.8795V98.9072ZM657.018 582.972C497.142 620.287 348.54 609.75 211.213 551.361C228.129 571.278 247.464 589.007 268.768 604.139C368.25 640.296 476.537 647.537 578.463 633.991C607.054 621.012 633.535 603.815 657.018 582.972Z" fill="#EE9553"/>
<path fill-rule="evenodd" clip-rule="evenodd" d="M777.092 467.028C992.713 647.824 842.583 643.88 724.129 618.361C427.602 554.389 245.213 511.547 60.0368 269.232C-4.57431 184.676 -65.8891 82.4262 162.342 152.269C154.324 164.047 136.768 241.306 132.926 254.639C196.157 308.972 287.852 388.963 414.157 449.269C527.99 503.63 631.111 521.463 707.889 537.658L777.092 467.028Z" fill="#EE7002"/>
</svg>
