<svg width="715" height="716" viewBox="0 0 715 716" fill="none" xmlns="http://www.w3.org/2000/svg">
<path fill-rule="evenodd" clip-rule="evenodd" d="M609.704 105.481C460.862 -43.352 217.64 -31.3149 83.4822 128.63C-44.0178 280.648 -22.5455 506.305 128.649 632.333C270.464 750.592 479.14 741.055 609.704 610.5C749.158 471.037 749.158 244.954 609.704 105.481Z" fill="#323286"/>
<path fill-rule="evenodd" clip-rule="evenodd" d="M357.195 37.1946C534.371 37.1946 678.001 180.824 678.001 357.991C678.001 535.158 534.371 678.787 357.195 678.787C180.019 678.787 36.3989 535.167 36.3989 358C36.3989 180.833 180.029 37.1946 357.195 37.1946Z" fill="#76469C"/>
<path fill-rule="evenodd" clip-rule="evenodd" d="M434.603 46.6572C550.788 209.778 513.223 654.426 202.917 639.324C313.945 700.167 455.408 691.657 559.668 606.824C697.093 495.037 717.853 292.944 606.075 155.518C562.283 101.543 502.081 63.3231 434.603 46.6572Z" fill="#5B3E93"/>
<path d="M575.621 217.84C575.938 220.065 576.69 222.205 577.834 224.139C613.459 284.448 624.422 356.183 608.436 424.38C607.925 426.568 607.851 428.836 608.216 431.054C608.582 433.271 609.381 435.395 610.568 437.304C611.754 439.213 613.305 440.869 615.132 442.178C616.958 443.488 619.025 444.425 621.214 444.935C623.402 445.446 625.67 445.521 627.888 445.155C630.105 444.789 632.229 443.99 634.138 442.804C636.047 441.617 637.703 440.066 639.012 438.239C640.322 436.413 641.259 434.346 641.769 432.158C659.725 355.373 647.374 274.621 607.288 206.713C604.977 202.807 601.209 199.979 596.813 198.852C592.418 197.724 587.754 198.388 583.848 200.699C579.942 203.01 577.114 206.778 575.987 211.174C575.428 213.35 575.304 215.615 575.621 217.84Z" fill="#323286"/>
<path d="M601.046 465.786C596.84 467.323 593.408 470.453 591.491 474.5L591.51 474.435C589.707 478.386 587.547 482.784 585.028 487.63C582.572 492.383 580.195 496.704 577.899 500.593C576.756 502.522 576.004 504.657 575.686 506.877C575.368 509.096 575.491 511.357 576.047 513.529C576.603 515.701 577.581 517.743 578.926 519.537C580.271 521.331 581.956 522.843 583.885 523.986C585.814 525.129 587.949 525.881 590.169 526.199C592.389 526.517 594.649 526.394 596.821 525.838C598.994 525.282 601.035 524.304 602.829 522.959C604.624 521.614 606.135 519.929 607.278 518C610.365 512.803 613.05 507.985 615.334 503.546C617.618 499.108 620.01 494.139 622.51 488.639C624.307 484.538 624.419 479.894 622.821 475.711C621.222 471.528 618.042 468.143 613.968 466.285C609.893 464.428 605.251 464.249 601.046 465.786Z" fill="#323286"/>
<path fill-rule="evenodd" clip-rule="evenodd" d="M459.584 661.778C416.895 676.025 371.688 681.145 326.894 676.806C282.099 672.467 238.716 658.765 199.554 636.59C160.393 614.414 126.327 584.258 99.5632 548.077C72.7998 511.895 53.936 470.495 44.1939 426.558C34.4518 382.62 34.0487 337.127 43.0109 293.024C51.973 248.921 70.1004 207.193 96.2185 170.543C122.337 133.892 155.863 103.138 194.626 80.2721C233.388 57.406 276.522 42.9382 321.233 37.8061C327.747 37.0915 334.32 38.464 340.003 41.7258C345.687 44.9876 350.188 49.9701 352.858 55.9549C355.527 61.9398 356.227 68.6178 354.857 75.0262C353.487 81.4345 350.116 87.2421 345.232 91.6116C343.603 93.0653 341.779 94.3894 340.057 95.695C297.345 128.858 266.064 174.539 250.588 226.352C235.112 278.165 236.214 333.519 253.742 384.675C271.269 435.83 304.344 480.229 348.343 511.665C392.342 543.1 445.065 560 499.14 560C505.02 560 510.001 559.871 514.14 559.639C518.77 559.371 523.733 558.936 528.89 558.352C534.926 557.679 541.027 558.798 546.432 561.569C551.836 564.341 556.305 568.643 559.28 573.938C562.256 579.233 563.606 585.287 563.163 591.344C562.72 597.402 560.503 603.195 556.788 608.001C542.205 626.945 482.612 654.139 459.566 661.825" fill="#FFF48C"/>
<path fill-rule="evenodd" clip-rule="evenodd" d="M542.621 559.936C437.316 613.102 306.01 601.88 210.13 521.13C82.2415 413.426 65.5378 222.584 172.742 94.2966C109.616 138.692 64.5787 204.326 45.865 279.196C27.1513 354.067 36.0116 433.172 70.8256 502.047C105.64 570.922 164.081 624.965 235.465 654.295C306.848 683.625 386.403 686.281 459.584 661.778C482.612 654.093 542.204 626.898 556.806 607.954C559.785 604.084 561.804 599.564 562.7 594.763C563.596 589.963 563.343 585.018 561.961 580.334C560.579 575.651 558.108 571.36 554.75 567.815C551.391 564.269 547.242 561.569 542.64 559.936" fill="#FBCF00"/>
</svg>
