<svg width="833" height="860" viewBox="0 0 833 860" fill="none" xmlns="http://www.w3.org/2000/svg">
<path d="M520.071 63.0864C521.716 61.5959 523.045 59.7909 523.981 57.778L540.851 24.0743C542.675 20.1505 542.895 15.67 541.466 11.5861C540.036 7.50225 537.07 4.13727 533.197 2.20709C529.325 0.276913 524.852 -0.0661275 520.731 1.25097C516.609 2.56806 513.164 5.44131 511.129 9.25947L494.259 42.9632C493.214 44.9219 492.573 47.07 492.373 49.2807C492.173 51.4913 492.418 53.7196 493.094 55.8339C493.77 57.9483 494.862 59.9057 496.307 61.5907C497.752 63.2757 499.52 64.654 501.507 65.6441C503.493 66.6343 505.658 67.2164 507.873 67.3558C510.089 67.4952 512.31 67.1893 514.405 66.456C516.5 65.7227 518.426 64.5769 520.071 63.0864Z" fill="#EE7002"/>
<path d="M542.129 321.491C539 324.619 534.757 326.377 530.333 326.377C525.908 326.377 521.665 324.619 518.536 321.491C515.408 318.362 513.65 314.119 513.65 309.694C513.65 305.27 515.408 301.026 518.536 297.898L751.258 65.185C754.387 62.0564 758.63 60.2988 763.055 60.2988C767.479 60.2988 771.722 62.0564 774.851 65.185C777.98 68.3136 779.737 72.5568 779.737 76.9813C779.737 81.4058 777.98 85.649 774.851 88.7776L542.129 321.491Z" fill="#EE7002"/>
<path d="M393.777 103.148C392.385 104.53 391.574 106.391 391.508 108.352C391.508 109.233 391.158 110.079 390.535 110.702C389.911 111.325 389.066 111.676 388.184 111.676C387.303 111.676 386.457 111.325 385.834 110.702C385.21 110.079 384.86 109.233 384.86 108.352C384.789 106.393 383.978 104.535 382.592 103.15C381.206 101.766 379.346 100.958 377.388 100.889C376.506 100.889 375.661 100.538 375.038 99.9151C374.414 99.2917 374.064 98.4462 374.064 97.5646C374.064 96.683 374.414 95.8375 375.038 95.2141C375.661 94.5908 376.506 94.2405 377.388 94.2405C379.347 94.1693 381.207 93.3592 382.593 91.973C383.979 90.5868 384.789 88.7274 384.86 86.7683C384.86 85.8867 385.21 85.0412 385.834 84.4178C386.457 83.7944 387.303 83.4442 388.184 83.4442C389.066 83.4442 389.911 83.7944 390.535 84.4178C391.158 85.0412 391.508 85.8867 391.508 86.7683C391.579 88.7258 392.388 90.584 393.773 91.97C395.157 93.3559 397.014 94.167 398.971 94.2405C399.853 94.2405 400.698 94.5908 401.322 95.2141C401.945 95.8375 402.295 96.683 402.295 97.5646C402.295 98.4462 401.945 99.2917 401.322 99.9151C400.698 100.538 399.853 100.889 398.971 100.889C397.015 100.953 395.158 101.761 393.777 103.148Z" fill="#EE7002"/>
<path d="M710.37 179.898C712.794 179.898 715.165 180.617 717.181 181.964C719.197 183.311 720.768 185.226 721.696 187.466C722.624 189.706 722.867 192.171 722.393 194.549C721.92 196.927 720.753 199.111 719.038 200.826C717.324 202.54 715.139 203.708 712.761 204.181C710.383 204.654 707.918 204.411 705.678 203.483C703.438 202.555 701.524 200.984 700.177 198.968C698.829 196.952 698.11 194.582 698.11 192.157C698.109 190.547 698.426 188.952 699.041 187.464C699.657 185.976 700.56 184.624 701.698 183.486C702.837 182.347 704.189 181.444 705.677 180.829C707.165 180.213 708.76 179.897 710.37 179.898Z" fill="#EE7002"/>
<path d="M491.154 250.53C489.138 249.183 486.767 248.463 484.342 248.463C482.732 248.462 481.138 248.778 479.651 249.393C478.164 250.008 476.812 250.91 475.674 252.048C474.535 253.186 473.632 254.537 473.016 256.023C472.4 257.51 472.083 259.104 472.083 260.713C472.081 263.138 472.798 265.51 474.144 267.527C475.49 269.544 477.404 271.117 479.644 272.046C481.884 272.975 484.349 273.219 486.728 272.747C489.107 272.276 491.292 271.109 493.007 269.395C494.723 267.68 495.891 265.496 496.365 263.118C496.839 260.739 496.596 258.274 495.669 256.033C494.741 253.793 493.17 251.878 491.154 250.53Z" fill="#EE7002"/>
<path d="M718.851 368.648C714.943 370.372 710.523 370.529 706.503 369.088C702.482 367.647 699.168 364.717 697.245 360.904C695.322 357.091 694.936 352.685 696.167 348.595C697.398 344.505 700.152 341.044 703.86 338.926L809.036 285.63C812.944 283.907 817.364 283.749 821.385 285.19C825.405 286.631 828.719 289.561 830.642 293.374C832.566 297.187 832.952 301.594 831.721 305.683C830.49 309.773 827.736 313.234 824.027 315.352L718.851 368.648Z" fill="#EE7002"/>
<path d="M170.286 402.047L255.722 488.695L359.981 434.334C385.842 420.936 417.249 440.88 417.935 470.76C418.088 477.073 416.756 483.334 414.046 489.037L362.601 596.667L448.62 683.26C464.36 699.13 464.972 724.611 449.962 740.204C445.377 745.016 439.582 748.505 433.184 750.306C426.721 752.115 419.896 752.201 413.388 750.556L298.666 730.574L247.555 838.417C234.842 865.213 198.61 867.361 181.018 843.195C177.265 838.037 174.732 832.094 173.61 825.815C173.667 825.815 164.62 774.723 158.283 738.938L158.196 738.449C155.273 721.941 152.943 708.782 152.379 705.565L34.7863 685.602C5.25855 680.584 -9.53775 644.815 8.44374 620.741C12.4079 615.414 17.7152 611.234 23.8234 608.63L125.823 556.028L104.259 435.908C98.8326 405.861 126.333 382.204 154.203 391.769C160.297 393.88 165.809 397.395 170.296 402.028L170.286 402.047Z" fill="#EE7002"/>
<path d="M266.129 367.602C268.554 367.6 270.925 368.318 272.942 369.664C274.96 371.01 276.532 372.924 277.462 375.164C278.391 377.404 278.635 379.869 278.163 382.247C277.691 384.626 276.524 386.811 274.81 388.527C273.096 390.242 270.912 391.411 268.533 391.885C266.155 392.358 263.69 392.116 261.449 391.188C259.208 390.261 257.293 388.69 255.946 386.673C254.598 384.657 253.879 382.287 253.879 379.861C253.878 378.252 254.194 376.658 254.809 375.171C255.424 373.683 256.326 372.332 257.464 371.193C258.601 370.055 259.952 369.152 261.439 368.536C262.926 367.919 264.52 367.602 266.129 367.602Z" fill="#EE7002"/>
<path d="M598.293 462.485C596.28 461.138 593.912 460.418 591.49 460.416C589.88 460.415 588.286 460.731 586.799 461.346C585.312 461.961 583.96 462.863 582.822 464.001C581.683 465.139 580.78 466.49 580.164 467.976C579.548 469.463 579.231 471.057 579.231 472.666C579.231 475.089 579.949 477.457 581.295 479.471C582.64 481.485 584.553 483.056 586.791 483.983C589.029 484.91 591.491 485.154 593.867 484.682C596.243 484.21 598.426 483.044 600.139 481.332C601.853 479.619 603.02 477.438 603.494 475.062C603.968 472.686 603.727 470.224 602.801 467.985C601.875 465.746 600.306 463.833 598.293 462.485Z" fill="#EE7002"/>
<path d="M432.499 572.685C432.562 570.726 433.37 568.865 434.758 567.482C436.143 566.094 438.003 565.283 439.962 565.213C440.844 565.213 441.689 564.863 442.313 564.24C442.936 563.616 443.286 562.771 443.286 561.889C443.286 561.008 442.936 560.162 442.313 559.539C441.689 558.915 440.844 558.565 439.962 558.565C438.004 558.498 436.144 557.69 434.759 556.305C433.374 554.92 432.566 553.06 432.499 551.102C432.499 550.22 432.149 549.375 431.526 548.752C430.902 548.128 430.057 547.778 429.175 547.778C428.293 547.778 427.448 548.128 426.825 548.752C426.201 549.375 425.851 550.22 425.851 551.102C425.78 553.06 424.969 554.919 423.583 556.303C422.196 557.688 420.337 558.496 418.379 558.565C417.497 558.565 416.652 558.915 416.028 559.539C415.405 560.162 415.055 561.008 415.055 561.889C415.055 562.771 415.405 563.616 416.028 564.24C416.652 564.863 417.497 565.213 418.379 565.213C420.338 565.284 422.197 566.094 423.583 567.481C424.97 568.867 425.78 570.726 425.851 572.685C425.851 573.567 426.201 574.412 426.825 575.036C427.448 575.659 428.293 576.009 429.175 576.009C430.057 576.009 430.902 575.659 431.526 575.036C432.149 574.412 432.499 573.567 432.499 572.685Z" fill="#EE7002"/>
<path d="M456.323 503.422C458.534 503.199 460.678 502.536 462.629 501.472L678.286 390.361C682.107 388.278 684.961 384.783 686.239 380.624C687.517 376.465 687.118 371.97 685.127 368.101C683.135 364.232 679.71 361.296 675.582 359.918C671.454 358.541 666.952 358.833 663.036 360.732L447.379 471.843C445.379 472.812 443.594 474.172 442.127 475.841C440.661 477.511 439.543 479.457 438.84 481.565C438.137 483.673 437.862 485.9 438.032 488.116C438.202 490.332 438.814 492.491 439.831 494.467C440.848 496.443 442.25 498.195 443.954 499.621C445.658 501.047 447.63 502.118 449.755 502.771C451.879 503.424 454.112 503.645 456.323 503.422Z" fill="#EE7002"/>
<path d="M358.805 387.676C357.829 389.628 356.478 391.368 354.83 392.798C353.182 394.227 351.268 395.318 349.198 396.008C347.128 396.698 344.942 396.974 342.766 396.819C340.589 396.664 338.465 396.082 336.513 395.107C334.562 394.131 332.821 392.78 331.392 391.132C329.962 389.483 328.871 387.57 328.181 385.5C327.491 383.43 327.216 381.244 327.37 379.068C327.525 376.891 328.107 374.767 329.083 372.815L469.629 92.0927C471.6 88.1513 475.055 85.1542 479.236 83.7607C483.416 82.3672 487.979 82.6915 491.921 84.6622C495.862 86.6329 498.859 90.0886 500.253 94.2691C501.646 98.4496 501.322 103.012 499.351 106.954L358.805 387.676Z" fill="#EE7002"/>
<path d="M432.495 424.208C436.917 424.208 441.159 422.451 444.286 419.324L503.555 360.074C506.683 356.945 508.441 352.702 508.441 348.278C508.441 343.853 506.683 339.61 503.555 336.481C500.426 333.353 496.183 331.595 491.759 331.595C487.334 331.595 483.091 333.353 479.962 336.481L420.703 395.741C417.576 398.868 415.819 403.109 415.819 407.532C415.819 411.955 417.576 416.196 420.703 419.324C423.83 422.451 428.072 424.208 432.495 424.208Z" fill="#EE7002"/>
<path fill-rule="evenodd" clip-rule="evenodd" d="M281.814 698.121L416.574 721.537L417.499 721.723C419.319 722.211 421.235 722.211 423.055 721.723C424.794 721.226 426.366 720.266 427.601 718.945C428.624 717.854 429.42 716.572 429.945 715.172C430.469 713.772 430.711 712.282 430.657 710.787C430.591 707.485 429.266 704.332 426.953 701.973L327.675 602.01L387.157 477.621C387.958 475.953 388.355 474.119 388.314 472.269C388.244 470.326 387.728 468.425 386.805 466.713C385.364 463.839 382.865 461.635 379.833 460.565C378.487 460.093 377.059 459.899 375.636 459.996C374.213 460.093 372.824 460.479 371.555 461.13V461.084L250.518 524.065L243.851 517.352L151.435 423.584L151.351 423.519C150.012 422.135 148.37 421.08 146.555 420.436C144.886 419.854 143.099 419.689 141.351 419.954L141.101 420C140.11 420.165 139.149 420.477 138.249 420.926C137.35 421.388 136.525 421.985 135.805 422.695L135.629 422.871C134.401 424.147 133.504 425.705 133.018 427.408C132.494 429.258 132.409 431.204 132.768 433.093V433.213L156.046 562.843L157.722 572.102L36.4439 634.676V634.723C35.182 635.386 34.0677 636.298 33.1685 637.404C32.2692 638.51 31.6038 639.787 31.2124 641.158C30.3377 644.258 30.6961 647.576 32.2124 650.417C33.0907 652.162 34.3578 653.683 35.9161 654.862C37.4044 655.961 39.1295 656.697 40.9532 657.01L176.879 680.158L201.305 818.889C201.884 822.146 203.686 825.057 206.342 827.028C207.53 827.937 208.886 828.602 210.333 828.983C211.779 829.364 213.286 829.455 214.768 829.25C216.557 828.987 218.242 828.248 219.648 827.112C221.103 825.921 222.22 824.369 222.888 822.612L223.277 821.741L281.814 698.121Z" fill="#F6C13D"/>
<path fill-rule="evenodd" clip-rule="evenodd" d="M157.74 572.149C174.49 560.908 184.712 530.667 191.147 511.278C195.849 497.114 197.016 482.015 194.545 467.297L151.443 423.584L151.36 423.519C150.021 422.135 148.379 421.08 146.564 420.436C144.894 419.854 143.108 419.689 141.36 419.954L141.11 420C140.118 420.165 139.157 420.477 138.258 420.926C137.358 421.388 136.534 421.985 135.814 422.695L135.638 422.871C134.41 424.147 133.513 425.705 133.027 427.408C132.503 429.258 132.417 431.204 132.777 433.093V433.213L157.74 572.149Z" fill="#FAD579"/>
<path fill-rule="evenodd" clip-rule="evenodd" d="M250.517 524.065C275.675 555.787 292.267 593.602 274.536 630.824C256.804 668.046 217.416 679.713 176.906 680.139L201.304 818.889C201.884 822.145 203.686 825.057 206.341 827.028C207.529 827.937 208.886 828.601 210.332 828.983C211.778 829.364 213.286 829.455 214.767 829.25C216.556 828.987 218.241 828.248 219.647 827.111C221.102 825.92 222.219 824.369 222.888 822.611L223.277 821.741L281.814 698.12L416.573 721.537L417.499 721.722C419.318 722.21 421.235 722.21 423.054 721.722C424.793 721.225 426.365 720.265 427.601 718.945C428.623 717.854 429.42 716.571 429.944 715.171C430.469 713.771 430.711 712.281 430.656 710.787C430.59 707.484 429.265 704.331 426.953 701.972L327.675 602.009L387.156 477.62C387.957 475.952 388.354 474.119 388.314 472.269C388.243 470.326 387.727 468.425 386.804 466.713C385.363 463.839 382.864 461.635 379.832 460.565C378.486 460.092 377.058 459.899 375.635 459.996C374.212 460.093 372.824 460.479 371.554 461.13V461.083L250.517 524.065Z" fill="#F39919"/>
<path d="M316.14 633.672C316.626 634.98 317.365 636.181 318.314 637.204L325.722 645.167C326.662 646.225 327.803 647.084 329.08 647.695C330.356 648.306 331.741 648.655 333.155 648.724C334.568 648.792 335.981 648.577 337.31 648.092C338.64 647.608 339.859 646.862 340.896 645.9C341.934 644.938 342.769 643.778 343.352 642.489C343.935 641.2 344.256 639.807 344.294 638.392C344.332 636.978 344.087 635.57 343.574 634.251C343.061 632.933 342.289 631.73 341.305 630.713L333.898 622.741C332.948 621.718 331.806 620.891 330.537 620.31C329.268 619.728 327.897 619.401 326.502 619.349C325.107 619.297 323.715 619.521 322.407 620.006C321.098 620.492 319.898 621.231 318.874 622.181C317.851 623.13 317.025 624.272 316.443 625.541C315.861 626.81 315.535 628.181 315.483 629.576C315.431 630.971 315.654 632.363 316.14 633.672Z" fill="#EE7002"/>
<path d="M344.701 662.646C345.229 663.94 346.007 665.118 346.99 666.111L382.175 701.519C384.161 703.525 386.862 704.66 389.685 704.675C392.507 704.69 395.22 703.583 397.226 701.597C399.233 699.612 400.368 696.911 400.383 694.088C400.398 691.266 399.29 688.553 397.305 686.546L362.12 651.139C361.137 650.146 359.968 649.355 358.679 648.814C357.391 648.272 356.008 647.99 354.611 647.982C353.213 647.975 351.828 648.243 350.534 648.771C349.24 649.299 348.062 650.077 347.069 651.06C346.076 652.043 345.285 653.212 344.744 654.501C344.202 655.789 343.92 657.172 343.912 658.569C343.905 659.967 344.173 661.352 344.701 662.646Z" fill="#EE7002"/>
</svg>
