<svg width="858" height="858" viewBox="0 0 858 858" fill="none" xmlns="http://www.w3.org/2000/svg">
<path d="M165.445 256.176L133.306 258.296L147.083 286.241C147.901 287.769 148.595 289.36 149.157 291C151.793 298.78 151.23 307.287 147.595 314.653C143.959 322.018 137.547 327.638 129.769 330.278L99.1667 340.667L119.972 364.389C122.986 367.676 125.255 371.575 126.622 375.82C127.99 380.065 128.425 384.555 127.898 388.983C127.37 393.412 125.893 397.674 123.566 401.479C121.239 405.283 118.118 408.541 114.417 411.028L87.5093 429L114.435 446.991C115.533 447.731 116.585 448.538 117.583 449.407C123.753 454.808 127.525 462.439 128.07 470.62C128.616 478.802 125.889 486.865 120.491 493.037L99.1945 517.352L129.796 527.75C131.081 528.191 132.337 528.714 133.556 529.315C137.2 531.112 140.454 533.61 143.132 536.665C145.811 539.72 147.861 543.273 149.166 547.121C150.472 550.969 151.006 555.036 150.739 559.09C150.472 563.144 149.409 567.107 147.611 570.75L133.343 599.713L164.176 601.731C168.694 601.829 173.137 602.913 177.192 604.907C181.248 606.9 184.819 609.756 187.656 613.274C190.493 616.792 192.528 620.887 193.617 625.273C194.706 629.659 194.825 634.23 193.963 638.667L187.657 670.389L219.398 664.083C220.716 663.826 222.049 663.653 223.389 663.565C231.584 663.053 239.648 665.816 245.806 671.247C251.965 676.678 255.715 684.333 256.232 692.528L258.343 724.676L286.296 710.898C287.828 710.08 289.422 709.387 291.065 708.824C298.842 706.192 307.346 706.756 314.708 710.392C322.07 714.027 327.687 720.437 330.324 728.213L340.713 758.768L364.445 737.972C365.604 736.9 366.842 735.916 368.148 735.028C374.963 730.466 383.311 728.798 391.355 730.39C399.4 731.982 406.483 736.705 411.046 743.518L429.037 770.435L447.037 743.509C447.775 742.407 448.585 741.355 449.463 740.361C452.136 737.305 455.385 734.806 459.023 733.006C462.662 731.206 466.62 730.141 470.671 729.871C474.722 729.601 478.786 730.132 482.632 731.433C486.477 732.734 490.029 734.78 493.083 737.454L517.398 758.75L527.787 728.139C528.227 726.855 528.747 725.599 529.343 724.38C533.004 717.037 539.431 711.449 547.211 708.843C554.991 706.237 563.488 706.826 570.833 710.481L599.787 724.75L601.815 693.917C601.848 692.132 602.037 690.354 602.38 688.602C603.956 680.536 608.671 673.426 615.488 668.836C622.304 664.245 630.665 662.549 638.732 664.12L670.463 670.435L664.185 638.667C663.933 637.345 663.766 636.009 663.685 634.667C663.43 630.608 663.977 626.54 665.295 622.693C666.613 618.846 668.675 615.296 671.365 612.247C674.054 609.197 677.318 606.707 680.97 604.919C684.622 603.13 688.59 602.079 692.648 601.824L724.787 599.713L711.009 571.768C710.184 570.241 709.49 568.645 708.935 567C706.303 559.223 706.867 550.718 710.503 543.357C714.139 535.995 720.549 530.378 728.324 527.741L758.88 517.352L738.074 493.62C735.062 490.332 732.795 486.433 731.428 482.189C730.061 477.944 729.626 473.454 730.154 469.026C730.681 464.599 732.158 460.337 734.484 456.532C736.81 452.727 739.929 449.47 743.63 446.981L770.574 429L743.648 411C740.004 408.547 736.923 405.347 734.61 401.612C732.297 397.877 730.805 393.694 730.232 389.338C729.66 384.983 730.02 380.555 731.289 376.35C732.558 372.144 734.707 368.256 737.593 364.944L758.889 340.639L728.333 330.25C727.043 329.819 725.784 329.3 724.565 328.694C720.914 326.899 717.652 324.4 714.968 321.343C712.283 318.285 710.228 314.728 708.92 310.875C707.612 307.022 707.076 302.948 707.344 298.888C707.612 294.828 708.678 290.861 710.482 287.213L724.75 258.259L693.926 256.231C689.408 256.136 684.966 255.054 680.909 253.063C676.853 251.071 673.28 248.218 670.441 244.702C667.603 241.186 665.566 237.092 664.474 232.707C663.383 228.322 663.262 223.751 664.12 219.315L670.426 187.583L638.695 193.889C634.371 194.728 629.918 194.636 625.633 193.619C621.348 192.602 617.329 190.684 613.844 187.991C610.358 185.299 607.487 181.894 605.421 178.005C603.355 174.116 602.141 169.83 601.861 165.435L599.75 133.287L571.806 147.074C570.278 147.897 568.683 148.588 567.037 149.139C559.26 151.774 550.754 151.213 543.391 147.579C536.027 143.945 530.408 137.535 527.769 129.759L517.38 99.2037L493.648 120.009C492.489 121.079 491.251 122.06 489.945 122.944C486.57 125.205 482.784 126.779 478.801 127.576C474.819 128.373 470.719 128.378 466.734 127.591C462.75 126.803 458.96 125.238 455.58 122.986C452.2 120.733 449.297 117.837 447.037 114.463L429 87.4722L411.009 114.398C410.269 115.496 409.462 116.547 408.593 117.546C403.192 123.716 395.561 127.488 387.38 128.033C379.198 128.578 371.135 125.852 364.963 120.454L340.648 99.1574L330.25 129.713C328.829 133.882 326.536 137.7 323.523 140.912C320.51 144.125 316.847 146.658 312.778 148.343C308.709 150.028 304.327 150.826 299.925 150.684C295.523 150.542 291.202 149.462 287.25 147.518L258.296 133.25L256.269 164.074C256.23 165.861 256.041 167.642 255.704 169.398C254.127 177.466 249.411 184.577 242.593 189.168C235.774 193.759 227.411 195.454 219.343 193.88L187.62 187.574L193.926 219.306C194.18 220.627 194.353 221.963 194.445 223.306C194.698 227.364 194.15 231.432 192.831 235.278C191.512 239.125 189.449 242.674 186.758 245.723C184.068 248.771 180.804 251.26 177.151 253.048C173.499 254.835 169.531 255.885 165.472 256.139M83.1575 199.491L126.222 196.694L117.759 154.102C116.781 149.061 117.069 143.856 118.598 138.953C120.128 134.051 122.85 129.605 126.521 126.015C130.193 122.424 134.698 119.801 139.633 118.381C144.568 116.962 149.778 116.789 154.796 117.88L196.685 126.213L199.519 83.1018C199.848 77.9158 201.476 72.8958 204.253 68.5039C207.03 64.112 210.868 60.4892 215.412 57.9689C219.956 55.4487 225.062 54.1119 230.258 54.0818C235.454 54.0516 240.575 55.329 245.148 57.7963L282.954 76.4352L296.843 35.4166C298.528 30.4476 301.447 25.9882 305.328 22.4567C309.209 18.9251 313.923 16.4374 319.028 15.2267C324.133 14.0161 329.463 14.1223 334.516 15.5354C339.569 16.9485 344.18 19.6222 347.917 23.3055L379.158 50.6944L403.232 14.5833C406.088 10.3206 409.96 6.83559 414.499 4.44243C419.038 2.04928 424.102 0.823162 429.233 0.874601C434.364 0.92604 439.401 2.25341 443.892 4.73709C448.382 7.22076 452.183 10.7827 454.954 15.1018L478.722 50.6574L511.361 22.0555C515.194 18.692 519.799 16.328 524.767 15.1737C529.734 14.0194 534.91 14.1107 539.833 15.4394C544.757 16.7681 549.276 19.2931 552.988 22.7897C556.7 26.2863 559.491 30.6461 561.111 35.4815L575 76.4907L613.889 57.3333C618.461 55.0813 623.517 53.9925 628.611 54.1636C633.704 54.3346 638.676 55.7602 643.087 58.3138C647.497 60.8674 651.209 64.4702 653.893 68.8023C656.576 73.1345 658.15 78.0622 658.472 83.1481L661.352 126.222L703.945 117.75C708.985 116.774 714.189 117.064 719.091 118.594C723.992 120.124 728.436 122.847 732.026 126.517C735.616 130.188 738.239 134.692 739.66 139.626C741.081 144.56 741.255 149.769 740.167 154.787L731.833 196.676L774.945 199.509C780.132 199.835 785.154 201.461 789.547 204.238C793.941 207.015 797.565 210.853 800.085 215.399C802.605 219.944 803.94 225.051 803.967 230.249C803.995 235.446 802.713 240.567 800.241 245.139L781.611 282.944L822.62 296.833C827.59 298.52 832.049 301.441 835.58 305.322C839.111 309.203 841.599 313.918 842.81 319.024C844.02 324.13 843.914 329.46 842.501 334.513C841.088 339.567 838.415 344.179 834.732 347.917L807.352 379.148L843.463 403.269C847.725 406.131 851.207 410.009 853.597 414.554C855.986 419.098 857.207 424.165 857.15 429.299C857.093 434.432 855.76 439.471 853.27 443.961C850.781 448.451 847.213 452.251 842.889 455.018L807.333 478.796L835.954 511.407C839.298 515.233 841.649 519.824 842.797 524.775C843.945 529.725 843.855 534.882 842.536 539.789C841.217 544.697 838.709 549.204 835.234 552.911C831.759 556.619 827.423 559.413 822.611 561.046L781.602 574.935L800.759 613.778C803.009 618.351 804.095 623.408 803.923 628.502C803.75 633.595 802.323 638.568 799.769 642.978C797.215 647.388 793.612 651.1 789.281 653.785C784.949 656.47 780.021 658.045 774.935 658.37L731.833 661.204L740.296 703.796C741.87 711.863 740.175 720.225 735.584 727.042C730.993 733.86 723.882 738.574 715.815 740.148C711.662 740.97 707.384 740.922 703.25 740.009L661.408 731.778L658.574 774.87C658.247 780.057 656.62 785.078 653.843 789.471C651.066 793.865 647.229 797.489 642.684 800.01C638.14 802.531 633.034 803.869 627.837 803.899C622.64 803.93 617.519 802.653 612.945 800.185L575.111 781.565L561.222 822.574C559.537 827.543 556.618 832.002 552.737 835.534C548.856 839.066 544.142 841.553 539.037 842.764C533.932 843.975 528.602 843.868 523.549 842.455C518.496 841.042 513.885 838.368 510.148 834.685L478.917 807.306L454.796 843.417C451.941 847.681 448.068 851.167 443.529 853.561C438.989 855.955 433.925 857.181 428.793 857.128C423.661 857.076 418.623 855.747 414.133 853.261C409.643 850.775 405.842 847.21 403.074 842.889L379.296 807.324L346.593 835.917C342.766 839.263 338.174 841.615 333.222 842.763C328.27 843.912 323.111 843.822 318.202 842.502C313.293 841.182 308.785 838.672 305.078 835.195C301.37 831.717 298.576 827.379 296.945 822.565L283.056 781.556L244.213 800.694C239.641 802.946 234.585 804.034 229.492 803.864C224.399 803.693 219.427 802.268 215.016 799.716C210.606 797.164 206.893 793.562 204.207 789.232C201.522 784.901 199.946 779.974 199.62 774.889L196.741 731.778L154.148 740.241C150.154 741.021 146.045 741.007 142.056 740.199C138.067 739.391 134.276 737.805 130.9 735.532C127.524 733.258 124.629 730.342 122.381 726.949C120.133 723.557 118.575 719.754 117.796 715.759C116.975 711.606 117.022 707.328 117.935 703.194L126.269 661.306L83.1667 658.472C77.9807 658.143 72.9608 656.515 68.5688 653.738C64.1769 650.96 60.5541 647.123 58.0338 642.579C55.5136 638.034 54.1769 632.929 54.1467 627.733C54.1165 622.536 55.3939 617.416 57.8612 612.843L76.5001 575.037L35.4908 561.148C30.5219 559.464 26.0623 556.546 22.5305 552.666C18.9988 548.786 16.5108 544.073 15.3001 538.968C14.0894 533.863 14.1956 528.535 15.6089 523.482C17.0222 518.43 19.6961 513.819 23.3797 510.083L50.7593 478.843L14.6482 454.722C10.3891 451.862 6.90745 447.989 4.51649 443.45C2.12554 438.911 0.900218 433.849 0.950719 428.719C1.00122 423.589 2.32596 418.552 4.8058 414.061C7.28565 409.57 10.8428 405.766 15.1575 402.991L50.7316 379.222L22.1297 346.593C18.7812 342.766 16.4278 338.173 15.278 333.22C14.1281 328.267 14.2173 323.107 15.5376 318.196C16.8579 313.286 19.3686 308.777 22.8473 305.068C26.3261 301.36 30.6656 298.566 35.4816 296.935L76.4908 283.046L57.3519 244.157C55.0957 239.586 54.0033 234.529 54.1717 229.434C54.3402 224.339 55.7643 219.365 58.3175 214.953C60.8707 210.541 64.474 206.828 68.8074 204.143C73.1408 201.459 78.0701 199.886 83.1575 199.565V199.491Z" fill="#EE7002"/>
<path fill-rule="evenodd" clip-rule="evenodd" d="M681.546 176.481C532.703 27.648 289.481 39.6851 155.324 199.639C27.8239 351.657 49.2961 577.315 200.481 703.342C342.305 821.592 550.981 812.055 681.537 681.5C821 542.037 821 315.954 681.537 176.481" fill="#F38010"/>
<path fill-rule="evenodd" clip-rule="evenodd" d="M428.999 108.204C606.212 108.204 749.833 251.833 749.833 429C749.833 606.167 606.212 749.805 428.999 749.805C251.787 749.805 108.24 606.176 108.24 429C108.24 251.824 251.87 108.204 428.999 108.204Z" fill="#F6C13D"/>
<path fill-rule="evenodd" clip-rule="evenodd" d="M262.222 222.314C282.473 222.314 302.268 228.319 319.106 239.57C335.944 250.821 349.067 266.812 356.817 285.521C364.566 304.23 366.594 324.817 362.643 344.678C358.693 364.54 348.941 382.784 334.622 397.103C320.302 411.423 302.058 421.174 282.197 425.125C262.335 429.076 241.748 427.048 223.039 419.298C204.33 411.549 188.339 398.425 177.089 381.588C165.838 364.75 159.833 344.954 159.833 324.703C159.832 311.257 162.479 297.942 167.624 285.519C172.77 273.096 180.311 261.809 189.819 252.301C199.327 242.793 210.615 235.251 223.038 230.106C235.461 224.961 248.776 222.313 262.222 222.314Z" fill="#FAD579"/>
<path fill-rule="evenodd" clip-rule="evenodd" d="M506.444 117.676C622.62 280.787 585.074 725.444 274.759 710.333C385.787 771.176 527.25 762.667 631.509 677.833C768.935 566.009 789.694 363.944 677.87 226.537C634.097 172.562 573.91 134.341 506.444 117.676Z" fill="#F39919"/>
<path d="M686.846 483.446C682.909 485.704 680.03 489.434 678.842 493.815C660.487 561.402 616.736 619.288 556.722 655.389C554.799 656.548 553.123 658.074 551.79 659.88C550.457 661.687 549.492 663.738 548.952 665.917C548.412 668.097 548.306 670.361 548.64 672.581C548.975 674.801 549.744 676.933 550.903 678.856C552.061 680.779 553.587 682.455 555.394 683.789C557.2 685.122 559.252 686.086 561.431 686.627C563.61 687.167 565.874 687.273 568.095 686.938C570.315 686.603 572.447 685.835 574.37 684.676C641.912 644 691.166 578.843 711.879 502.769C713.067 498.388 712.465 493.714 710.207 489.777C707.949 485.84 704.219 482.961 699.838 481.773C695.457 480.586 690.783 481.187 686.846 483.446Z" fill="#EE7002"/>
<path d="M515.569 677.09C513.307 677.008 511.052 677.377 508.935 678.176H508.898C504.812 679.651 500.154 681.176 494.926 682.75C489.827 684.287 485.086 685.586 480.704 686.648C476.387 687.787 472.689 690.573 470.403 694.407C468.116 698.241 467.423 702.819 468.472 707.158C469.521 711.497 472.229 715.252 476.014 717.618C479.8 719.984 484.362 720.773 488.722 719.815C494.555 718.383 499.876 716.947 504.685 715.509C509.494 714.071 514.741 712.324 520.426 710.268C522.569 709.542 524.546 708.396 526.241 706.897C527.937 705.398 529.317 703.577 530.301 701.54C531.286 699.502 531.854 697.289 531.975 695.03C532.095 692.77 531.764 690.509 531.001 688.378C530.238 686.248 529.059 684.291 527.532 682.621C526.005 680.951 524.16 679.602 522.106 678.652C520.052 677.703 517.83 677.171 515.569 677.09Z" fill="#EE7002"/>
</svg>
