<svg width="763" height="876" viewBox="0 0 763 876" fill="none" xmlns="http://www.w3.org/2000/svg">
<path fill-rule="evenodd" clip-rule="evenodd" d="M104.222 66.7032C104.375 61.4697 106.536 56.4961 110.259 52.8143L110.296 52.8513C113.965 49.1509 118.912 46.997 124.12 46.8328C126.412 46.7586 128.585 45.7959 130.18 44.1483C131.776 42.5007 132.667 40.2973 132.667 38.0041C132.667 35.7109 131.776 33.5075 130.18 31.8599C128.585 30.2123 126.412 29.2496 124.12 29.1754C118.919 28.9913 113.98 26.8426 110.3 23.1623C106.619 19.482 104.471 14.5436 104.287 9.34206C104.212 7.05003 103.25 4.87671 101.602 3.28161C99.9546 1.68652 97.7512 0.794678 95.458 0.794678C93.1647 0.794678 90.9614 1.68652 89.3138 3.28161C87.6662 4.87671 86.7035 7.05003 86.6293 9.34206C86.45 14.5486 84.3039 19.4937 80.6236 23.181C76.9433 26.8682 72.0022 29.0234 66.7959 29.2124C64.5039 29.2867 62.3306 30.2494 60.7355 31.897C59.1404 33.5446 58.2486 35.7479 58.2486 38.0411C58.2486 40.3344 59.1404 42.5377 60.7355 44.1853C62.3306 45.8329 64.5039 46.7956 66.7959 46.8698C71.996 47.0583 76.9319 49.2083 80.6113 52.8878C84.2908 56.5672 86.4408 61.5031 86.6293 66.7032C86.8308 68.8968 87.8447 70.936 89.472 72.4207C91.0993 73.9054 93.2227 74.7284 95.4256 74.7284C97.6284 74.7284 99.7518 73.9054 101.379 72.4207C103.006 70.936 104.02 68.8968 104.222 66.7032ZM55.7685 201.889L84.4722 199.99L78.8241 171.611C78.1682 168.249 78.3581 164.777 79.3766 161.507C80.3951 158.237 82.2104 155.272 84.6591 152.877C87.1078 150.483 90.1133 148.734 93.4053 147.789C96.6972 146.844 100.172 146.732 103.519 147.463L131.444 153.018L133.296 124.314C133.516 120.859 134.602 117.514 136.453 114.588C138.304 111.662 140.861 109.248 143.89 107.569C146.918 105.89 150.319 105 153.782 104.979C157.244 104.959 160.656 105.81 163.704 107.453L188.898 119.879L198.157 92.5367C199.283 89.2263 201.231 86.2558 203.818 83.9035C206.404 81.5511 209.546 79.8939 212.948 79.0871C216.351 78.2803 219.902 78.3502 223.27 79.2904C226.637 80.2306 229.711 82.0102 232.204 84.4626L253.019 102.722L269.102 78.6478C271.009 75.8105 273.592 73.4915 276.617 71.8991C279.643 70.3068 283.016 69.4909 286.435 69.5249C289.854 69.5589 293.21 70.4416 296.204 72.0937C299.197 73.7459 301.733 76.1158 303.583 78.9904L319.426 102.694L341.259 83.5645C343.809 81.3331 346.869 79.7649 350.169 78.9988C353.469 78.2326 356.907 78.2922 360.179 79.1721C363.451 80.052 366.455 81.7253 368.925 84.0435C371.396 86.3618 373.257 89.2535 374.343 92.4626L383.602 119.796L409.528 107.027C412.575 105.525 415.946 104.799 419.341 104.912C422.737 105.026 426.051 105.975 428.992 107.677C431.932 109.379 434.407 111.78 436.196 114.668C437.986 117.556 439.035 120.841 439.25 124.231L441.102 152.935L469.491 147.287C472.852 146.635 476.323 146.828 479.592 147.849C482.861 148.87 485.825 150.686 488.218 153.135C490.612 155.583 492.36 158.588 493.306 161.879C494.252 165.17 494.367 168.644 493.639 171.99L488.083 199.907L516.787 201.759C520.244 201.979 523.589 203.065 526.516 204.917C529.443 206.768 531.858 209.326 533.538 212.355C535.218 215.384 536.109 218.787 536.13 222.25C536.151 225.714 535.301 229.127 533.657 232.176L521.324 257.444L548.667 266.703C551.979 267.827 554.951 269.773 557.305 272.36C559.659 274.947 561.317 278.089 562.124 281.492C562.931 284.896 562.861 288.448 561.919 291.816C560.977 295.185 559.195 298.258 556.741 300.75L538.481 321.574L562.556 337.648C565.399 339.551 567.724 342.132 569.32 345.158C570.917 348.184 571.735 351.56 571.701 354.981C571.667 358.402 570.782 361.761 569.126 364.755C567.469 367.749 565.094 370.283 562.213 372.129L538.481 388L557.546 409.75C559.767 412.3 561.327 415.358 562.088 418.653C562.849 421.948 562.788 425.38 561.911 428.647C561.034 431.913 559.367 434.913 557.058 437.384C554.748 439.855 551.867 441.72 548.667 442.815L521.333 452.074L534.093 478C535.594 481.048 536.32 484.419 536.207 487.815C536.094 491.21 535.144 494.526 533.442 497.466C531.741 500.407 529.339 502.883 526.452 504.673C523.564 506.464 520.28 507.514 516.889 507.731L488.185 509.583L493.806 538C494.46 541.361 494.268 544.831 493.249 548.1C492.23 551.369 490.414 554.333 487.966 556.726C485.517 559.12 482.513 560.867 479.221 561.812C475.93 562.757 472.456 562.869 469.111 562.139L441.194 556.583L439.343 585.287C439.138 588.759 438.059 592.123 436.207 595.067C434.355 598.011 431.789 600.44 428.748 602.127C425.706 603.814 422.288 604.706 418.81 604.72C415.331 604.733 411.906 603.867 408.852 602.203L383.648 589.787L374.389 617.12C373.266 620.434 371.319 623.408 368.732 625.763C366.144 628.119 363.001 629.778 359.596 630.585C356.192 631.392 352.638 631.321 349.268 630.378C345.899 629.435 342.824 627.651 340.333 625.194L319.509 606.935L303.435 631.009C301.53 633.848 298.949 636.169 295.924 637.763C292.899 639.357 289.526 640.174 286.107 640.14C282.688 640.106 279.331 639.222 276.338 637.569C273.346 635.915 270.811 633.543 268.963 630.666L253.12 606.963L231.361 626.027C229.325 627.81 226.958 629.174 224.394 630.042C221.831 630.909 219.121 631.262 216.421 631.082C213.721 630.901 211.083 630.19 208.657 628.989C206.232 627.788 204.068 626.121 202.287 624.083C200.501 622.058 199.138 619.697 198.278 617.139L189.019 589.815L163.093 602.574C160.045 604.076 156.675 604.802 153.279 604.689C149.884 604.576 146.569 603.626 143.629 601.924C140.688 600.222 138.214 597.821 136.424 594.933C134.635 592.045 133.586 588.76 133.37 585.37L131.472 556.666L103.093 562.305C99.7322 562.961 96.2615 562.772 92.9926 561.754C89.7237 560.736 86.759 558.921 84.3653 556.473C81.9715 554.025 80.2238 551.021 79.2792 547.73C78.3345 544.439 78.2227 540.965 78.9537 537.62L84.5093 509.694L55.8056 507.842C52.3477 507.625 49.0001 506.541 46.0714 504.69C43.1427 502.839 40.7272 500.28 39.0474 497.25C37.3676 494.22 36.4777 490.816 36.4598 487.351C36.4418 483.886 37.2962 480.473 38.9444 477.426L51.3611 452.231L24.0278 442.972C20.7157 441.848 17.7433 439.902 15.3894 437.315C13.0355 434.728 11.3773 431.586 10.5702 428.183C9.76318 424.78 9.8338 421.227 10.7754 417.859C11.7171 414.491 13.4989 411.417 15.9537 408.926L34.1759 388L10.1019 371.926C7.25853 370.023 4.93366 367.442 3.337 364.416C1.74034 361.389 0.922103 358.014 0.956096 354.592C0.990088 351.171 1.87525 347.812 3.53172 344.818C5.18819 341.825 7.56386 339.29 10.4444 337.444L34.1482 321.602L15.0741 299.852C12.8452 297.3 11.2791 294.24 10.5144 290.939C9.74962 287.639 9.80972 284.201 10.6894 280.93C11.569 277.659 13.2411 274.654 15.5578 272.183C17.8745 269.711 20.7645 267.848 23.9722 266.759L51.3056 257.5L38.5463 231.574C37.0495 228.527 36.3277 225.158 36.4449 221.765C36.5622 218.373 37.5148 215.061 39.2183 212.125C40.9218 209.189 43.3235 206.718 46.2105 204.933C49.0975 203.147 52.3806 202.101 55.7685 201.889ZM655.639 325.037C652.844 327.814 651.215 331.553 651.083 335.49C651.083 337.261 650.38 338.959 649.128 340.211C647.876 341.463 646.178 342.166 644.407 342.166C642.637 342.166 640.939 341.463 639.687 340.211C638.435 338.959 637.731 337.261 637.731 335.49C637.583 331.562 635.955 327.835 633.176 325.055C630.396 322.276 626.669 320.649 622.741 320.5C621.012 320.435 619.375 319.703 618.175 318.457C616.975 317.212 616.304 315.549 616.304 313.819C616.304 312.089 616.975 310.427 618.175 309.181C619.375 307.935 621.012 307.203 622.741 307.139C626.674 306.994 630.407 305.368 633.19 302.586C635.974 299.803 637.603 296.072 637.75 292.139C637.75 290.368 638.453 288.67 639.705 287.418C640.957 286.166 642.655 285.463 644.426 285.463C646.196 285.463 647.895 286.166 649.146 287.418C650.398 288.67 651.102 290.368 651.102 292.139C651.244 296.073 652.872 299.807 655.656 302.59C658.441 305.373 662.177 306.998 666.111 307.139C667.84 307.203 669.476 307.935 670.677 309.181C671.877 310.427 672.547 312.089 672.547 313.819C672.547 315.549 671.877 317.212 670.677 318.457C669.476 319.703 667.84 320.435 666.111 320.5C662.17 320.621 658.423 322.244 655.639 325.037ZM214.488 693.227C212.475 691.879 210.107 691.159 207.685 691.157C206.076 691.156 204.482 691.472 202.994 692.087C201.507 692.702 200.155 693.604 199.017 694.742C197.878 695.88 196.975 697.231 196.359 698.717C195.743 700.204 195.426 701.798 195.426 703.408C195.426 705.83 196.144 708.198 197.49 710.212C198.835 712.227 200.748 713.797 202.986 714.724C205.224 715.652 207.686 715.895 210.062 715.423C212.438 714.951 214.621 713.785 216.335 712.073C218.048 710.361 219.216 708.179 219.689 705.803C220.163 703.427 219.922 700.965 218.996 698.726C218.07 696.487 216.501 694.574 214.488 693.227ZM620.639 98.8425C623.064 98.8425 625.435 99.5617 627.451 100.909C629.467 102.257 631.038 104.172 631.966 106.412C632.893 108.653 633.136 111.118 632.662 113.497C632.188 115.875 631.02 118.059 629.304 119.774C627.589 121.488 625.404 122.655 623.025 123.127C620.646 123.599 618.181 123.354 615.941 122.425C613.701 121.496 611.787 119.923 610.441 117.906C609.095 115.889 608.378 113.518 608.38 111.092C608.382 107.843 609.675 104.727 611.974 102.43C614.272 100.133 617.389 98.8425 620.639 98.8425ZM553.889 850.703C556.312 850.702 558.682 851.418 560.698 852.762C562.715 854.107 564.288 856.019 565.218 858.256C566.148 860.494 566.395 862.957 565.926 865.335C565.457 867.713 564.293 869.898 562.583 871.615C560.873 873.332 558.692 874.503 556.316 874.981C553.94 875.459 551.476 875.222 549.234 874.3C546.993 873.378 545.075 871.813 543.724 869.801C542.372 867.79 541.646 865.423 541.639 863C541.639 859.75 542.929 856.633 545.226 854.334C547.523 852.036 550.639 850.743 553.889 850.74V850.703Z" fill="#F38010"/>
<path fill-rule="evenodd" clip-rule="evenodd" d="M286.324 140.963C404.426 140.963 500.148 236.694 500.148 354.787C500.148 472.88 404.426 568.611 286.324 568.611C168.222 568.611 72.5 472.88 72.5 354.787C72.5 236.694 168.241 140.963 286.324 140.963Z" fill="#F6C13D"/>
<path fill-rule="evenodd" clip-rule="evenodd" d="M175.139 217.018C188.639 217.016 201.835 221.018 213.06 228.517C224.285 236.015 233.035 246.674 238.201 259.146C243.368 271.617 244.721 285.341 242.087 298.581C239.454 311.821 232.954 323.983 223.408 333.528C213.863 343.074 201.701 349.574 188.461 352.207C175.221 354.841 161.497 353.488 149.026 348.321C136.555 343.154 125.895 334.405 118.397 323.18C110.898 311.955 106.897 298.758 106.898 285.259C106.898 267.16 114.088 249.803 126.886 237.006C139.683 224.208 157.041 217.018 175.139 217.018Z" fill="#FAD579"/>
<path fill-rule="evenodd" clip-rule="evenodd" d="M337.916 147.259C415.333 256 390.333 552.38 183.49 542.305C257.499 582.861 351.787 577.194 421.287 520.639C512.879 446.111 526.722 311.426 452.185 219.833C423.006 183.853 382.887 158.373 337.916 147.259Z" fill="#F39919"/>
<path d="M454.774 393.915C453.864 395.126 453.204 396.505 452.833 397.972C440.594 443.034 411.43 481.631 371.425 505.713C368.928 507.316 367.155 509.829 366.481 512.718C365.808 515.608 366.287 518.646 367.819 521.187C369.35 523.729 371.811 525.573 374.681 526.328C377.55 527.083 380.601 526.69 383.184 525.232C428.218 498.111 461.053 454.662 474.851 403.935C475.271 402.481 475.397 400.957 475.222 399.453C475.047 397.949 474.575 396.495 473.832 395.176C473.09 393.857 472.092 392.698 470.897 391.768C469.702 390.839 468.335 390.156 466.873 389.76C465.412 389.364 463.886 389.263 462.386 389.463C460.885 389.663 459.439 390.16 458.132 390.924C456.825 391.688 455.684 392.705 454.774 393.915Z" fill="#EE7002"/>
<path d="M344.007 520.139C342.498 520.087 340.994 520.335 339.583 520.87C336.86 521.858 333.755 522.873 330.268 523.917C326.873 524.941 323.712 525.809 320.786 526.519C319.33 526.865 317.957 527.496 316.745 528.375C315.534 529.254 314.508 530.363 313.726 531.639C312.944 532.916 312.422 534.334 312.189 535.812C311.956 537.291 312.018 538.801 312.37 540.255C312.722 541.71 313.358 543.081 314.242 544.289C315.125 545.498 316.238 546.52 317.517 547.297C318.796 548.074 320.216 548.591 321.696 548.818C323.175 549.045 324.685 548.978 326.138 548.62C330.039 547.676 333.586 546.722 336.777 545.759C339.968 544.796 343.456 543.63 347.24 542.259C348.671 541.777 349.991 541.014 351.123 540.016C352.256 539.018 353.178 537.803 353.836 536.445C354.494 535.086 354.874 533.609 354.955 532.102C355.036 530.594 354.816 529.086 354.307 527.664C353.798 526.243 353.011 524.937 351.991 523.823C350.972 522.71 349.741 521.81 348.37 521.178C346.999 520.545 345.516 520.192 344.007 520.139Z" fill="#EE7002"/>
<path fill-rule="evenodd" clip-rule="evenodd" d="M692.667 424.481C593.454 325.277 431.343 333.296 341.917 439.916C256.935 541.231 271.25 691.648 372.019 775.675C466.546 854.5 605.639 848.12 692.667 761.092C785.62 668.129 785.62 517.435 692.667 424.481Z" fill="#323286"/>
<path fill-rule="evenodd" clip-rule="evenodd" d="M524.361 378.963C642.454 378.963 738.185 474.695 738.185 592.787C738.185 710.88 642.454 806.611 524.361 806.611C406.269 806.611 310.537 710.88 310.537 592.787C310.537 474.695 406.269 378.963 524.361 378.963Z" fill="#76469C"/>
<path fill-rule="evenodd" clip-rule="evenodd" d="M575.953 385.268C653.388 493.991 628.361 790.379 421.527 780.305C495.537 820.861 589.824 815.194 659.314 758.639C750.916 684.111 764.75 549.426 690.213 457.833C661.038 421.855 620.922 396.377 575.953 385.268Z" fill="#5B3E93"/>
<path fill-rule="evenodd" clip-rule="evenodd" d="M592.601 795.278C564.143 804.786 534.004 808.209 504.138 805.323C474.272 802.438 445.346 793.309 419.234 778.528C393.123 763.748 370.408 743.645 352.563 719.524C334.717 695.403 322.14 667.801 315.645 638.507C309.15 609.214 308.883 578.882 314.861 549.479C320.839 520.076 332.929 492.257 350.347 467.825C367.765 443.393 390.122 422.894 415.969 407.656C441.817 392.418 470.578 382.782 500.388 379.371C504.73 378.895 509.11 379.81 512.898 381.984C516.686 384.158 519.686 387.478 521.466 391.467C523.245 395.455 523.712 399.906 522.8 404.177C521.887 408.448 519.642 412.319 516.388 415.232C515.305 416.204 514.083 417.084 512.935 417.954C484.463 440.057 463.611 470.505 453.295 505.041C442.978 539.577 443.713 576.473 455.396 610.571C467.08 644.669 489.127 674.263 518.456 695.215C547.785 716.167 582.928 727.429 618.972 727.426C622.888 727.426 626.203 727.352 628.972 727.185C632.074 727.01 635.361 726.723 638.796 726.334C642.814 725.892 646.873 726.641 650.47 728.487C654.066 730.334 657.039 733.197 659.022 736.72C661.004 740.243 661.906 744.271 661.618 748.303C661.329 752.335 659.861 756.194 657.398 759.398C647.666 772.028 607.953 790.148 592.583 795.278" fill="#FFF48C"/>
<path fill-rule="evenodd" clip-rule="evenodd" d="M647.954 727.388C612.545 745.275 572.66 752.36 533.258 747.762C493.855 743.164 456.673 727.086 426.334 701.527C341.093 629.731 329.963 502.527 401.445 417.027C359.382 446.621 329.374 490.364 316.906 540.259C304.437 590.155 310.341 642.872 333.539 688.773C356.736 734.675 395.677 770.695 443.244 790.251C490.812 809.806 543.828 811.59 592.602 795.277C607.954 790.148 647.667 772.027 657.417 759.398C659.4 756.817 660.745 753.804 661.341 750.604C661.937 747.405 661.768 744.109 660.847 740.988C659.926 737.866 658.279 735.007 656.042 732.643C653.804 730.28 651.039 728.479 647.973 727.388" fill="#FBCF00"/>
<path fill-rule="evenodd" clip-rule="evenodd" d="M670.386 495.039C669.608 497.908 669.981 500.967 671.425 503.565H671.444C695.177 543.769 702.475 591.584 691.814 637.037C691.474 638.496 691.424 640.008 691.668 641.486C691.912 642.965 692.444 644.381 693.235 645.653C694.026 646.926 695.06 648.03 696.278 648.903C697.496 649.776 698.874 650.4 700.333 650.741C701.792 651.081 703.304 651.131 704.782 650.887C706.26 650.643 707.676 650.111 708.949 649.32C710.221 648.529 711.326 647.495 712.198 646.277C713.071 645.059 713.696 643.681 714.036 642.222C726.015 591.042 717.783 537.214 691.055 491.954C689.473 489.437 686.972 487.637 684.083 486.937C681.195 486.236 678.147 486.691 675.588 488.205C673.03 489.718 671.163 492.17 670.386 495.039ZM683.118 666.81C682.026 667.827 681.146 669.05 680.527 670.407C679.28 673.123 677.842 676.055 676.212 679.204C674.583 682.352 672.999 685.222 671.462 687.815C669.926 690.41 669.484 693.51 670.233 696.431C670.983 699.353 672.862 701.857 675.458 703.393C678.053 704.929 681.153 705.371 684.074 704.622C686.996 703.873 689.5 701.994 691.036 699.398C693.073 695.935 694.86 692.725 696.397 689.768C697.934 686.812 699.536 683.5 701.203 679.833C701.822 678.476 702.167 677.009 702.22 675.518C702.272 674.027 702.03 672.54 701.508 671.143C700.985 669.745 700.193 668.464 699.175 667.373C698.158 666.281 696.936 665.401 695.578 664.782C694.22 664.163 692.754 663.818 691.263 663.766C689.772 663.713 688.285 663.955 686.888 664.478C685.49 665 684.209 665.792 683.118 666.81Z" fill="#323286"/>
</svg>
