<svg width="715" height="716" viewBox="0 0 715 716" fill="none" xmlns="http://www.w3.org/2000/svg">
<path fill-rule="evenodd" clip-rule="evenodd" d="M2.59333 321.509C-6.50873 410.139 17.8495 498.971 70.8855 570.562C123.922 642.153 201.804 691.333 289.241 708.445C299.859 710.531 310.556 712.124 321.334 713.222C331.754 714.29 342.204 714.908 352.686 715.074C435.788 716.267 516.704 688.437 581.492 636.38C646.279 584.323 690.881 511.298 707.612 429.889C710.019 418.161 711.831 406.352 713.047 394.463C714.158 383.704 714.775 372.901 714.899 362.056C715.963 270.154 681.553 181.381 618.828 114.205C556.103 47.0298 469.892 6.62486 378.134 1.397C286.375 -3.83086 196.133 26.5209 126.184 86.1375C56.235 145.754 11.9648 230.045 2.58406 321.472" fill="#D0664B"/>
<path fill-rule="evenodd" clip-rule="evenodd" d="M108.991 560.463C-2.83299 423.046 17.917 220.963 155.352 109.167C201.778 71.2726 257.931 47.2073 317.389 39.7221C423.574 26.3055 534.102 66.3332 606.648 155.518C718.473 292.944 697.723 495.037 560.297 606.815C422.871 718.592 220.815 697.889 108.991 560.463Z" fill="#EEA271"/>
<path fill-rule="evenodd" clip-rule="evenodd" d="M191 151.305C211.249 151.305 231.043 157.31 247.879 168.56C264.716 179.809 277.838 195.799 285.587 214.506C293.336 233.214 295.363 253.799 291.413 273.658C287.462 293.518 277.712 311.76 263.394 326.078C249.076 340.396 230.833 350.147 210.974 354.097C191.114 358.048 170.529 356.02 151.821 348.272C133.114 340.523 117.124 327.4 105.875 310.564C94.6251 293.728 88.6206 273.934 88.6206 253.685C88.6206 226.532 99.407 200.492 118.607 181.292C137.807 162.092 163.847 151.305 191 151.305Z" fill="#F2B38C"/>
<path fill-rule="evenodd" clip-rule="evenodd" d="M435.222 46.6665C551.398 209.778 513.852 654.435 203.528 639.324C314.574 700.166 456.028 691.666 560.296 606.815C697.722 495 718.472 292.926 606.648 155.518C562.875 101.545 502.688 63.3271 435.222 46.6665Z" fill="#EC8E65"/>
<path fill-rule="evenodd" clip-rule="evenodd" d="M588.778 580.657C515.343 524.287 388.241 443.991 558.602 509.75C884.852 635.667 0.907363 -50.2038 678.37 369.389C675.608 448.463 643.681 523.719 588.741 580.657M300.194 673.565C220.426 601 197.611 537.981 429.12 670.787C386.771 680.392 342.918 681.337 300.194 673.565ZM264.833 50.9073C282.62 59.6017 300.685 69.2036 318.787 78.5554C398.778 119.935 570.639 222.704 435.648 67.4443C428.991 59.7869 420.907 51.111 411.731 41.8054C410.694 41.2777 390.944 38.9536 388.148 38.6943C346.64 34.7199 304.755 38.8682 264.833 50.9073ZM68.4536 219.426C140.157 266.148 225.139 327.352 307.222 361.296C591.213 478.75 262.046 258.352 131.37 130.741C105.465 156.459 84.1815 186.447 68.4536 219.389V219.426ZM507.342 641.926C519.384 635.665 530.974 628.57 542.028 620.694C543.759 619.491 545.092 618.555 546 617.861C544.37 617.157 542.731 616.417 541.093 615.667L539.63 614.991L535.676 613.139L533.824 612.213C532.472 611.565 531.111 610.889 529.75 610.204L528.454 609.555C526.731 608.694 525.018 607.805 523.278 606.898C406.963 546.083 252.13 399.491 209.75 429.842C197.805 438.38 370.518 570.583 474.389 656.954C485.635 652.56 496.621 647.53 507.296 641.889L507.342 641.926ZM55.5555 465.648C181.083 519.046 122.222 443.065 37.2036 368.426C38.2277 401.59 44.4195 434.392 55.5555 465.648Z" fill="#EB7B5F"/>
</svg>
